G75*
G70*
%OFA0B0*%
%FSLAX24Y24*%
%IPPOS*%
%LPD*%
%AMOC8*
5,1,8,0,0,1.08239X$1,22.5*
%
%ADD10C,0.0100*%
%ADD11C,0.0740*%
%ADD12R,0.0600X0.0600*%
%ADD13C,0.0600*%
%ADD14C,0.1310*%
%ADD15C,0.0160*%
D10*
X022862Y004816D02*
X022952Y004726D01*
X023312Y004726D01*
X023402Y004816D01*
X023402Y004996D01*
X023312Y005086D01*
X022952Y005086D01*
X022862Y004996D01*
X022862Y004816D01*
X023042Y004497D02*
X023402Y004137D01*
X023312Y003908D02*
X023132Y003908D01*
X023042Y003818D01*
X023042Y003638D01*
X023132Y003548D01*
X023222Y003548D01*
X023222Y003908D01*
X023312Y003908D02*
X023402Y003818D01*
X023402Y003638D01*
X023402Y003319D02*
X023042Y003319D01*
X023222Y003319D02*
X023042Y003138D01*
X023042Y003048D01*
X023042Y004137D02*
X023402Y004497D01*
X023402Y005905D02*
X023132Y005905D01*
X023042Y005995D01*
X023042Y006265D01*
X023402Y006265D01*
X023402Y006494D02*
X023132Y006494D01*
X023042Y006584D01*
X023042Y006764D01*
X023222Y006764D02*
X023222Y006494D01*
X023402Y006494D02*
X023402Y006764D01*
X023312Y006854D01*
X023222Y006764D01*
X023132Y007083D02*
X023402Y007083D01*
X023132Y007083D02*
X023042Y007173D01*
X023042Y007354D01*
X023132Y007444D01*
X023042Y007656D02*
X023042Y007836D01*
X022952Y007746D02*
X023312Y007746D01*
X023402Y007656D01*
X023402Y007444D02*
X022862Y007444D01*
X023132Y008065D02*
X023402Y008065D01*
X023402Y008336D01*
X023312Y008426D01*
X023222Y008336D01*
X023222Y008065D01*
X023132Y008065D02*
X023042Y008156D01*
X023042Y008336D01*
X023132Y008655D02*
X023402Y008655D01*
X023132Y008655D02*
X023042Y008745D01*
X023042Y009015D01*
X023402Y009015D01*
X023312Y009244D02*
X023132Y009244D01*
X023042Y009334D01*
X023042Y009514D01*
X023132Y009604D01*
X023312Y009604D01*
X023402Y009514D01*
X023402Y009334D01*
X023312Y009244D01*
X023312Y009923D02*
X022862Y009923D01*
X022862Y009833D02*
X022862Y010014D01*
X023312Y009923D02*
X023402Y010014D01*
X023402Y010104D01*
X023312Y010194D01*
X023312Y011012D02*
X022952Y011012D01*
X023312Y011372D01*
X023402Y011282D01*
X023402Y011102D01*
X023312Y011012D01*
X022952Y011012D02*
X022862Y011102D01*
X022862Y011282D01*
X022952Y011372D01*
X023312Y011372D01*
X023402Y011601D02*
X023402Y011961D01*
X023402Y011781D02*
X022862Y011781D01*
X023042Y011961D01*
X022952Y012191D02*
X022862Y012281D01*
X022862Y012461D01*
X022952Y012551D01*
X023312Y012551D01*
X022952Y012191D01*
X023312Y012191D01*
X023402Y012281D01*
X023402Y012461D01*
X023312Y012551D01*
X023402Y012780D02*
X023402Y013140D01*
X023042Y012780D01*
X022952Y012780D01*
X022862Y012870D01*
X022862Y013050D01*
X022952Y013140D01*
X023042Y013942D02*
X022862Y014122D01*
X023042Y013942D02*
X023222Y013942D01*
X023402Y014122D01*
X023402Y014351D02*
X023402Y014621D01*
X023312Y014711D01*
X023132Y014711D01*
X023042Y014621D01*
X023042Y014351D01*
X022862Y014924D02*
X023042Y015104D01*
X023222Y015104D01*
X023402Y014924D01*
D11*
X016252Y016554D03*
X015252Y016554D03*
X014252Y016554D03*
X013252Y016554D03*
X012252Y016554D03*
X011252Y016554D03*
X011252Y017554D03*
X012252Y017554D03*
X013252Y017554D03*
X014252Y017554D03*
X015252Y017554D03*
X016252Y017554D03*
X015752Y011554D03*
X014752Y011554D03*
X013752Y011554D03*
X012752Y011554D03*
X011752Y011554D03*
X010752Y011554D03*
X009752Y011554D03*
X008752Y011554D03*
X007752Y011554D03*
X006752Y011554D03*
X005752Y011554D03*
X004752Y011554D03*
X004752Y005554D03*
X005752Y005554D03*
X006752Y005554D03*
X007752Y005554D03*
X008752Y005554D03*
X009752Y005554D03*
X010752Y005554D03*
X011752Y005554D03*
X012752Y005554D03*
X013752Y005554D03*
X014752Y005554D03*
X015752Y005554D03*
X016752Y001554D03*
X017752Y001554D03*
X018752Y001554D03*
X019752Y001554D03*
X020752Y001554D03*
X021752Y001554D03*
X014752Y001554D03*
X013752Y001554D03*
X012752Y001554D03*
X011752Y001554D03*
X010752Y001554D03*
X009752Y001554D03*
D12*
X013152Y020554D03*
X021752Y020554D03*
D13*
X020752Y020554D03*
X019752Y020554D03*
X018752Y020554D03*
X017752Y020554D03*
X016752Y020554D03*
X015752Y020554D03*
X014752Y020554D03*
X012152Y020554D03*
X011152Y020554D03*
X010152Y020554D03*
X009152Y020554D03*
X008152Y020554D03*
X007152Y020554D03*
X006152Y020554D03*
X004252Y020554D03*
X004252Y019554D03*
X003252Y019554D03*
X002252Y019554D03*
X001252Y019554D03*
X001252Y020554D03*
X002252Y020554D03*
X003252Y020554D03*
X003252Y018554D03*
X003252Y017554D03*
X004252Y017554D03*
X005252Y017554D03*
X006252Y017554D03*
X007252Y017554D03*
X008252Y017554D03*
X008252Y018554D03*
X007252Y018554D03*
X006252Y018554D03*
X005252Y018554D03*
X004252Y018554D03*
X002252Y018554D03*
X002252Y017554D03*
X001252Y017554D03*
X001252Y018554D03*
X001252Y016554D03*
X001252Y015554D03*
X002252Y015554D03*
X003252Y015554D03*
X004252Y015554D03*
X005252Y015554D03*
X006252Y015554D03*
X007252Y015554D03*
X008252Y015554D03*
X008252Y016554D03*
X007252Y016554D03*
X006252Y016554D03*
X005252Y016554D03*
X004252Y016554D03*
X003252Y016554D03*
X002252Y016554D03*
X002252Y014554D03*
X002252Y013554D03*
X003252Y013554D03*
X004252Y013554D03*
X005252Y013554D03*
X006252Y013554D03*
X007252Y013554D03*
X008252Y013554D03*
X008252Y014554D03*
X007252Y014554D03*
X006252Y014554D03*
X005252Y014554D03*
X004252Y014554D03*
X003252Y014554D03*
X001252Y014554D03*
X001252Y013554D03*
X001252Y012554D03*
X001252Y011554D03*
X002252Y011554D03*
X003252Y011554D03*
X003252Y012554D03*
X002252Y012554D03*
X002252Y010554D03*
X002252Y009554D03*
X003252Y009554D03*
X003252Y010554D03*
X001252Y010554D03*
X001252Y009554D03*
X001252Y008554D03*
X001252Y007554D03*
X002252Y007554D03*
X003252Y007554D03*
X003252Y008554D03*
X002252Y008554D03*
X002252Y006554D03*
X002252Y005554D03*
X003252Y005554D03*
X003252Y006554D03*
X001252Y006554D03*
X001252Y005554D03*
X001252Y004554D03*
X002252Y004554D03*
X003252Y004554D03*
X004032Y003544D03*
X005572Y003544D03*
X005572Y001764D03*
X004032Y001764D03*
X001472Y001764D03*
X001472Y003544D03*
X008132Y003544D03*
X008132Y001764D03*
D14*
X019752Y013469D03*
X019752Y018639D03*
D15*
X009528Y001030D02*
X000823Y001030D01*
X000769Y001071D02*
X000625Y001258D01*
X000534Y001475D01*
X000512Y001578D01*
X000512Y020530D01*
X000534Y020633D01*
X000625Y020850D01*
X000769Y021037D01*
X000956Y021181D01*
X001173Y021273D01*
X001276Y021294D01*
X021752Y021294D01*
X021868Y021285D01*
X022088Y021214D01*
X022275Y021078D01*
X022411Y020890D01*
X022483Y020670D01*
X022492Y020554D01*
X022492Y020513D01*
X022492Y020503D01*
X022492Y016503D01*
X022532Y016407D01*
X022605Y016334D01*
X023492Y015447D01*
X023492Y015188D01*
X023434Y015246D01*
X023363Y015316D01*
X023272Y015354D01*
X023091Y015354D01*
X022992Y015354D01*
X022966Y015343D01*
X022900Y015316D01*
X022650Y015066D01*
X022612Y014974D01*
X022612Y014874D01*
X022650Y014783D01*
X022720Y014712D01*
X022796Y014681D01*
X022792Y014671D01*
X022792Y014572D01*
X022792Y014364D01*
X022720Y014334D01*
X022650Y014264D01*
X022612Y014172D01*
X022612Y014072D01*
X022650Y013981D01*
X022900Y013730D01*
X022966Y013703D01*
X022992Y013692D01*
X023091Y013692D01*
X023272Y013692D01*
X023363Y013730D01*
X023434Y013800D01*
X023492Y013859D01*
X023492Y013373D01*
X023452Y013390D01*
X023352Y013390D01*
X023260Y013352D01*
X023171Y013263D01*
X023164Y013282D01*
X023093Y013352D01*
X023001Y013390D01*
X022902Y013390D01*
X022810Y013352D01*
X022650Y013192D01*
X022612Y013100D01*
X022612Y013000D01*
X022612Y012820D01*
X022650Y012728D01*
X022713Y012665D01*
X022650Y012602D01*
X022612Y012511D01*
X022612Y012510D01*
X022612Y012330D01*
X022612Y012231D01*
X022650Y012139D01*
X022740Y012049D01*
X022758Y012031D01*
X022650Y011923D01*
X022612Y011831D01*
X022612Y011732D01*
X022623Y011704D01*
X022650Y011640D01*
X022720Y011569D01*
X022773Y011547D01*
X022650Y011424D01*
X022612Y011332D01*
X022612Y011152D01*
X022612Y011052D01*
X022650Y010960D01*
X022740Y010870D01*
X022810Y010800D01*
X022818Y010797D01*
X022902Y010762D01*
X023362Y010762D01*
X023454Y010800D01*
X023492Y010838D01*
X023492Y010367D01*
X023454Y010406D01*
X023362Y010444D01*
X023262Y010444D01*
X023170Y010406D01*
X023100Y010335D01*
X023062Y010243D01*
X023062Y010173D01*
X023055Y010173D01*
X023003Y010225D01*
X022911Y010263D01*
X022812Y010263D01*
X022720Y010225D01*
X022650Y010155D01*
X022612Y010063D01*
X022612Y009784D01*
X022650Y009692D01*
X022720Y009621D01*
X022801Y009588D01*
X022792Y009564D01*
X022792Y009465D01*
X022792Y009284D01*
X022830Y009193D01*
X022848Y009175D01*
X022830Y009157D01*
X022792Y009065D01*
X022792Y008795D01*
X022792Y008695D01*
X022830Y008603D01*
X022893Y008540D01*
X022830Y008477D01*
X022792Y008385D01*
X022792Y008205D01*
X022792Y008106D01*
X022830Y008014D01*
X022848Y007996D01*
X022830Y007978D01*
X022824Y007964D01*
X022810Y007958D01*
X022740Y007888D01*
X022702Y007796D01*
X022702Y007697D01*
X022719Y007655D01*
X022650Y007585D01*
X022612Y007493D01*
X022612Y007394D01*
X022650Y007302D01*
X022720Y007232D01*
X022792Y007202D01*
X022792Y007124D01*
X022830Y007032D01*
X022893Y006969D01*
X022830Y006906D01*
X022792Y006814D01*
X022792Y006634D01*
X022792Y006534D01*
X022830Y006443D01*
X022848Y006425D01*
X022830Y006407D01*
X022792Y006315D01*
X022792Y006045D01*
X022792Y005945D01*
X016168Y005945D01*
X016235Y005877D02*
X016075Y006038D01*
X015865Y006124D01*
X015639Y006124D01*
X015429Y006038D01*
X015269Y005877D01*
X015252Y005837D01*
X015235Y005877D01*
X015075Y006038D01*
X014865Y006124D01*
X014639Y006124D01*
X014429Y006038D01*
X014269Y005877D01*
X014252Y005837D01*
X014235Y005877D01*
X014075Y006038D01*
X013865Y006124D01*
X013639Y006124D01*
X013429Y006038D01*
X013269Y005877D01*
X013252Y005837D01*
X013235Y005877D01*
X013075Y006038D01*
X012865Y006124D01*
X012639Y006124D01*
X012429Y006038D01*
X012269Y005877D01*
X012252Y005837D01*
X012235Y005877D01*
X012075Y006038D01*
X011865Y006124D01*
X011639Y006124D01*
X011429Y006038D01*
X011269Y005877D01*
X011252Y005837D01*
X011235Y005877D01*
X011075Y006038D01*
X010865Y006124D01*
X010639Y006124D01*
X010429Y006038D01*
X010269Y005877D01*
X010241Y005810D01*
X010218Y005866D01*
X010064Y006021D01*
X009861Y006104D01*
X009772Y006104D01*
X009772Y005575D01*
X009732Y005575D01*
X009732Y006104D01*
X009643Y006104D01*
X009440Y006021D01*
X009286Y005866D01*
X009263Y005810D01*
X009235Y005877D01*
X009075Y006038D01*
X008865Y006124D01*
X008639Y006124D01*
X008429Y006038D01*
X008269Y005877D01*
X008252Y005837D01*
X008235Y005877D01*
X008075Y006038D01*
X007865Y006124D01*
X007639Y006124D01*
X007429Y006038D01*
X007269Y005877D01*
X007252Y005837D01*
X007235Y005877D01*
X007075Y006038D01*
X006865Y006124D01*
X006639Y006124D01*
X006429Y006038D01*
X006269Y005877D01*
X006252Y005837D01*
X006235Y005877D01*
X006075Y006038D01*
X005865Y006124D01*
X005639Y006124D01*
X005429Y006038D01*
X005269Y005877D01*
X005252Y005837D01*
X005235Y005877D01*
X005075Y006038D01*
X004865Y006124D01*
X004639Y006124D01*
X004429Y006038D01*
X004269Y005877D01*
X004182Y005668D01*
X004182Y005441D01*
X004269Y005231D01*
X004429Y005071D01*
X004639Y004984D01*
X004865Y004984D01*
X005075Y005071D01*
X005235Y005231D01*
X005252Y005272D01*
X005269Y005231D01*
X005429Y005071D01*
X005639Y004984D01*
X005865Y004984D01*
X006075Y005071D01*
X006235Y005231D01*
X006252Y005272D01*
X006269Y005231D01*
X006429Y005071D01*
X006639Y004984D01*
X006865Y004984D01*
X007075Y005071D01*
X007235Y005231D01*
X007252Y005272D01*
X007269Y005231D01*
X007429Y005071D01*
X007639Y004984D01*
X007865Y004984D01*
X008075Y005071D01*
X008235Y005231D01*
X008252Y005272D01*
X008269Y005231D01*
X008429Y005071D01*
X008639Y004984D01*
X008865Y004984D01*
X009075Y005071D01*
X009235Y005231D01*
X009263Y005298D01*
X009286Y005243D01*
X009440Y005088D01*
X009643Y005004D01*
X009732Y005004D01*
X009732Y005534D01*
X009772Y005534D01*
X009772Y005004D01*
X009861Y005004D01*
X010064Y005088D01*
X010218Y005243D01*
X010241Y005298D01*
X010269Y005231D01*
X010429Y005071D01*
X010639Y004984D01*
X010865Y004984D01*
X011075Y005071D01*
X011235Y005231D01*
X011252Y005272D01*
X011269Y005231D01*
X011429Y005071D01*
X011639Y004984D01*
X011865Y004984D01*
X012075Y005071D01*
X012235Y005231D01*
X012252Y005272D01*
X012269Y005231D01*
X012429Y005071D01*
X012639Y004984D01*
X012865Y004984D01*
X013075Y005071D01*
X013235Y005231D01*
X013252Y005272D01*
X013269Y005231D01*
X013429Y005071D01*
X013639Y004984D01*
X013865Y004984D01*
X014075Y005071D01*
X014235Y005231D01*
X014252Y005272D01*
X014269Y005231D01*
X014429Y005071D01*
X014639Y004984D01*
X014865Y004984D01*
X015075Y005071D01*
X015235Y005231D01*
X015252Y005272D01*
X015269Y005231D01*
X015429Y005071D01*
X015639Y004984D01*
X015865Y004984D01*
X016075Y005071D01*
X016235Y005231D01*
X016322Y005441D01*
X016322Y005668D01*
X016235Y005877D01*
X016273Y005786D02*
X022897Y005786D01*
X022920Y005763D02*
X022990Y005693D01*
X023082Y005655D01*
X023452Y005655D01*
X023492Y005671D01*
X023492Y005260D01*
X023454Y005298D01*
X023362Y005336D01*
X023262Y005336D01*
X022902Y005336D01*
X022863Y005320D01*
X022810Y005298D01*
X022809Y005298D01*
X022650Y005138D01*
X022612Y005046D01*
X022612Y004947D01*
X022612Y004866D01*
X022612Y004766D01*
X022650Y004675D01*
X022792Y004533D01*
X022792Y004447D01*
X022830Y004356D01*
X022868Y004317D01*
X022830Y004278D01*
X022792Y004187D01*
X022792Y004087D01*
X022830Y003995D01*
X022848Y003977D01*
X022830Y003959D01*
X022792Y003868D01*
X022792Y003868D01*
X022792Y003687D01*
X022792Y003588D01*
X022830Y003496D01*
X022848Y003478D01*
X022830Y003460D01*
X022792Y003368D01*
X022792Y003269D01*
X022808Y003229D01*
X022792Y003188D01*
X022792Y002999D01*
X022830Y002907D01*
X022900Y002836D01*
X022992Y002798D01*
X023091Y002798D01*
X023183Y002836D01*
X023254Y002907D01*
X023292Y002999D01*
X023292Y003035D01*
X023325Y003069D01*
X023452Y003069D01*
X023492Y003085D01*
X023492Y002662D01*
X022532Y001702D01*
X022492Y001606D01*
X022492Y001554D01*
X022483Y001439D01*
X022411Y001218D01*
X022275Y001031D01*
X022088Y000895D01*
X021868Y000823D01*
X021752Y000814D01*
X021725Y000814D01*
X021700Y000814D01*
X001276Y000814D01*
X001173Y000836D01*
X000956Y000928D01*
X000769Y001071D01*
X000679Y001189D02*
X009312Y001189D01*
X009269Y001231D02*
X009429Y001071D01*
X009639Y000984D01*
X009865Y000984D01*
X010075Y001071D01*
X010235Y001231D01*
X010252Y001272D01*
X010269Y001231D01*
X010429Y001071D01*
X010639Y000984D01*
X010865Y000984D01*
X011075Y001071D01*
X011235Y001231D01*
X011252Y001272D01*
X011269Y001231D01*
X011429Y001071D01*
X011639Y000984D01*
X011865Y000984D01*
X012075Y001071D01*
X012235Y001231D01*
X012263Y001298D01*
X012286Y001243D01*
X012440Y001088D01*
X012643Y001004D01*
X012732Y001004D01*
X012732Y001534D01*
X012772Y001534D01*
X012772Y001004D01*
X012861Y001004D01*
X013064Y001088D01*
X013218Y001243D01*
X013252Y001324D01*
X013286Y001243D01*
X013440Y001088D01*
X013643Y001004D01*
X013732Y001004D01*
X013732Y001534D01*
X013772Y001534D01*
X013772Y001004D01*
X013861Y001004D01*
X014064Y001088D01*
X014218Y001243D01*
X014241Y001298D01*
X014269Y001231D01*
X014429Y001071D01*
X014639Y000984D01*
X014865Y000984D01*
X015075Y001071D01*
X015235Y001231D01*
X015322Y001441D01*
X015322Y001668D01*
X015235Y001877D01*
X015075Y002038D01*
X014865Y002124D01*
X014639Y002124D01*
X014429Y002038D01*
X014269Y001877D01*
X014241Y001810D01*
X014218Y001866D01*
X014064Y002021D01*
X013861Y002104D01*
X013772Y002104D01*
X013772Y001575D01*
X013732Y001575D01*
X013732Y002104D01*
X013643Y002104D01*
X013440Y002021D01*
X013286Y001866D01*
X013252Y001784D01*
X013218Y001866D01*
X013064Y002021D01*
X012861Y002104D01*
X012772Y002104D01*
X012772Y001575D01*
X012732Y001575D01*
X012732Y002104D01*
X012643Y002104D01*
X012440Y002021D01*
X012286Y001866D01*
X012263Y001811D01*
X012235Y001877D01*
X012075Y002038D01*
X011865Y002124D01*
X011639Y002124D01*
X011429Y002038D01*
X011269Y001877D01*
X011252Y001837D01*
X011235Y001877D01*
X011075Y002038D01*
X010865Y002124D01*
X010639Y002124D01*
X010429Y002038D01*
X010269Y001877D01*
X010252Y001837D01*
X010235Y001877D01*
X010075Y002038D01*
X010032Y002055D01*
X010032Y002110D01*
X010032Y002209D01*
X010032Y002209D01*
X009913Y002496D01*
X009913Y002496D01*
X009694Y002716D01*
X009694Y002716D01*
X009407Y002834D01*
X009308Y002834D01*
X009267Y002834D01*
X009252Y002834D01*
X009196Y002834D01*
X004752Y002834D01*
X004709Y002839D01*
X004630Y002871D01*
X004569Y002932D01*
X004536Y003011D01*
X004532Y003054D01*
X004532Y003080D01*
X004532Y003110D01*
X004532Y003199D01*
X004547Y003282D01*
X004519Y003414D01*
X004532Y003445D01*
X004532Y003644D01*
X004456Y003828D01*
X004315Y003968D01*
X004131Y004044D01*
X003932Y004044D01*
X003749Y003968D01*
X003608Y003828D01*
X003607Y003824D01*
X001897Y003824D01*
X001896Y003828D01*
X001755Y003968D01*
X001571Y004044D01*
X001372Y004044D01*
X001189Y003968D01*
X001048Y003828D01*
X000972Y003644D01*
X000972Y003445D01*
X001048Y003261D01*
X001189Y003120D01*
X001372Y003044D01*
X001571Y003044D01*
X001755Y003120D01*
X001896Y003261D01*
X001897Y003264D01*
X003607Y003264D01*
X003608Y003261D01*
X003749Y003120D01*
X003932Y003044D01*
X003972Y003044D01*
X003972Y002999D01*
X003972Y002899D01*
X004091Y002613D01*
X004091Y002612D01*
X004310Y002393D01*
X004310Y002393D01*
X004597Y002274D01*
X004696Y002274D01*
X009196Y002274D01*
X009252Y002274D01*
X009295Y002270D01*
X009374Y002237D01*
X009435Y002177D01*
X009468Y002097D01*
X009472Y002055D01*
X009429Y002038D01*
X009269Y001877D01*
X009182Y001668D01*
X009182Y001441D01*
X009269Y001231D01*
X009221Y001347D02*
X008379Y001347D01*
X008404Y001357D02*
X008539Y001492D01*
X008612Y001669D01*
X008612Y001744D01*
X008152Y001744D01*
X008152Y001284D01*
X008227Y001284D01*
X008404Y001357D01*
X008544Y001506D02*
X009182Y001506D01*
X009182Y001664D02*
X008610Y001664D01*
X008612Y001784D02*
X008612Y001860D01*
X008539Y002036D01*
X008404Y002171D01*
X008227Y002244D01*
X008152Y002244D01*
X008152Y001785D01*
X008112Y001785D01*
X008112Y002244D01*
X008036Y002244D01*
X007860Y002171D01*
X007725Y002036D01*
X007652Y001860D01*
X007652Y001784D01*
X008112Y001784D01*
X008112Y001744D01*
X008152Y001744D01*
X008152Y001784D01*
X008612Y001784D01*
X008612Y001823D02*
X009246Y001823D01*
X009373Y001981D02*
X008562Y001981D01*
X008435Y002140D02*
X009450Y002140D01*
X009752Y002054D02*
X009750Y002098D01*
X009744Y002141D01*
X009735Y002183D01*
X009722Y002225D01*
X009705Y002265D01*
X009685Y002304D01*
X009662Y002341D01*
X009635Y002375D01*
X009606Y002408D01*
X009573Y002437D01*
X009539Y002464D01*
X009502Y002487D01*
X009463Y002507D01*
X009423Y002524D01*
X009381Y002537D01*
X009339Y002546D01*
X009296Y002552D01*
X009252Y002554D01*
X004752Y002554D01*
X004597Y002274D02*
X004597Y002274D01*
X004539Y002298D02*
X000512Y002298D01*
X000512Y002140D02*
X001169Y002140D01*
X001200Y002171D02*
X001065Y002036D01*
X000992Y001860D01*
X000992Y001784D01*
X001452Y001784D01*
X001452Y001744D01*
X001492Y001744D01*
X001492Y001284D01*
X001567Y001284D01*
X001744Y001357D01*
X001879Y001492D01*
X001952Y001669D01*
X001952Y001744D01*
X001492Y001744D01*
X001492Y001784D01*
X001952Y001784D01*
X001952Y001860D01*
X001879Y002036D01*
X001744Y002171D01*
X001567Y002244D01*
X001492Y002244D01*
X001492Y001785D01*
X001452Y001785D01*
X001452Y002244D01*
X001376Y002244D01*
X001200Y002171D01*
X001042Y001981D02*
X000512Y001981D01*
X000512Y001823D02*
X000992Y001823D01*
X000992Y001744D02*
X000992Y001669D01*
X001065Y001492D01*
X001200Y001357D01*
X001376Y001284D01*
X001452Y001284D01*
X001452Y001744D01*
X000992Y001744D01*
X000994Y001664D02*
X000512Y001664D01*
X000527Y001506D02*
X001060Y001506D01*
X001225Y001347D02*
X000588Y001347D01*
X001089Y000871D02*
X022015Y000871D01*
X021976Y001030D02*
X022274Y001030D01*
X022192Y001189D02*
X022390Y001189D01*
X022235Y001231D02*
X022322Y001441D01*
X022322Y001668D01*
X022235Y001877D01*
X022075Y002038D01*
X021865Y002124D01*
X021639Y002124D01*
X021429Y002038D01*
X021269Y001877D01*
X021252Y001837D01*
X021235Y001877D01*
X021075Y002038D01*
X020865Y002124D01*
X020639Y002124D01*
X020429Y002038D01*
X020269Y001877D01*
X020252Y001837D01*
X020235Y001877D01*
X020075Y002038D01*
X019865Y002124D01*
X019639Y002124D01*
X019429Y002038D01*
X019269Y001877D01*
X019252Y001837D01*
X019235Y001877D01*
X019075Y002038D01*
X018865Y002124D01*
X018639Y002124D01*
X018429Y002038D01*
X018269Y001877D01*
X018252Y001837D01*
X018235Y001877D01*
X018075Y002038D01*
X017865Y002124D01*
X017639Y002124D01*
X017429Y002038D01*
X017269Y001877D01*
X017252Y001837D01*
X017235Y001877D01*
X017075Y002038D01*
X016865Y002124D01*
X016639Y002124D01*
X016429Y002038D01*
X016269Y001877D01*
X016182Y001668D01*
X016182Y001441D01*
X016269Y001231D01*
X016429Y001071D01*
X016639Y000984D01*
X016865Y000984D01*
X017075Y001071D01*
X017235Y001231D01*
X017252Y001272D01*
X017269Y001231D01*
X017429Y001071D01*
X017639Y000984D01*
X017865Y000984D01*
X018075Y001071D01*
X018235Y001231D01*
X018252Y001272D01*
X018269Y001231D01*
X018429Y001071D01*
X018639Y000984D01*
X018865Y000984D01*
X019075Y001071D01*
X019235Y001231D01*
X019252Y001272D01*
X019269Y001231D01*
X019429Y001071D01*
X019639Y000984D01*
X019865Y000984D01*
X020075Y001071D01*
X020235Y001231D01*
X020252Y001272D01*
X020269Y001231D01*
X020429Y001071D01*
X020639Y000984D01*
X020865Y000984D01*
X021075Y001071D01*
X021235Y001231D01*
X021252Y001272D01*
X021269Y001231D01*
X021429Y001071D01*
X021639Y000984D01*
X021865Y000984D01*
X022075Y001071D01*
X022235Y001231D01*
X022283Y001347D02*
X022453Y001347D01*
X022488Y001506D02*
X022322Y001506D01*
X022322Y001664D02*
X022516Y001664D01*
X022653Y001823D02*
X022258Y001823D01*
X022131Y001981D02*
X022811Y001981D01*
X022970Y002140D02*
X010032Y002140D01*
X009995Y002298D02*
X023128Y002298D01*
X023287Y002457D02*
X009929Y002457D01*
X009794Y002615D02*
X023445Y002615D01*
X023492Y002774D02*
X009553Y002774D01*
X009407Y002834D02*
X009407Y002834D01*
X009752Y002054D02*
X009752Y001554D01*
X010131Y001981D02*
X010373Y001981D01*
X011131Y001981D02*
X011373Y001981D01*
X012131Y001981D02*
X012401Y001981D01*
X012268Y001823D02*
X012258Y001823D01*
X012732Y001823D02*
X012772Y001823D01*
X012772Y001981D02*
X012732Y001981D01*
X012732Y001664D02*
X012772Y001664D01*
X012772Y001574D02*
X013202Y001574D01*
X013732Y001574D01*
X013732Y001534D01*
X013202Y001534D01*
X012772Y001534D01*
X012772Y001574D01*
X012772Y001506D02*
X012732Y001506D01*
X012732Y001347D02*
X012772Y001347D01*
X012772Y001189D02*
X012732Y001189D01*
X012732Y001030D02*
X012772Y001030D01*
X012923Y001030D02*
X013581Y001030D01*
X013732Y001030D02*
X013772Y001030D01*
X013923Y001030D02*
X014528Y001030D01*
X014312Y001189D02*
X014164Y001189D01*
X013772Y001189D02*
X013732Y001189D01*
X013732Y001347D02*
X013772Y001347D01*
X013772Y001506D02*
X013732Y001506D01*
X013732Y001664D02*
X013772Y001664D01*
X013772Y001823D02*
X013732Y001823D01*
X013732Y001981D02*
X013772Y001981D01*
X014103Y001981D02*
X014373Y001981D01*
X014246Y001823D02*
X014236Y001823D01*
X013401Y001981D02*
X013103Y001981D01*
X013236Y001823D02*
X013268Y001823D01*
X013340Y001189D02*
X013164Y001189D01*
X012581Y001030D02*
X011976Y001030D01*
X012192Y001189D02*
X012340Y001189D01*
X011528Y001030D02*
X010976Y001030D01*
X011192Y001189D02*
X011312Y001189D01*
X010528Y001030D02*
X009976Y001030D01*
X010192Y001189D02*
X010312Y001189D01*
X008344Y003091D02*
X022792Y003091D01*
X022792Y003188D02*
X022792Y003188D01*
X022800Y003250D02*
X008544Y003250D01*
X008556Y003261D02*
X008632Y003445D01*
X008632Y003644D01*
X008556Y003828D01*
X008415Y003968D01*
X008231Y004044D01*
X008032Y004044D01*
X007849Y003968D01*
X007708Y003828D01*
X007707Y003824D01*
X005997Y003824D01*
X005996Y003828D01*
X005855Y003968D01*
X005671Y004044D01*
X005472Y004044D01*
X005289Y003968D01*
X005148Y003828D01*
X005072Y003644D01*
X005072Y003445D01*
X005148Y003261D01*
X005289Y003120D01*
X005472Y003044D01*
X005671Y003044D01*
X005855Y003120D01*
X005996Y003261D01*
X005997Y003264D01*
X007707Y003264D01*
X007708Y003261D01*
X007849Y003120D01*
X008032Y003044D01*
X008231Y003044D01*
X008415Y003120D01*
X008556Y003261D01*
X008617Y003408D02*
X022808Y003408D01*
X022800Y003567D02*
X008632Y003567D01*
X008598Y003725D02*
X022792Y003725D01*
X022798Y003884D02*
X008500Y003884D01*
X008236Y004042D02*
X022810Y004042D01*
X022798Y004201D02*
X003606Y004201D01*
X003676Y004271D02*
X003535Y004130D01*
X003351Y004054D01*
X003152Y004054D01*
X002969Y004130D01*
X002828Y004271D01*
X002752Y004455D01*
X002752Y004654D01*
X002828Y004838D01*
X002969Y004978D01*
X003152Y005054D01*
X003351Y005054D01*
X003535Y004978D01*
X003676Y004838D01*
X003752Y004654D01*
X003752Y004455D01*
X003676Y004271D01*
X003712Y004359D02*
X022828Y004359D01*
X022792Y004518D02*
X003752Y004518D01*
X003743Y004676D02*
X022649Y004676D01*
X022612Y004835D02*
X003677Y004835D01*
X003498Y004994D02*
X004616Y004994D01*
X004348Y005152D02*
X003557Y005152D01*
X003535Y005130D02*
X003676Y005271D01*
X003752Y005455D01*
X003752Y005654D01*
X003676Y005838D01*
X003535Y005978D01*
X003351Y006054D01*
X003152Y006054D01*
X002969Y005978D01*
X002828Y005838D01*
X002752Y005654D01*
X002752Y005455D01*
X002828Y005271D01*
X002969Y005130D01*
X003152Y005054D01*
X003351Y005054D01*
X003535Y005130D01*
X003692Y005311D02*
X004236Y005311D01*
X004182Y005469D02*
X003752Y005469D01*
X003752Y005628D02*
X004182Y005628D01*
X004231Y005786D02*
X003697Y005786D01*
X003569Y005945D02*
X004336Y005945D01*
X004588Y006103D02*
X003470Y006103D01*
X003535Y006130D02*
X003676Y006271D01*
X003752Y006455D01*
X003752Y006654D01*
X003676Y006838D01*
X003535Y006978D01*
X003351Y007054D01*
X003152Y007054D01*
X002969Y006978D01*
X002828Y006838D01*
X002752Y006654D01*
X002676Y006838D01*
X002535Y006978D01*
X002351Y007054D01*
X002152Y007054D01*
X001969Y006978D01*
X001828Y006838D01*
X001752Y006654D01*
X001676Y006838D01*
X001535Y006978D01*
X001351Y007054D01*
X001152Y007054D01*
X000969Y006978D01*
X000828Y006838D01*
X000752Y006654D01*
X000752Y006455D01*
X000828Y006271D01*
X000969Y006130D01*
X001152Y006054D01*
X000969Y005978D01*
X000828Y005838D01*
X000752Y005654D01*
X000752Y005455D01*
X000828Y005271D01*
X000969Y005130D01*
X001152Y005054D01*
X000969Y004978D01*
X000828Y004838D01*
X000752Y004654D01*
X000752Y004455D01*
X000828Y004271D01*
X000969Y004130D01*
X001152Y004054D01*
X001351Y004054D01*
X001535Y004130D01*
X001676Y004271D01*
X001752Y004455D01*
X001828Y004271D01*
X001969Y004130D01*
X002152Y004054D01*
X002351Y004054D01*
X002535Y004130D01*
X002676Y004271D01*
X002752Y004455D01*
X002752Y004654D01*
X002676Y004838D01*
X002535Y004978D01*
X002351Y005054D01*
X002152Y005054D01*
X001969Y004978D01*
X001828Y004838D01*
X001752Y004654D01*
X001752Y004455D01*
X001752Y004654D01*
X001676Y004838D01*
X001535Y004978D01*
X001351Y005054D01*
X001152Y005054D01*
X001351Y005054D01*
X001535Y005130D01*
X001676Y005271D01*
X001752Y005455D01*
X001828Y005271D01*
X001969Y005130D01*
X002152Y005054D01*
X002351Y005054D01*
X002535Y005130D01*
X002676Y005271D01*
X002752Y005455D01*
X002752Y005654D01*
X002676Y005838D01*
X002535Y005978D01*
X002351Y006054D01*
X002152Y006054D01*
X001969Y005978D01*
X001828Y005838D01*
X001752Y005654D01*
X001752Y005455D01*
X001752Y005654D01*
X001676Y005838D01*
X001535Y005978D01*
X001351Y006054D01*
X001152Y006054D01*
X001351Y006054D01*
X001535Y006130D01*
X001676Y006271D01*
X001752Y006455D01*
X001752Y006654D01*
X001752Y006455D01*
X001828Y006271D01*
X001969Y006130D01*
X002152Y006054D01*
X002351Y006054D01*
X002535Y006130D01*
X002676Y006271D01*
X002752Y006455D01*
X002752Y006654D01*
X002752Y006455D01*
X002828Y006271D01*
X002969Y006130D01*
X003152Y006054D01*
X003351Y006054D01*
X003535Y006130D01*
X003667Y006262D02*
X022792Y006262D01*
X022792Y006103D02*
X015916Y006103D01*
X015588Y006103D02*
X014916Y006103D01*
X015168Y005945D02*
X015336Y005945D01*
X014588Y006103D02*
X013916Y006103D01*
X014168Y005945D02*
X014336Y005945D01*
X013588Y006103D02*
X012916Y006103D01*
X013168Y005945D02*
X013336Y005945D01*
X012588Y006103D02*
X011916Y006103D01*
X012168Y005945D02*
X012336Y005945D01*
X011588Y006103D02*
X010916Y006103D01*
X011168Y005945D02*
X011336Y005945D01*
X010588Y006103D02*
X009864Y006103D01*
X009772Y006103D02*
X009732Y006103D01*
X009640Y006103D02*
X008916Y006103D01*
X009168Y005945D02*
X009365Y005945D01*
X009732Y005945D02*
X009772Y005945D01*
X009772Y005786D02*
X009732Y005786D01*
X009732Y005628D02*
X009772Y005628D01*
X009772Y005469D02*
X009732Y005469D01*
X009732Y005311D02*
X009772Y005311D01*
X009772Y005152D02*
X009732Y005152D01*
X009376Y005152D02*
X009156Y005152D01*
X008888Y004994D02*
X010616Y004994D01*
X010888Y004994D02*
X011616Y004994D01*
X011888Y004994D02*
X012616Y004994D01*
X012888Y004994D02*
X013616Y004994D01*
X013888Y004994D02*
X014616Y004994D01*
X014348Y005152D02*
X014156Y005152D01*
X014888Y004994D02*
X015616Y004994D01*
X015888Y004994D02*
X022612Y004994D01*
X022664Y005152D02*
X016156Y005152D01*
X016268Y005311D02*
X022840Y005311D01*
X022810Y005298D02*
X022810Y005298D01*
X022920Y005763D02*
X022830Y005853D01*
X022792Y005945D01*
X022844Y006420D02*
X003738Y006420D01*
X003752Y006579D02*
X022792Y006579D01*
X022792Y006738D02*
X003717Y006738D01*
X003617Y006896D02*
X022826Y006896D01*
X022820Y007055D02*
X003352Y007055D01*
X003351Y007054D02*
X003535Y007130D01*
X003676Y007271D01*
X003752Y007455D01*
X003752Y007654D01*
X003676Y007838D01*
X003535Y007978D01*
X003351Y008054D01*
X003152Y008054D01*
X002969Y007978D01*
X002828Y007838D01*
X002752Y007654D01*
X002752Y007455D01*
X002828Y007271D01*
X002969Y007130D01*
X003152Y007054D01*
X003351Y007054D01*
X003152Y007055D02*
X002352Y007055D01*
X002351Y007054D02*
X002535Y007130D01*
X002676Y007271D01*
X002752Y007455D01*
X002752Y007654D01*
X002676Y007838D01*
X002535Y007978D01*
X002351Y008054D01*
X002152Y008054D01*
X001969Y007978D01*
X001828Y007838D01*
X001752Y007654D01*
X001752Y007455D01*
X001828Y007271D01*
X001969Y007130D01*
X002152Y007054D01*
X002351Y007054D01*
X002152Y007055D02*
X001352Y007055D01*
X001351Y007054D02*
X001535Y007130D01*
X001676Y007271D01*
X001752Y007455D01*
X001752Y007654D01*
X001676Y007838D01*
X001535Y007978D01*
X001351Y008054D01*
X001152Y008054D01*
X000969Y007978D01*
X000828Y007838D01*
X000752Y007654D01*
X000752Y007455D01*
X000828Y007271D01*
X000969Y007130D01*
X001152Y007054D01*
X001351Y007054D01*
X001152Y007055D02*
X000512Y007055D01*
X000512Y007213D02*
X000886Y007213D01*
X000786Y007372D02*
X000512Y007372D01*
X000512Y007530D02*
X000752Y007530D01*
X000766Y007689D02*
X000512Y007689D01*
X000512Y007847D02*
X000838Y007847D01*
X001036Y008006D02*
X000512Y008006D01*
X000512Y008164D02*
X000935Y008164D01*
X000969Y008130D02*
X001152Y008054D01*
X001351Y008054D01*
X001535Y008130D01*
X001676Y008271D01*
X001752Y008455D01*
X001752Y008654D01*
X001676Y008838D01*
X001535Y008978D01*
X001351Y009054D01*
X001152Y009054D01*
X000969Y008978D01*
X000828Y008838D01*
X000752Y008654D01*
X000752Y008455D01*
X000828Y008271D01*
X000969Y008130D01*
X000807Y008323D02*
X000512Y008323D01*
X000512Y008481D02*
X000752Y008481D01*
X000752Y008640D02*
X000512Y008640D01*
X000512Y008799D02*
X000812Y008799D01*
X000948Y008957D02*
X000512Y008957D01*
X000512Y009116D02*
X001004Y009116D01*
X000969Y009130D02*
X001152Y009054D01*
X001351Y009054D01*
X001535Y009130D01*
X001676Y009271D01*
X001752Y009455D01*
X001828Y009271D01*
X001969Y009130D01*
X002152Y009054D01*
X001969Y008978D01*
X001828Y008838D01*
X001752Y008654D01*
X001752Y008455D01*
X001828Y008271D01*
X001969Y008130D01*
X002152Y008054D01*
X002351Y008054D01*
X002535Y008130D01*
X002676Y008271D01*
X002752Y008455D01*
X002752Y008654D01*
X002676Y008838D01*
X002535Y008978D01*
X002351Y009054D01*
X002152Y009054D01*
X002351Y009054D01*
X002535Y009130D01*
X002676Y009271D01*
X002752Y009455D01*
X002828Y009271D01*
X002969Y009130D01*
X003152Y009054D01*
X002969Y008978D01*
X002828Y008838D01*
X002752Y008654D01*
X002752Y008455D01*
X002828Y008271D01*
X002969Y008130D01*
X003152Y008054D01*
X003351Y008054D01*
X003535Y008130D01*
X003676Y008271D01*
X003752Y008455D01*
X003752Y008654D01*
X003676Y008838D01*
X003535Y008978D01*
X003351Y009054D01*
X003152Y009054D01*
X003351Y009054D01*
X003535Y009130D01*
X003676Y009271D01*
X003752Y009455D01*
X003752Y009654D01*
X003676Y009838D01*
X003535Y009978D01*
X003351Y010054D01*
X003152Y010054D01*
X002969Y009978D01*
X002828Y009838D01*
X002752Y009654D01*
X002752Y009455D01*
X002752Y009654D01*
X002676Y009838D01*
X002535Y009978D01*
X002351Y010054D01*
X002152Y010054D01*
X001969Y009978D01*
X001828Y009838D01*
X001752Y009654D01*
X001752Y009455D01*
X001752Y009654D01*
X001676Y009838D01*
X001535Y009978D01*
X001351Y010054D01*
X001152Y010054D01*
X000969Y009978D01*
X000828Y009838D01*
X000752Y009654D01*
X000752Y009455D01*
X000828Y009271D01*
X000969Y009130D01*
X000827Y009274D02*
X000512Y009274D01*
X000512Y009433D02*
X000761Y009433D01*
X000752Y009591D02*
X000512Y009591D01*
X000512Y009750D02*
X000792Y009750D01*
X000899Y009908D02*
X000512Y009908D01*
X000512Y010067D02*
X001122Y010067D01*
X001152Y010054D02*
X001351Y010054D01*
X001535Y010130D01*
X001676Y010271D01*
X001752Y010455D01*
X001752Y010654D01*
X001676Y010838D01*
X001535Y010978D01*
X001351Y011054D01*
X001152Y011054D01*
X000969Y010978D01*
X000828Y010838D01*
X000752Y010654D01*
X000752Y010455D01*
X000828Y010271D01*
X000969Y010130D01*
X001152Y010054D01*
X001382Y010067D02*
X002122Y010067D01*
X002152Y010054D02*
X002351Y010054D01*
X002535Y010130D01*
X002676Y010271D01*
X002752Y010455D01*
X002752Y010654D01*
X002676Y010838D01*
X002535Y010978D01*
X002351Y011054D01*
X002152Y011054D01*
X001969Y010978D01*
X001828Y010838D01*
X001752Y010654D01*
X001752Y010455D01*
X001828Y010271D01*
X001969Y010130D01*
X002152Y010054D01*
X002382Y010067D02*
X003122Y010067D01*
X003152Y010054D02*
X003351Y010054D01*
X003535Y010130D01*
X003676Y010271D01*
X003752Y010455D01*
X003752Y010654D01*
X003676Y010838D01*
X003535Y010978D01*
X003351Y011054D01*
X003152Y011054D01*
X002969Y010978D01*
X002828Y010838D01*
X002752Y010654D01*
X002752Y010455D01*
X002828Y010271D01*
X002969Y010130D01*
X003152Y010054D01*
X003382Y010067D02*
X022613Y010067D01*
X022612Y009908D02*
X003605Y009908D01*
X003712Y009750D02*
X022626Y009750D01*
X022793Y009591D02*
X003752Y009591D01*
X003743Y009433D02*
X022792Y009433D01*
X022796Y009274D02*
X003677Y009274D01*
X003499Y009116D02*
X022813Y009116D01*
X022792Y008957D02*
X003556Y008957D01*
X003692Y008799D02*
X022792Y008799D01*
X022814Y008640D02*
X003752Y008640D01*
X003752Y008481D02*
X022834Y008481D01*
X022792Y008323D02*
X003697Y008323D01*
X003569Y008164D02*
X022792Y008164D01*
X022838Y008006D02*
X003468Y008006D01*
X003666Y007847D02*
X022723Y007847D01*
X022705Y007689D02*
X003737Y007689D01*
X003752Y007530D02*
X022627Y007530D01*
X022621Y007372D02*
X003717Y007372D01*
X003618Y007213D02*
X022765Y007213D01*
X023492Y005628D02*
X016322Y005628D01*
X016322Y005469D02*
X023492Y005469D01*
X023492Y005311D02*
X023424Y005311D01*
X023492Y002932D02*
X023264Y002932D01*
X022819Y002932D02*
X004569Y002932D01*
X004532Y003091D02*
X005360Y003091D01*
X005160Y003250D02*
X004541Y003250D01*
X004520Y003408D02*
X005087Y003408D01*
X005072Y003567D02*
X004532Y003567D01*
X004498Y003725D02*
X005106Y003725D01*
X005204Y003884D02*
X004400Y003884D01*
X004136Y004042D02*
X005468Y004042D01*
X005676Y004042D02*
X008028Y004042D01*
X007764Y003884D02*
X005940Y003884D01*
X005572Y003544D02*
X008132Y003544D01*
X007720Y003250D02*
X005984Y003250D01*
X005784Y003091D02*
X007920Y003091D01*
X007829Y002140D02*
X005875Y002140D01*
X005844Y002171D02*
X005979Y002036D01*
X006052Y001860D01*
X006052Y001784D01*
X005592Y001784D01*
X005592Y001744D01*
X005592Y001284D01*
X005667Y001284D01*
X005844Y001357D01*
X005979Y001492D01*
X006052Y001669D01*
X006052Y001744D01*
X005592Y001744D01*
X005552Y001744D01*
X005552Y001284D01*
X005476Y001284D01*
X005300Y001357D01*
X005165Y001492D01*
X005092Y001669D01*
X005092Y001744D01*
X005552Y001744D01*
X005552Y001784D01*
X005092Y001784D01*
X005092Y001860D01*
X005165Y002036D01*
X005300Y002171D01*
X005476Y002244D01*
X005552Y002244D01*
X005552Y001785D01*
X005592Y001785D01*
X005592Y002244D01*
X005667Y002244D01*
X005844Y002171D01*
X006002Y001981D02*
X007702Y001981D01*
X007652Y001823D02*
X006052Y001823D01*
X006050Y001664D02*
X007654Y001664D01*
X007652Y001669D02*
X007725Y001492D01*
X007860Y001357D01*
X008036Y001284D01*
X008112Y001284D01*
X008112Y001744D01*
X007652Y001744D01*
X007652Y001669D01*
X007720Y001506D02*
X005984Y001506D01*
X005819Y001347D02*
X007885Y001347D01*
X008112Y001347D02*
X008152Y001347D01*
X008152Y001506D02*
X008112Y001506D01*
X008112Y001664D02*
X008152Y001664D01*
X008152Y001823D02*
X008112Y001823D01*
X008112Y001981D02*
X008152Y001981D01*
X008152Y002140D02*
X008112Y002140D01*
X005592Y002140D02*
X005552Y002140D01*
X005552Y001981D02*
X005592Y001981D01*
X005592Y001823D02*
X005552Y001823D01*
X005552Y001664D02*
X005592Y001664D01*
X005592Y001506D02*
X005552Y001506D01*
X005552Y001347D02*
X005592Y001347D01*
X005325Y001347D02*
X004279Y001347D01*
X004304Y001357D02*
X004439Y001492D01*
X004512Y001669D01*
X004512Y001744D01*
X004052Y001744D01*
X004052Y001284D01*
X004127Y001284D01*
X004304Y001357D01*
X004444Y001506D02*
X005160Y001506D01*
X005094Y001664D02*
X004510Y001664D01*
X004512Y001784D02*
X004512Y001860D01*
X004439Y002036D01*
X004304Y002171D01*
X004127Y002244D01*
X004052Y002244D01*
X004052Y001785D01*
X004012Y001785D01*
X004012Y002244D01*
X003936Y002244D01*
X003760Y002171D01*
X003625Y002036D01*
X003552Y001860D01*
X003552Y001784D01*
X004012Y001784D01*
X004012Y001744D01*
X004052Y001744D01*
X004052Y001784D01*
X004512Y001784D01*
X004512Y001823D02*
X005092Y001823D01*
X005142Y001981D02*
X004462Y001981D01*
X004335Y002140D02*
X005269Y002140D01*
X004752Y002554D02*
X004708Y002556D01*
X004665Y002562D01*
X004623Y002571D01*
X004581Y002584D01*
X004541Y002601D01*
X004502Y002621D01*
X004465Y002644D01*
X004431Y002671D01*
X004398Y002700D01*
X004369Y002733D01*
X004342Y002767D01*
X004319Y002804D01*
X004299Y002843D01*
X004282Y002883D01*
X004269Y002925D01*
X004260Y002967D01*
X004254Y003010D01*
X004252Y003054D01*
X004252Y003224D01*
X004256Y003254D01*
X004257Y003285D01*
X004254Y003316D01*
X004247Y003346D01*
X004238Y003375D01*
X004225Y003403D01*
X004209Y003430D01*
X004190Y003454D01*
X004168Y003476D01*
X004144Y003496D01*
X004119Y003513D01*
X004091Y003526D01*
X004062Y003537D01*
X004032Y003544D01*
X001472Y003544D01*
X001840Y003884D02*
X003664Y003884D01*
X003928Y004042D02*
X001576Y004042D01*
X001606Y004201D02*
X001898Y004201D01*
X001791Y004359D02*
X001712Y004359D01*
X001752Y004518D02*
X001752Y004518D01*
X001743Y004676D02*
X001761Y004676D01*
X001827Y004835D02*
X001677Y004835D01*
X001498Y004994D02*
X002006Y004994D01*
X001947Y005152D02*
X001557Y005152D01*
X001692Y005311D02*
X001812Y005311D01*
X001752Y005469D02*
X001752Y005469D01*
X001752Y005628D02*
X001752Y005628D01*
X001697Y005786D02*
X001807Y005786D01*
X001935Y005945D02*
X001569Y005945D01*
X001470Y006103D02*
X002034Y006103D01*
X001837Y006262D02*
X001667Y006262D01*
X001738Y006420D02*
X001766Y006420D01*
X001752Y006579D02*
X001752Y006579D01*
X001717Y006738D02*
X001787Y006738D01*
X001887Y006896D02*
X001617Y006896D01*
X001618Y007213D02*
X001886Y007213D01*
X001786Y007372D02*
X001717Y007372D01*
X001752Y007530D02*
X001752Y007530D01*
X001737Y007689D02*
X001766Y007689D01*
X001838Y007847D02*
X001666Y007847D01*
X001468Y008006D02*
X002036Y008006D01*
X001935Y008164D02*
X001569Y008164D01*
X001697Y008323D02*
X001807Y008323D01*
X001752Y008481D02*
X001752Y008481D01*
X001752Y008640D02*
X001752Y008640D01*
X001692Y008799D02*
X001812Y008799D01*
X001948Y008957D02*
X001556Y008957D01*
X001499Y009116D02*
X002004Y009116D01*
X001827Y009274D02*
X001677Y009274D01*
X001743Y009433D02*
X001761Y009433D01*
X001752Y009591D02*
X001752Y009591D01*
X001712Y009750D02*
X001792Y009750D01*
X001899Y009908D02*
X001605Y009908D01*
X001630Y010225D02*
X001874Y010225D01*
X001781Y010384D02*
X001723Y010384D01*
X001752Y010543D02*
X001752Y010543D01*
X001732Y010701D02*
X001772Y010701D01*
X001850Y010860D02*
X001654Y010860D01*
X001439Y011018D02*
X002065Y011018D01*
X002152Y011054D02*
X002351Y011054D01*
X002535Y011130D01*
X002676Y011271D01*
X002752Y011455D01*
X002752Y011654D01*
X002676Y011838D01*
X002535Y011978D01*
X002351Y012054D01*
X002152Y012054D01*
X001969Y011978D01*
X001828Y011838D01*
X001752Y011654D01*
X001676Y011838D01*
X001535Y011978D01*
X001351Y012054D01*
X001152Y012054D01*
X000969Y011978D01*
X000828Y011838D01*
X000752Y011654D01*
X000752Y011455D01*
X000828Y011271D01*
X000969Y011130D01*
X001152Y011054D01*
X001351Y011054D01*
X001535Y011130D01*
X001676Y011271D01*
X001752Y011455D01*
X001752Y011654D01*
X001752Y011455D01*
X001828Y011271D01*
X001969Y011130D01*
X002152Y011054D01*
X001922Y011177D02*
X001581Y011177D01*
X001702Y011335D02*
X001801Y011335D01*
X001752Y011494D02*
X001752Y011494D01*
X001752Y011652D02*
X001752Y011652D01*
X001687Y011811D02*
X001817Y011811D01*
X001960Y011969D02*
X001544Y011969D01*
X001529Y012128D02*
X001975Y012128D01*
X001969Y012130D02*
X002152Y012054D01*
X002351Y012054D01*
X002535Y012130D01*
X002676Y012271D01*
X002752Y012455D01*
X002828Y012271D01*
X002969Y012130D01*
X003152Y012054D01*
X002969Y011978D01*
X002828Y011838D01*
X002752Y011654D01*
X002752Y011455D01*
X002828Y011271D01*
X002969Y011130D01*
X003152Y011054D01*
X003351Y011054D01*
X003535Y011130D01*
X003676Y011271D01*
X003752Y011455D01*
X003752Y011654D01*
X003676Y011838D01*
X003535Y011978D01*
X003351Y012054D01*
X003152Y012054D01*
X003351Y012054D01*
X003535Y012130D01*
X003676Y012271D01*
X003752Y012455D01*
X003752Y012654D01*
X003676Y012838D01*
X003535Y012978D01*
X003351Y013054D01*
X003152Y013054D01*
X002969Y012978D01*
X002828Y012838D01*
X002752Y012654D01*
X002752Y012455D01*
X002752Y012654D01*
X002676Y012838D01*
X002535Y012978D01*
X002351Y013054D01*
X002152Y013054D01*
X001969Y012978D01*
X001828Y012838D01*
X001752Y012654D01*
X001752Y012455D01*
X001828Y012271D01*
X001969Y012130D01*
X001822Y012287D02*
X001682Y012287D01*
X001676Y012271D02*
X001752Y012455D01*
X001752Y012654D01*
X001676Y012838D01*
X001535Y012978D01*
X001351Y013054D01*
X001152Y013054D01*
X000969Y012978D01*
X000828Y012838D01*
X000752Y012654D01*
X000752Y012455D01*
X000828Y012271D01*
X000969Y012130D01*
X001152Y012054D01*
X001351Y012054D01*
X001535Y012130D01*
X001676Y012271D01*
X001748Y012445D02*
X001756Y012445D01*
X001752Y012604D02*
X001752Y012604D01*
X001707Y012762D02*
X001797Y012762D01*
X001911Y012921D02*
X001593Y012921D01*
X001535Y013130D02*
X001351Y013054D01*
X001152Y013054D01*
X000969Y013130D01*
X000828Y013271D01*
X000752Y013455D01*
X000752Y013654D01*
X000828Y013838D01*
X000969Y013978D01*
X001152Y014054D01*
X001351Y014054D01*
X001535Y013978D01*
X001676Y013838D01*
X001752Y013654D01*
X001752Y013455D01*
X001828Y013271D01*
X001969Y013130D01*
X002152Y013054D01*
X002351Y013054D01*
X002535Y013130D01*
X002676Y013271D01*
X002752Y013455D01*
X002828Y013271D01*
X002969Y013130D01*
X003152Y013054D01*
X003351Y013054D01*
X003535Y013130D01*
X003676Y013271D01*
X003752Y013455D01*
X003828Y013271D01*
X003969Y013130D01*
X004152Y013054D01*
X004351Y013054D01*
X004535Y013130D01*
X004676Y013271D01*
X004752Y013455D01*
X004828Y013271D01*
X004969Y013130D01*
X005152Y013054D01*
X005351Y013054D01*
X005535Y013130D01*
X005676Y013271D01*
X005752Y013455D01*
X005828Y013271D01*
X005969Y013130D01*
X006152Y013054D01*
X006351Y013054D01*
X006535Y013130D01*
X006676Y013271D01*
X006752Y013455D01*
X006828Y013271D01*
X006969Y013130D01*
X007152Y013054D01*
X007351Y013054D01*
X007535Y013130D01*
X007676Y013271D01*
X007752Y013455D01*
X007828Y013271D01*
X007969Y013130D01*
X008152Y013054D01*
X008351Y013054D01*
X008535Y013130D01*
X008676Y013271D01*
X008752Y013455D01*
X008752Y013654D01*
X008676Y013838D01*
X008535Y013978D01*
X008351Y014054D01*
X008535Y014130D01*
X008676Y014271D01*
X008752Y014455D01*
X008752Y014654D01*
X008676Y014838D01*
X008535Y014978D01*
X008351Y015054D01*
X008535Y015130D01*
X008676Y015271D01*
X008752Y015455D01*
X008752Y015654D01*
X008676Y015838D01*
X008535Y015978D01*
X008351Y016054D01*
X008535Y016130D01*
X008676Y016271D01*
X008752Y016455D01*
X008752Y016654D01*
X008676Y016838D01*
X008535Y016978D01*
X008351Y017054D01*
X008152Y017054D01*
X007969Y016978D01*
X007828Y016838D01*
X007752Y016654D01*
X007676Y016838D01*
X007535Y016978D01*
X007351Y017054D01*
X007152Y017054D01*
X006969Y016978D01*
X006828Y016838D01*
X006752Y016654D01*
X006676Y016838D01*
X006535Y016978D01*
X006351Y017054D01*
X006152Y017054D01*
X005969Y016978D01*
X005828Y016838D01*
X005752Y016654D01*
X005676Y016838D01*
X005535Y016978D01*
X005351Y017054D01*
X005152Y017054D01*
X004969Y016978D01*
X004828Y016838D01*
X004752Y016654D01*
X004676Y016838D01*
X004535Y016978D01*
X004351Y017054D01*
X004152Y017054D01*
X003969Y016978D01*
X003828Y016838D01*
X003752Y016654D01*
X003752Y016455D01*
X003828Y016271D01*
X003969Y016130D01*
X004152Y016054D01*
X003969Y015978D01*
X003828Y015838D01*
X003752Y015654D01*
X003676Y015838D01*
X003535Y015978D01*
X003351Y016054D01*
X003152Y016054D01*
X002969Y015978D01*
X002828Y015838D01*
X002752Y015654D01*
X002752Y015455D01*
X002828Y015271D01*
X002969Y015130D01*
X003152Y015054D01*
X002969Y014978D01*
X002828Y014838D01*
X002752Y014654D01*
X002676Y014838D01*
X002535Y014978D01*
X002351Y015054D01*
X002535Y015130D01*
X002676Y015271D01*
X002752Y015455D01*
X002752Y015654D01*
X002676Y015838D01*
X002535Y015978D01*
X002351Y016054D01*
X002535Y016130D01*
X002676Y016271D01*
X002752Y016455D01*
X002828Y016271D01*
X002969Y016130D01*
X003152Y016054D01*
X003351Y016054D01*
X003535Y016130D01*
X003676Y016271D01*
X003752Y016455D01*
X003752Y016654D01*
X003676Y016838D01*
X003535Y016978D01*
X003351Y017054D01*
X003152Y017054D01*
X002969Y016978D01*
X002828Y016838D01*
X002752Y016654D01*
X002752Y016455D01*
X002752Y016654D01*
X002676Y016838D01*
X002535Y016978D01*
X002351Y017054D01*
X002152Y017054D01*
X001969Y016978D01*
X001828Y016838D01*
X001752Y016654D01*
X001676Y016838D01*
X001535Y016978D01*
X001351Y017054D01*
X001152Y017054D01*
X000969Y016978D01*
X000828Y016838D01*
X000752Y016654D01*
X000752Y016455D01*
X000828Y016271D01*
X000969Y016130D01*
X001152Y016054D01*
X000969Y015978D01*
X000828Y015838D01*
X000752Y015654D01*
X000752Y015455D01*
X000828Y015271D01*
X000969Y015130D01*
X001152Y015054D01*
X000969Y014978D01*
X000828Y014838D01*
X000752Y014654D01*
X000752Y014455D01*
X000828Y014271D01*
X000969Y014130D01*
X001152Y014054D01*
X001351Y014054D01*
X001535Y014130D01*
X001676Y014271D01*
X001752Y014455D01*
X001752Y014654D01*
X001676Y014838D01*
X001535Y014978D01*
X001351Y015054D01*
X001535Y015130D01*
X001676Y015271D01*
X001752Y015455D01*
X001828Y015271D01*
X001969Y015130D01*
X002152Y015054D01*
X001969Y014978D01*
X001828Y014838D01*
X001752Y014654D01*
X001752Y014455D01*
X001828Y014271D01*
X001969Y014130D01*
X002152Y014054D01*
X001969Y013978D01*
X001828Y013838D01*
X001752Y013654D01*
X001752Y013455D01*
X001676Y013271D01*
X001535Y013130D01*
X001412Y013079D02*
X002092Y013079D01*
X001861Y013238D02*
X001643Y013238D01*
X001728Y013396D02*
X001776Y013396D01*
X001752Y013555D02*
X001752Y013555D01*
X001727Y013713D02*
X001777Y013713D01*
X001863Y013872D02*
X001641Y013872D01*
X001409Y014031D02*
X002095Y014031D01*
X002152Y014054D02*
X002351Y014054D01*
X002535Y013978D01*
X002676Y013838D01*
X002752Y013654D01*
X002752Y013455D01*
X002752Y013654D01*
X002828Y013838D01*
X002969Y013978D01*
X003152Y014054D01*
X003351Y014054D01*
X003535Y013978D01*
X003676Y013838D01*
X003752Y013654D01*
X003752Y013455D01*
X003752Y013654D01*
X003828Y013838D01*
X003969Y013978D01*
X004152Y014054D01*
X004351Y014054D01*
X004535Y013978D01*
X004676Y013838D01*
X004752Y013654D01*
X004752Y013455D01*
X004752Y013654D01*
X004828Y013838D01*
X004969Y013978D01*
X005152Y014054D01*
X005351Y014054D01*
X005535Y013978D01*
X005676Y013838D01*
X005752Y013654D01*
X005752Y013455D01*
X005752Y013654D01*
X005828Y013838D01*
X005969Y013978D01*
X006152Y014054D01*
X006351Y014054D01*
X006535Y013978D01*
X006676Y013838D01*
X006752Y013654D01*
X006752Y013455D01*
X006752Y013654D01*
X006828Y013838D01*
X006969Y013978D01*
X007152Y014054D01*
X007351Y014054D01*
X007535Y014130D01*
X007676Y014271D01*
X007752Y014455D01*
X007828Y014271D01*
X007969Y014130D01*
X008152Y014054D01*
X007969Y013978D01*
X007828Y013838D01*
X007752Y013654D01*
X007752Y013455D01*
X007752Y013654D01*
X007676Y013838D01*
X007535Y013978D01*
X007351Y014054D01*
X007152Y014054D01*
X006969Y014130D01*
X006828Y014271D01*
X006752Y014455D01*
X006752Y014654D01*
X006828Y014838D01*
X006969Y014978D01*
X007152Y015054D01*
X007351Y015054D01*
X007535Y015130D01*
X007676Y015271D01*
X007752Y015455D01*
X007828Y015271D01*
X007969Y015130D01*
X008152Y015054D01*
X007969Y014978D01*
X007828Y014838D01*
X007752Y014654D01*
X007752Y014455D01*
X007752Y014654D01*
X007676Y014838D01*
X007535Y014978D01*
X007351Y015054D01*
X007152Y015054D01*
X006969Y015130D01*
X006828Y015271D01*
X006752Y015455D01*
X006752Y015654D01*
X006828Y015838D01*
X006969Y015978D01*
X007152Y016054D01*
X007351Y016054D01*
X007535Y016130D01*
X007676Y016271D01*
X007752Y016455D01*
X007752Y016654D01*
X007752Y016455D01*
X007828Y016271D01*
X007969Y016130D01*
X008152Y016054D01*
X007969Y015978D01*
X007828Y015838D01*
X007752Y015654D01*
X007752Y015455D01*
X007752Y015654D01*
X007676Y015838D01*
X007535Y015978D01*
X007351Y016054D01*
X007152Y016054D01*
X006969Y016130D01*
X006828Y016271D01*
X006752Y016455D01*
X006676Y016271D01*
X006535Y016130D01*
X006351Y016054D01*
X006152Y016054D01*
X005969Y015978D01*
X005828Y015838D01*
X005752Y015654D01*
X005676Y015838D01*
X005535Y015978D01*
X005351Y016054D01*
X005152Y016054D01*
X004969Y015978D01*
X004828Y015838D01*
X004752Y015654D01*
X004676Y015838D01*
X004535Y015978D01*
X004351Y016054D01*
X004152Y016054D01*
X004351Y016054D01*
X004535Y016130D01*
X004676Y016271D01*
X004752Y016455D01*
X004752Y016654D01*
X004752Y016455D01*
X004828Y016271D01*
X004969Y016130D01*
X005152Y016054D01*
X005351Y016054D01*
X005535Y016130D01*
X005676Y016271D01*
X005752Y016455D01*
X005752Y016654D01*
X005752Y016455D01*
X005828Y016271D01*
X005969Y016130D01*
X006152Y016054D01*
X006351Y016054D01*
X006535Y015978D01*
X006676Y015838D01*
X006752Y015654D01*
X006752Y015455D01*
X006676Y015271D01*
X006535Y015130D01*
X006351Y015054D01*
X006152Y015054D01*
X005969Y014978D01*
X005828Y014838D01*
X005752Y014654D01*
X005752Y014455D01*
X005828Y014271D01*
X005969Y014130D01*
X006152Y014054D01*
X006351Y014054D01*
X006535Y014130D01*
X006676Y014271D01*
X006752Y014455D01*
X006752Y014654D01*
X006676Y014838D01*
X006535Y014978D01*
X006351Y015054D01*
X006152Y015054D01*
X005969Y015130D01*
X005828Y015271D01*
X005752Y015455D01*
X005676Y015271D01*
X005535Y015130D01*
X005351Y015054D01*
X005152Y015054D01*
X004969Y014978D01*
X004828Y014838D01*
X004752Y014654D01*
X004752Y014455D01*
X004828Y014271D01*
X004969Y014130D01*
X005152Y014054D01*
X005351Y014054D01*
X005535Y014130D01*
X005676Y014271D01*
X005752Y014455D01*
X005752Y014654D01*
X005676Y014838D01*
X005535Y014978D01*
X005351Y015054D01*
X005152Y015054D01*
X004969Y015130D01*
X004828Y015271D01*
X004752Y015455D01*
X004676Y015271D01*
X004535Y015130D01*
X004351Y015054D01*
X004152Y015054D01*
X003969Y014978D01*
X003828Y014838D01*
X003752Y014654D01*
X003752Y014455D01*
X003828Y014271D01*
X003969Y014130D01*
X004152Y014054D01*
X004351Y014054D01*
X004535Y014130D01*
X004676Y014271D01*
X004752Y014455D01*
X004752Y014654D01*
X004676Y014838D01*
X004535Y014978D01*
X004351Y015054D01*
X004152Y015054D01*
X003969Y015130D01*
X003828Y015271D01*
X003752Y015455D01*
X003676Y015271D01*
X003535Y015130D01*
X003351Y015054D01*
X003152Y015054D01*
X003351Y015054D01*
X003535Y014978D01*
X003676Y014838D01*
X003752Y014654D01*
X003752Y014455D01*
X003676Y014271D01*
X003535Y014130D01*
X003351Y014054D01*
X003152Y014054D01*
X002969Y014130D01*
X002828Y014271D01*
X002752Y014455D01*
X002676Y014271D01*
X002535Y014130D01*
X002351Y014054D01*
X002152Y014054D01*
X002409Y014031D02*
X003095Y014031D01*
X002910Y014189D02*
X002594Y014189D01*
X002707Y014348D02*
X002796Y014348D01*
X002752Y014455D02*
X002752Y014654D01*
X002752Y014455D01*
X002752Y014506D02*
X002752Y014506D01*
X002747Y014665D02*
X002756Y014665D01*
X002822Y014823D02*
X002682Y014823D01*
X002527Y014982D02*
X002977Y014982D01*
X002959Y015140D02*
X002545Y015140D01*
X002351Y015054D02*
X002152Y015054D01*
X002351Y015054D01*
X001977Y014982D02*
X001527Y014982D01*
X001545Y015140D02*
X001959Y015140D01*
X001817Y015299D02*
X001687Y015299D01*
X001752Y015455D02*
X001752Y015654D01*
X001752Y015455D01*
X001752Y015457D02*
X001752Y015457D01*
X001752Y015616D02*
X001752Y015616D01*
X001752Y015654D02*
X001828Y015838D01*
X001969Y015978D01*
X002152Y016054D01*
X002351Y016054D01*
X002152Y016054D01*
X001969Y016130D01*
X001828Y016271D01*
X001752Y016455D01*
X001676Y016271D01*
X001535Y016130D01*
X001351Y016054D01*
X001152Y016054D01*
X001351Y016054D01*
X001535Y015978D01*
X001676Y015838D01*
X001752Y015654D01*
X001702Y015774D02*
X001802Y015774D01*
X001924Y015933D02*
X001580Y015933D01*
X001441Y016092D02*
X002063Y016092D01*
X001849Y016250D02*
X001655Y016250D01*
X001733Y016409D02*
X001771Y016409D01*
X001752Y016455D02*
X001752Y016654D01*
X001752Y016455D01*
X001752Y016567D02*
X001752Y016567D01*
X001722Y016726D02*
X001782Y016726D01*
X001875Y016884D02*
X001629Y016884D01*
X001535Y017130D02*
X001351Y017054D01*
X001152Y017054D01*
X000969Y017130D01*
X000828Y017271D01*
X000752Y017455D01*
X000752Y017654D01*
X000828Y017838D01*
X000969Y017978D01*
X001152Y018054D01*
X001351Y018054D01*
X001535Y018130D01*
X001676Y018271D01*
X001752Y018455D01*
X001828Y018271D01*
X001969Y018130D01*
X002152Y018054D01*
X001969Y017978D01*
X001828Y017838D01*
X001752Y017654D01*
X001752Y017455D01*
X001828Y017271D01*
X001969Y017130D01*
X002152Y017054D01*
X002351Y017054D01*
X002535Y017130D01*
X002676Y017271D01*
X002752Y017455D01*
X002828Y017271D01*
X002969Y017130D01*
X003152Y017054D01*
X003351Y017054D01*
X003535Y017130D01*
X003676Y017271D01*
X003752Y017455D01*
X003828Y017271D01*
X003969Y017130D01*
X004152Y017054D01*
X004351Y017054D01*
X004535Y017130D01*
X004676Y017271D01*
X004752Y017455D01*
X004828Y017271D01*
X004969Y017130D01*
X005152Y017054D01*
X005351Y017054D01*
X005535Y017130D01*
X005676Y017271D01*
X005752Y017455D01*
X005828Y017271D01*
X005969Y017130D01*
X006152Y017054D01*
X006351Y017054D01*
X006535Y017130D01*
X006676Y017271D01*
X006752Y017455D01*
X006828Y017271D01*
X006969Y017130D01*
X007152Y017054D01*
X007351Y017054D01*
X007535Y017130D01*
X007676Y017271D01*
X007752Y017455D01*
X007828Y017271D01*
X007969Y017130D01*
X008152Y017054D01*
X008351Y017054D01*
X008535Y017130D01*
X008676Y017271D01*
X008752Y017455D01*
X008752Y017654D01*
X008676Y017838D01*
X008535Y017978D01*
X008351Y018054D01*
X008152Y018054D01*
X007969Y017978D01*
X007828Y017838D01*
X007752Y017654D01*
X007752Y017455D01*
X007752Y017654D01*
X007676Y017838D01*
X007535Y017978D01*
X007351Y018054D01*
X007152Y018054D01*
X006969Y017978D01*
X006828Y017838D01*
X006752Y017654D01*
X006752Y017455D01*
X006752Y017654D01*
X006676Y017838D01*
X006535Y017978D01*
X006351Y018054D01*
X006152Y018054D01*
X005969Y017978D01*
X005828Y017838D01*
X005752Y017654D01*
X005752Y017455D01*
X005752Y017654D01*
X005676Y017838D01*
X005535Y017978D01*
X005351Y018054D01*
X005152Y018054D01*
X004969Y017978D01*
X004828Y017838D01*
X004752Y017654D01*
X004752Y017455D01*
X004752Y017654D01*
X004676Y017838D01*
X004535Y017978D01*
X004351Y018054D01*
X004152Y018054D01*
X003969Y017978D01*
X003828Y017838D01*
X003752Y017654D01*
X003752Y017455D01*
X003752Y017654D01*
X003676Y017838D01*
X003535Y017978D01*
X003351Y018054D01*
X003152Y018054D01*
X002969Y017978D01*
X002828Y017838D01*
X002752Y017654D01*
X002752Y017455D01*
X002752Y017654D01*
X002676Y017838D01*
X002535Y017978D01*
X002351Y018054D01*
X002535Y018130D01*
X002676Y018271D01*
X002752Y018455D01*
X002828Y018271D01*
X002969Y018130D01*
X003152Y018054D01*
X003351Y018054D01*
X003535Y018130D01*
X003676Y018271D01*
X003752Y018455D01*
X003828Y018271D01*
X003969Y018130D01*
X004152Y018054D01*
X004351Y018054D01*
X004535Y018130D01*
X004676Y018271D01*
X004752Y018455D01*
X004828Y018271D01*
X004969Y018130D01*
X005152Y018054D01*
X005351Y018054D01*
X005535Y018130D01*
X005676Y018271D01*
X005752Y018455D01*
X005828Y018271D01*
X005969Y018130D01*
X006152Y018054D01*
X006351Y018054D01*
X006535Y018130D01*
X006676Y018271D01*
X006752Y018455D01*
X006828Y018271D01*
X006969Y018130D01*
X007152Y018054D01*
X007351Y018054D01*
X007535Y018130D01*
X007676Y018271D01*
X007752Y018455D01*
X007828Y018271D01*
X007969Y018130D01*
X008152Y018054D01*
X008351Y018054D01*
X008535Y018130D01*
X008676Y018271D01*
X008752Y018455D01*
X008752Y018654D01*
X008676Y018838D01*
X008535Y018978D01*
X008351Y019054D01*
X008152Y019054D01*
X007969Y018978D01*
X007828Y018838D01*
X007752Y018654D01*
X007752Y018455D01*
X007752Y018654D01*
X007676Y018838D01*
X007535Y018978D01*
X007351Y019054D01*
X007152Y019054D01*
X006969Y018978D01*
X006828Y018838D01*
X006752Y018654D01*
X006752Y018455D01*
X006752Y018654D01*
X006676Y018838D01*
X006535Y018978D01*
X006351Y019054D01*
X006152Y019054D01*
X005969Y018978D01*
X005828Y018838D01*
X005752Y018654D01*
X005752Y018455D01*
X005752Y018654D01*
X005676Y018838D01*
X005535Y018978D01*
X005351Y019054D01*
X005152Y019054D01*
X004969Y018978D01*
X004828Y018838D01*
X004752Y018654D01*
X004752Y018455D01*
X004752Y018654D01*
X004676Y018838D01*
X004535Y018978D01*
X004351Y019054D01*
X004535Y019130D01*
X004676Y019271D01*
X004752Y019455D01*
X004752Y019654D01*
X004676Y019838D01*
X004535Y019978D01*
X004351Y020054D01*
X004535Y020130D01*
X004676Y020271D01*
X004752Y020455D01*
X004752Y020654D01*
X004676Y020838D01*
X004535Y020978D01*
X004351Y021054D01*
X004152Y021054D01*
X003969Y020978D01*
X003828Y020838D01*
X003752Y020654D01*
X003676Y020838D01*
X003535Y020978D01*
X003351Y021054D01*
X003152Y021054D01*
X002969Y020978D01*
X002828Y020838D01*
X002752Y020654D01*
X002676Y020838D01*
X002535Y020978D01*
X002351Y021054D01*
X002152Y021054D01*
X001969Y020978D01*
X001828Y020838D01*
X001752Y020654D01*
X001752Y020455D01*
X001828Y020271D01*
X001969Y020130D01*
X002152Y020054D01*
X001969Y019978D01*
X001828Y019838D01*
X001752Y019654D01*
X001752Y019455D01*
X001828Y019271D01*
X001969Y019130D01*
X002152Y019054D01*
X001969Y018978D01*
X001828Y018838D01*
X001752Y018654D01*
X001752Y018455D01*
X001752Y018654D01*
X001676Y018838D01*
X001535Y018978D01*
X001351Y019054D01*
X001152Y019054D01*
X000969Y018978D01*
X000828Y018838D01*
X000752Y018654D01*
X000752Y018455D01*
X000828Y018271D01*
X000969Y018130D01*
X001152Y018054D01*
X001351Y018054D01*
X001535Y017978D01*
X001676Y017838D01*
X001752Y017654D01*
X001752Y017455D01*
X001676Y017271D01*
X001535Y017130D01*
X001606Y017201D02*
X001898Y017201D01*
X001791Y017360D02*
X001713Y017360D01*
X001752Y017518D02*
X001752Y017518D01*
X001742Y017677D02*
X001762Y017677D01*
X001827Y017836D02*
X001677Y017836D01*
X001497Y017994D02*
X002007Y017994D01*
X002152Y018054D02*
X002351Y018054D01*
X002152Y018054D01*
X001947Y018153D02*
X001557Y018153D01*
X001692Y018311D02*
X001811Y018311D01*
X001752Y018470D02*
X001752Y018470D01*
X001752Y018628D02*
X001752Y018628D01*
X001697Y018787D02*
X001807Y018787D01*
X001936Y018945D02*
X001568Y018945D01*
X001471Y019104D02*
X002033Y019104D01*
X002152Y019054D02*
X002351Y019054D01*
X002535Y019130D01*
X002676Y019271D01*
X002752Y019455D01*
X002752Y019654D01*
X002676Y019838D01*
X002535Y019978D01*
X002351Y020054D01*
X002535Y020130D01*
X002676Y020271D01*
X002752Y020455D01*
X002752Y020654D01*
X002752Y020455D01*
X002828Y020271D01*
X002969Y020130D01*
X003152Y020054D01*
X002969Y019978D01*
X002828Y019838D01*
X002752Y019654D01*
X002752Y019455D01*
X002828Y019271D01*
X002969Y019130D01*
X003152Y019054D01*
X002969Y018978D01*
X002828Y018838D01*
X002752Y018654D01*
X002752Y018455D01*
X002752Y018654D01*
X002676Y018838D01*
X002535Y018978D01*
X002351Y019054D01*
X002152Y019054D01*
X001837Y019262D02*
X001667Y019262D01*
X001676Y019271D02*
X001752Y019455D01*
X001752Y019654D01*
X001676Y019838D01*
X001535Y019978D01*
X001351Y020054D01*
X001535Y020130D01*
X001676Y020271D01*
X001752Y020455D01*
X001752Y020654D01*
X001676Y020838D01*
X001535Y020978D01*
X001351Y021054D01*
X001152Y021054D01*
X000969Y020978D01*
X000828Y020838D01*
X000752Y020654D01*
X000752Y020455D01*
X000828Y020271D01*
X000969Y020130D01*
X001152Y020054D01*
X000969Y019978D01*
X000828Y019838D01*
X000752Y019654D01*
X000752Y019455D01*
X000828Y019271D01*
X000969Y019130D01*
X001152Y019054D01*
X001351Y019054D01*
X001535Y019130D01*
X001676Y019271D01*
X001738Y019421D02*
X001766Y019421D01*
X001752Y019580D02*
X001752Y019580D01*
X001717Y019738D02*
X001787Y019738D01*
X001887Y019897D02*
X001617Y019897D01*
X001353Y020055D02*
X002150Y020055D01*
X002152Y020054D02*
X002351Y020054D01*
X002152Y020054D01*
X002353Y020055D02*
X003150Y020055D01*
X003152Y020054D02*
X003351Y020054D01*
X003535Y020130D01*
X003676Y020271D01*
X003752Y020455D01*
X003752Y020654D01*
X003752Y020455D01*
X003828Y020271D01*
X003969Y020130D01*
X004152Y020054D01*
X003969Y019978D01*
X003828Y019838D01*
X003752Y019654D01*
X003752Y019455D01*
X003828Y019271D01*
X003969Y019130D01*
X004152Y019054D01*
X003969Y018978D01*
X003828Y018838D01*
X003752Y018654D01*
X003752Y018455D01*
X003752Y018654D01*
X003676Y018838D01*
X003535Y018978D01*
X003351Y019054D01*
X003535Y019130D01*
X003676Y019271D01*
X003752Y019455D01*
X003752Y019654D01*
X003676Y019838D01*
X003535Y019978D01*
X003351Y020054D01*
X003152Y020054D01*
X003353Y020055D02*
X004150Y020055D01*
X004152Y020054D02*
X004351Y020054D01*
X004152Y020054D01*
X004353Y020055D02*
X006050Y020055D01*
X006052Y020054D02*
X006251Y020054D01*
X006435Y020130D01*
X006576Y020271D01*
X006652Y020455D01*
X006652Y020654D01*
X006576Y020838D01*
X006435Y020978D01*
X006251Y021054D01*
X006052Y021054D01*
X005869Y020978D01*
X005728Y020838D01*
X005652Y020654D01*
X005652Y020455D01*
X005728Y020271D01*
X005869Y020130D01*
X006052Y020054D01*
X006253Y020055D02*
X007919Y020055D01*
X007898Y020118D02*
X007968Y019904D01*
X007968Y019904D01*
X008150Y019653D01*
X008150Y019653D01*
X008150Y019653D01*
X008401Y019470D01*
X008402Y019470D01*
X008697Y019374D01*
X008852Y019374D01*
X008908Y019374D01*
X009052Y019374D01*
X009114Y019368D01*
X009230Y019320D01*
X009318Y019232D01*
X009366Y019117D01*
X009372Y019054D01*
X009372Y019046D01*
X009372Y018999D01*
X009372Y016210D01*
X009372Y016154D01*
X009372Y016129D01*
X009372Y016099D01*
X009372Y016039D01*
X009372Y016039D01*
X009460Y015826D01*
X009623Y015663D01*
X009837Y015574D01*
X009896Y015574D01*
X010252Y015574D01*
X010295Y015570D01*
X010374Y015537D01*
X010435Y015477D01*
X010468Y015397D01*
X010472Y015354D01*
X010472Y015308D01*
X010472Y015299D01*
X008687Y015299D01*
X008752Y015457D02*
X010443Y015457D01*
X010472Y015299D02*
X010472Y012055D01*
X010429Y012038D01*
X010269Y011877D01*
X010241Y011810D01*
X010218Y011866D01*
X010064Y012021D01*
X009861Y012104D01*
X009772Y012104D01*
X009772Y011575D01*
X009732Y011575D01*
X009732Y012104D01*
X009643Y012104D01*
X009440Y012021D01*
X009286Y011866D01*
X009263Y011810D01*
X009235Y011877D01*
X009075Y012038D01*
X008865Y012124D01*
X008639Y012124D01*
X008429Y012038D01*
X008269Y011877D01*
X008252Y011837D01*
X008235Y011877D01*
X008075Y012038D01*
X007865Y012124D01*
X007639Y012124D01*
X007429Y012038D01*
X007269Y011877D01*
X007252Y011837D01*
X007235Y011877D01*
X007075Y012038D01*
X006865Y012124D01*
X006639Y012124D01*
X006429Y012038D01*
X006269Y011877D01*
X006252Y011837D01*
X006235Y011877D01*
X006075Y012038D01*
X005865Y012124D01*
X005639Y012124D01*
X005429Y012038D01*
X005269Y011877D01*
X005252Y011837D01*
X005235Y011877D01*
X005075Y012038D01*
X004865Y012124D01*
X004639Y012124D01*
X004429Y012038D01*
X004269Y011877D01*
X004182Y011668D01*
X004182Y011441D01*
X004269Y011231D01*
X004429Y011071D01*
X004639Y010984D01*
X004865Y010984D01*
X005075Y011071D01*
X005235Y011231D01*
X005252Y011272D01*
X005269Y011231D01*
X005429Y011071D01*
X005639Y010984D01*
X005865Y010984D01*
X006075Y011071D01*
X006235Y011231D01*
X006252Y011272D01*
X006269Y011231D01*
X006429Y011071D01*
X006639Y010984D01*
X006865Y010984D01*
X007075Y011071D01*
X007235Y011231D01*
X007252Y011272D01*
X007269Y011231D01*
X007429Y011071D01*
X007639Y010984D01*
X007865Y010984D01*
X008075Y011071D01*
X008235Y011231D01*
X008252Y011272D01*
X008269Y011231D01*
X008429Y011071D01*
X008639Y010984D01*
X008865Y010984D01*
X009075Y011071D01*
X009235Y011231D01*
X009263Y011298D01*
X009286Y011243D01*
X009440Y011088D01*
X009643Y011004D01*
X009732Y011004D01*
X009732Y011534D01*
X009772Y011534D01*
X009772Y011004D01*
X009861Y011004D01*
X010064Y011088D01*
X010218Y011243D01*
X010241Y011298D01*
X010269Y011231D01*
X010429Y011071D01*
X010639Y010984D01*
X010865Y010984D01*
X011075Y011071D01*
X011235Y011231D01*
X011252Y011272D01*
X011269Y011231D01*
X011429Y011071D01*
X011639Y010984D01*
X011865Y010984D01*
X012075Y011071D01*
X012235Y011231D01*
X012252Y011272D01*
X012269Y011231D01*
X012429Y011071D01*
X012639Y010984D01*
X012865Y010984D01*
X013075Y011071D01*
X013235Y011231D01*
X013252Y011272D01*
X013269Y011231D01*
X013429Y011071D01*
X013639Y010984D01*
X013865Y010984D01*
X014075Y011071D01*
X014235Y011231D01*
X014252Y011272D01*
X014269Y011231D01*
X014429Y011071D01*
X014639Y010984D01*
X014865Y010984D01*
X015075Y011071D01*
X015235Y011231D01*
X015252Y011272D01*
X015269Y011231D01*
X015429Y011071D01*
X015639Y010984D01*
X015865Y010984D01*
X016075Y011071D01*
X016235Y011231D01*
X016322Y011441D01*
X016322Y011668D01*
X016235Y011877D01*
X016075Y012038D01*
X015865Y012124D01*
X015639Y012124D01*
X015429Y012038D01*
X015269Y011877D01*
X015252Y011837D01*
X015235Y011877D01*
X015075Y012038D01*
X014865Y012124D01*
X014639Y012124D01*
X014429Y012038D01*
X014269Y011877D01*
X014252Y011837D01*
X014235Y011877D01*
X014075Y012038D01*
X013865Y012124D01*
X013639Y012124D01*
X013429Y012038D01*
X013269Y011877D01*
X013252Y011837D01*
X013235Y011877D01*
X013075Y012038D01*
X012865Y012124D01*
X012639Y012124D01*
X012429Y012038D01*
X012269Y011877D01*
X012252Y011837D01*
X012235Y011877D01*
X012075Y012038D01*
X011865Y012124D01*
X011639Y012124D01*
X011429Y012038D01*
X011269Y011877D01*
X011252Y011837D01*
X011235Y011877D01*
X011075Y012038D01*
X011032Y012055D01*
X011032Y015299D01*
X022883Y015299D01*
X022992Y015354D02*
X022992Y015354D01*
X022724Y015140D02*
X011032Y015140D01*
X011032Y014982D02*
X022615Y014982D01*
X022633Y014823D02*
X011032Y014823D01*
X011032Y014665D02*
X022792Y014665D01*
X022792Y014506D02*
X011032Y014506D01*
X011032Y014348D02*
X022752Y014348D01*
X022619Y014189D02*
X020241Y014189D01*
X020236Y014194D02*
X019922Y014324D01*
X019582Y014324D01*
X019268Y014194D01*
X019027Y013954D01*
X018897Y013639D01*
X018897Y013299D01*
X019027Y012985D01*
X019268Y012744D01*
X019582Y012614D01*
X019922Y012614D01*
X020236Y012744D01*
X020477Y012985D01*
X020607Y013299D01*
X020607Y013639D01*
X020477Y013954D01*
X020236Y014194D01*
X020400Y014031D02*
X022629Y014031D01*
X022758Y013872D02*
X020511Y013872D01*
X020576Y013713D02*
X022940Y013713D01*
X022992Y013692D02*
X022992Y013692D01*
X023323Y013713D02*
X023492Y013713D01*
X023492Y013555D02*
X020607Y013555D01*
X020607Y013396D02*
X023492Y013396D01*
X022696Y013238D02*
X020581Y013238D01*
X020516Y013079D02*
X022612Y013079D01*
X022612Y012921D02*
X020412Y012921D01*
X020254Y012762D02*
X022636Y012762D01*
X022651Y012604D02*
X011032Y012604D01*
X011032Y012762D02*
X019250Y012762D01*
X019091Y012921D02*
X011032Y012921D01*
X011032Y013079D02*
X018988Y013079D01*
X018922Y013238D02*
X011032Y013238D01*
X011032Y013396D02*
X018897Y013396D01*
X018897Y013555D02*
X011032Y013555D01*
X011032Y013713D02*
X018928Y013713D01*
X018993Y013872D02*
X011032Y013872D01*
X011032Y014031D02*
X019104Y014031D01*
X019263Y014189D02*
X011032Y014189D01*
X010472Y014189D02*
X008594Y014189D01*
X008707Y014348D02*
X010472Y014348D01*
X010472Y014506D02*
X008752Y014506D01*
X008747Y014665D02*
X010472Y014665D01*
X010472Y014823D02*
X008682Y014823D01*
X008527Y014982D02*
X010472Y014982D01*
X010472Y015140D02*
X008545Y015140D01*
X008351Y015054D02*
X008152Y015054D01*
X008351Y015054D01*
X007977Y014982D02*
X007527Y014982D01*
X007545Y015140D02*
X007959Y015140D01*
X007817Y015299D02*
X007687Y015299D01*
X007752Y015457D02*
X007752Y015457D01*
X007752Y015616D02*
X007752Y015616D01*
X007702Y015774D02*
X007802Y015774D01*
X007924Y015933D02*
X007580Y015933D01*
X007441Y016092D02*
X008063Y016092D01*
X008152Y016054D02*
X008351Y016054D01*
X008152Y016054D01*
X008441Y016092D02*
X009372Y016092D01*
X009372Y016099D02*
X009372Y016099D01*
X009372Y016250D02*
X008655Y016250D01*
X008733Y016409D02*
X009372Y016409D01*
X009372Y016567D02*
X008752Y016567D01*
X008722Y016726D02*
X009372Y016726D01*
X009372Y016884D02*
X008629Y016884D01*
X008379Y017043D02*
X009372Y017043D01*
X009372Y017201D02*
X008606Y017201D01*
X008713Y017360D02*
X009372Y017360D01*
X009372Y017518D02*
X008752Y017518D01*
X008742Y017677D02*
X009372Y017677D01*
X009372Y017836D02*
X008677Y017836D01*
X008497Y017994D02*
X009372Y017994D01*
X009372Y018153D02*
X008557Y018153D01*
X008692Y018311D02*
X009372Y018311D01*
X009372Y018470D02*
X008752Y018470D01*
X008752Y018628D02*
X009372Y018628D01*
X009372Y018787D02*
X008697Y018787D01*
X008568Y018945D02*
X009372Y018945D01*
X009367Y019104D02*
X004471Y019104D01*
X004351Y019054D02*
X004152Y019054D01*
X004351Y019054D01*
X004568Y018945D02*
X004936Y018945D01*
X004807Y018787D02*
X004697Y018787D01*
X004752Y018628D02*
X004752Y018628D01*
X004752Y018470D02*
X004752Y018470D01*
X004692Y018311D02*
X004811Y018311D01*
X004947Y018153D02*
X004557Y018153D01*
X004497Y017994D02*
X005007Y017994D01*
X004827Y017836D02*
X004677Y017836D01*
X004742Y017677D02*
X004762Y017677D01*
X004752Y017518D02*
X004752Y017518D01*
X004713Y017360D02*
X004791Y017360D01*
X004898Y017201D02*
X004606Y017201D01*
X004379Y017043D02*
X005125Y017043D01*
X005379Y017043D02*
X006125Y017043D01*
X006379Y017043D02*
X007125Y017043D01*
X007379Y017043D02*
X008125Y017043D01*
X007898Y017201D02*
X007606Y017201D01*
X007713Y017360D02*
X007791Y017360D01*
X007752Y017518D02*
X007752Y017518D01*
X007742Y017677D02*
X007762Y017677D01*
X007827Y017836D02*
X007677Y017836D01*
X007497Y017994D02*
X008007Y017994D01*
X007947Y018153D02*
X007557Y018153D01*
X007692Y018311D02*
X007811Y018311D01*
X007752Y018470D02*
X007752Y018470D01*
X007752Y018628D02*
X007752Y018628D01*
X007697Y018787D02*
X007807Y018787D01*
X007936Y018945D02*
X007568Y018945D01*
X006936Y018945D02*
X006568Y018945D01*
X006697Y018787D02*
X006807Y018787D01*
X006752Y018628D02*
X006752Y018628D01*
X006752Y018470D02*
X006752Y018470D01*
X006692Y018311D02*
X006811Y018311D01*
X006947Y018153D02*
X006557Y018153D01*
X006497Y017994D02*
X007007Y017994D01*
X006827Y017836D02*
X006677Y017836D01*
X006742Y017677D02*
X006762Y017677D01*
X006752Y017518D02*
X006752Y017518D01*
X006713Y017360D02*
X006791Y017360D01*
X006898Y017201D02*
X006606Y017201D01*
X006629Y016884D02*
X006875Y016884D01*
X006782Y016726D02*
X006722Y016726D01*
X006752Y016654D02*
X006752Y016455D01*
X006752Y016654D01*
X006752Y016567D02*
X006752Y016567D01*
X006733Y016409D02*
X006771Y016409D01*
X006849Y016250D02*
X006655Y016250D01*
X006441Y016092D02*
X007063Y016092D01*
X006924Y015933D02*
X006580Y015933D01*
X006702Y015774D02*
X006802Y015774D01*
X006752Y015616D02*
X006752Y015616D01*
X006752Y015457D02*
X006752Y015457D01*
X006687Y015299D02*
X006817Y015299D01*
X006959Y015140D02*
X006545Y015140D01*
X006527Y014982D02*
X006977Y014982D01*
X006822Y014823D02*
X006682Y014823D01*
X006747Y014665D02*
X006756Y014665D01*
X006752Y014506D02*
X006752Y014506D01*
X006707Y014348D02*
X006796Y014348D01*
X006910Y014189D02*
X006594Y014189D01*
X006409Y014031D02*
X007095Y014031D01*
X006863Y013872D02*
X006641Y013872D01*
X006727Y013713D02*
X006777Y013713D01*
X006752Y013555D02*
X006752Y013555D01*
X006728Y013396D02*
X006776Y013396D01*
X006861Y013238D02*
X006643Y013238D01*
X006412Y013079D02*
X007092Y013079D01*
X007412Y013079D02*
X008092Y013079D01*
X007861Y013238D02*
X007643Y013238D01*
X007728Y013396D02*
X007776Y013396D01*
X007752Y013555D02*
X007752Y013555D01*
X007727Y013713D02*
X007777Y013713D01*
X007863Y013872D02*
X007641Y013872D01*
X007409Y014031D02*
X008095Y014031D01*
X008152Y014054D02*
X008351Y014054D01*
X008152Y014054D01*
X008409Y014031D02*
X010472Y014031D01*
X010472Y013872D02*
X008641Y013872D01*
X008727Y013713D02*
X010472Y013713D01*
X010472Y013555D02*
X008752Y013555D01*
X008728Y013396D02*
X010472Y013396D01*
X010472Y013238D02*
X008643Y013238D01*
X008412Y013079D02*
X010472Y013079D01*
X010472Y012921D02*
X003593Y012921D01*
X003707Y012762D02*
X010472Y012762D01*
X010472Y012604D02*
X003752Y012604D01*
X003748Y012445D02*
X010472Y012445D01*
X010472Y012287D02*
X003682Y012287D01*
X003529Y012128D02*
X010472Y012128D01*
X010361Y011969D02*
X010115Y011969D01*
X010241Y011811D02*
X010241Y011811D01*
X009772Y011811D02*
X009732Y011811D01*
X009732Y011969D02*
X009772Y011969D01*
X009772Y011652D02*
X009732Y011652D01*
X009732Y011494D02*
X009772Y011494D01*
X009772Y011335D02*
X009732Y011335D01*
X009732Y011177D02*
X009772Y011177D01*
X009772Y011018D02*
X009732Y011018D01*
X009609Y011018D02*
X008947Y011018D01*
X009180Y011177D02*
X009352Y011177D01*
X009895Y011018D02*
X010557Y011018D01*
X010323Y011177D02*
X010152Y011177D01*
X010752Y011554D02*
X010752Y015354D01*
X011032Y015308D02*
X011032Y015410D01*
X011032Y015509D01*
X011032Y015509D01*
X010913Y015796D01*
X010913Y015796D01*
X010694Y016016D01*
X010694Y016016D01*
X010407Y016134D01*
X010308Y016134D01*
X009952Y016134D01*
X009948Y016135D01*
X009941Y016138D01*
X009935Y016143D01*
X009932Y016150D01*
X009932Y016154D01*
X009932Y016210D01*
X009932Y018999D01*
X009932Y019046D01*
X009932Y019054D01*
X009932Y019055D01*
X009932Y019110D01*
X009932Y019110D01*
X009932Y019229D01*
X009932Y019229D01*
X009798Y019553D01*
X009550Y019800D01*
X009227Y019934D01*
X009108Y019934D01*
X009108Y019934D01*
X008908Y019934D01*
X008852Y019934D01*
X008786Y019939D01*
X008661Y019980D01*
X008555Y020057D01*
X008478Y020164D01*
X008475Y020171D01*
X008576Y020271D01*
X008652Y020455D01*
X008652Y020654D01*
X008576Y020838D01*
X008435Y020978D01*
X008251Y021054D01*
X008052Y021054D01*
X007869Y020978D01*
X007728Y020838D01*
X007652Y020654D01*
X007652Y020455D01*
X007728Y020271D01*
X007869Y020130D01*
X007898Y020118D01*
X007785Y020214D02*
X007490Y020214D01*
X007424Y020147D02*
X007559Y020282D01*
X007632Y020459D01*
X007632Y020534D01*
X007172Y020534D01*
X007172Y020074D01*
X007247Y020074D01*
X007424Y020147D01*
X007172Y020214D02*
X007132Y020214D01*
X007132Y020074D02*
X007056Y020074D01*
X006880Y020147D01*
X006745Y020282D01*
X006672Y020459D01*
X006672Y020534D01*
X007132Y020534D01*
X007172Y020534D01*
X007172Y020574D01*
X007632Y020574D01*
X007632Y020650D01*
X007559Y020826D01*
X007424Y020961D01*
X007247Y021034D01*
X007172Y021034D01*
X007172Y020575D01*
X007132Y020575D01*
X007132Y021034D01*
X007056Y021034D01*
X006880Y020961D01*
X006745Y020826D01*
X006672Y020650D01*
X006672Y020574D01*
X007132Y020574D01*
X007132Y020534D01*
X007132Y020074D01*
X007132Y020372D02*
X007172Y020372D01*
X007172Y020531D02*
X007132Y020531D01*
X007132Y020689D02*
X007172Y020689D01*
X007172Y020848D02*
X007132Y020848D01*
X007132Y021006D02*
X007172Y021006D01*
X007315Y021006D02*
X007937Y021006D01*
X007738Y020848D02*
X007537Y020848D01*
X007616Y020689D02*
X007667Y020689D01*
X007652Y020531D02*
X007632Y020531D01*
X007596Y020372D02*
X007686Y020372D01*
X008152Y020354D02*
X008152Y020554D01*
X008518Y020214D02*
X008785Y020214D01*
X008728Y020271D02*
X008869Y020130D01*
X009052Y020054D01*
X009251Y020054D01*
X009435Y020130D01*
X009576Y020271D01*
X009652Y020455D01*
X009652Y020654D01*
X009576Y020838D01*
X009435Y020978D01*
X009251Y021054D01*
X009052Y021054D01*
X008869Y020978D01*
X008728Y020838D01*
X008652Y020654D01*
X008652Y020455D01*
X008728Y020271D01*
X008686Y020372D02*
X008618Y020372D01*
X008652Y020531D02*
X008652Y020531D01*
X008637Y020689D02*
X008667Y020689D01*
X008738Y020848D02*
X008565Y020848D01*
X008367Y021006D02*
X008937Y021006D01*
X009367Y021006D02*
X009937Y021006D01*
X009869Y020978D02*
X009728Y020838D01*
X009652Y020654D01*
X009652Y020455D01*
X009728Y020271D01*
X009869Y020130D01*
X010052Y020054D01*
X010251Y020054D01*
X010435Y020130D01*
X010576Y020271D01*
X010652Y020455D01*
X010652Y020654D01*
X010576Y020838D01*
X010435Y020978D01*
X010251Y021054D01*
X010052Y021054D01*
X009869Y020978D01*
X009738Y020848D02*
X009565Y020848D01*
X009637Y020689D02*
X009667Y020689D01*
X009652Y020531D02*
X009652Y020531D01*
X009618Y020372D02*
X009686Y020372D01*
X009785Y020214D02*
X009518Y020214D01*
X009253Y020055D02*
X010050Y020055D01*
X010253Y020055D02*
X010872Y020055D01*
X010872Y020129D02*
X010872Y017980D01*
X010769Y017877D01*
X010682Y017668D01*
X010682Y017441D01*
X010769Y017231D01*
X010929Y017071D01*
X010970Y017054D01*
X010929Y017038D01*
X010769Y016877D01*
X010682Y016668D01*
X010682Y016441D01*
X010769Y016231D01*
X010929Y016071D01*
X011139Y015984D01*
X011365Y015984D01*
X011575Y016071D01*
X011735Y016231D01*
X011752Y016272D01*
X011769Y016231D01*
X011929Y016071D01*
X012139Y015984D01*
X012365Y015984D01*
X012575Y016071D01*
X012735Y016231D01*
X012752Y016272D01*
X012769Y016231D01*
X012929Y016071D01*
X013139Y015984D01*
X013365Y015984D01*
X013575Y016071D01*
X013735Y016231D01*
X013752Y016272D01*
X013769Y016231D01*
X013929Y016071D01*
X014139Y015984D01*
X014365Y015984D01*
X014575Y016071D01*
X014735Y016231D01*
X014752Y016272D01*
X014769Y016231D01*
X014929Y016071D01*
X015139Y015984D01*
X015365Y015984D01*
X015575Y016071D01*
X015735Y016231D01*
X015752Y016272D01*
X015769Y016231D01*
X015929Y016071D01*
X016139Y015984D01*
X016365Y015984D01*
X016575Y016071D01*
X016735Y016231D01*
X016822Y016441D01*
X016822Y016668D01*
X016735Y016877D01*
X016575Y017038D01*
X016534Y017054D01*
X016575Y017071D01*
X016735Y017231D01*
X016822Y017441D01*
X016822Y017668D01*
X016735Y017877D01*
X016575Y018038D01*
X016532Y018055D01*
X016532Y020054D01*
X016536Y020097D01*
X016538Y020102D01*
X016652Y020054D01*
X016851Y020054D01*
X017035Y020130D01*
X017176Y020271D01*
X017252Y020455D01*
X017328Y020271D01*
X017469Y020130D01*
X017652Y020054D01*
X017851Y020054D01*
X018035Y020130D01*
X018176Y020271D01*
X018252Y020455D01*
X018252Y020654D01*
X018176Y020838D01*
X018035Y020978D01*
X017851Y021054D01*
X017652Y021054D01*
X017469Y020978D01*
X017328Y020838D01*
X017252Y020654D01*
X017252Y020455D01*
X017252Y020654D01*
X017176Y020838D01*
X017035Y020978D01*
X016851Y021054D01*
X016652Y021054D01*
X016469Y020978D01*
X016328Y020838D01*
X016255Y020660D01*
X016251Y020656D01*
X016176Y020838D01*
X016035Y020978D01*
X015851Y021054D01*
X015652Y021054D01*
X015469Y020978D01*
X015328Y020838D01*
X015255Y020660D01*
X015251Y020656D01*
X015176Y020838D01*
X015035Y020978D01*
X014851Y021054D01*
X014652Y021054D01*
X014469Y020978D01*
X014328Y020838D01*
X014255Y020660D01*
X014091Y020496D01*
X013972Y020209D01*
X013972Y020110D01*
X013972Y018055D01*
X013929Y018038D01*
X013769Y017877D01*
X013752Y017837D01*
X013735Y017877D01*
X013575Y018038D01*
X013432Y018097D01*
X013432Y020054D01*
X013535Y020054D01*
X013652Y020171D01*
X013652Y020937D01*
X013535Y021054D01*
X012769Y021054D01*
X012652Y020937D01*
X012652Y020171D01*
X012769Y020054D01*
X012872Y020054D01*
X012872Y017980D01*
X012769Y017877D01*
X012752Y017837D01*
X012735Y017877D01*
X012575Y018038D01*
X012432Y018097D01*
X012432Y020129D01*
X012435Y020130D01*
X012576Y020271D01*
X012652Y020455D01*
X012652Y020654D01*
X012576Y020838D01*
X012435Y020978D01*
X012251Y021054D01*
X012052Y021054D01*
X011869Y020978D01*
X011728Y020838D01*
X011652Y020654D01*
X011576Y020838D01*
X011435Y020978D01*
X011251Y021054D01*
X011052Y021054D01*
X010869Y020978D01*
X010728Y020838D01*
X010652Y020654D01*
X010652Y020455D01*
X010728Y020271D01*
X010869Y020130D01*
X010872Y020129D01*
X010785Y020214D02*
X010518Y020214D01*
X010618Y020372D02*
X010686Y020372D01*
X010652Y020531D02*
X010652Y020531D01*
X010637Y020689D02*
X010667Y020689D01*
X010738Y020848D02*
X010565Y020848D01*
X010367Y021006D02*
X010937Y021006D01*
X011367Y021006D02*
X011937Y021006D01*
X011738Y020848D02*
X011565Y020848D01*
X011637Y020689D02*
X011667Y020689D01*
X011652Y020654D02*
X011652Y020455D01*
X011576Y020271D01*
X011435Y020130D01*
X011432Y020129D01*
X011432Y018097D01*
X011575Y018038D01*
X011735Y017877D01*
X011752Y017837D01*
X011769Y017877D01*
X011872Y017980D01*
X011872Y020129D01*
X011869Y020130D01*
X011728Y020271D01*
X011652Y020455D01*
X011652Y020654D01*
X011652Y020531D02*
X011652Y020531D01*
X011618Y020372D02*
X011686Y020372D01*
X011785Y020214D02*
X011518Y020214D01*
X011432Y020055D02*
X011872Y020055D01*
X011872Y019897D02*
X011432Y019897D01*
X011432Y019738D02*
X011872Y019738D01*
X011872Y019580D02*
X011432Y019580D01*
X011432Y019421D02*
X011872Y019421D01*
X011872Y019262D02*
X011432Y019262D01*
X011432Y019104D02*
X011872Y019104D01*
X011872Y018945D02*
X011432Y018945D01*
X011432Y018787D02*
X011872Y018787D01*
X011872Y018628D02*
X011432Y018628D01*
X011432Y018470D02*
X011872Y018470D01*
X011872Y018311D02*
X011432Y018311D01*
X011432Y018153D02*
X011872Y018153D01*
X011872Y017994D02*
X011618Y017994D01*
X011252Y017554D02*
X011235Y017556D01*
X011218Y017560D01*
X011202Y017567D01*
X011188Y017577D01*
X011175Y017590D01*
X011165Y017604D01*
X011158Y017620D01*
X011154Y017637D01*
X011152Y017654D01*
X011152Y020554D01*
X010872Y019897D02*
X009318Y019897D01*
X009227Y019934D02*
X009227Y019934D01*
X009050Y020055D02*
X008558Y020055D01*
X008852Y019654D02*
X008802Y019656D01*
X008752Y019661D01*
X008703Y019670D01*
X008655Y019682D01*
X008607Y019698D01*
X008561Y019717D01*
X008517Y019740D01*
X008474Y019765D01*
X008433Y019794D01*
X008394Y019825D01*
X008357Y019859D01*
X008323Y019896D01*
X008292Y019935D01*
X008263Y019976D01*
X008238Y020019D01*
X008215Y020063D01*
X008196Y020109D01*
X008180Y020157D01*
X008168Y020205D01*
X008159Y020254D01*
X008154Y020304D01*
X008152Y020354D01*
X007973Y019897D02*
X004617Y019897D01*
X004717Y019738D02*
X008088Y019738D01*
X008251Y019580D02*
X004752Y019580D01*
X004738Y019421D02*
X008553Y019421D01*
X008697Y019374D02*
X008697Y019374D01*
X008852Y019654D02*
X009052Y019654D01*
X009288Y019262D02*
X004667Y019262D01*
X004033Y019104D02*
X003471Y019104D01*
X003351Y019054D02*
X003152Y019054D01*
X003351Y019054D01*
X003568Y018945D02*
X003936Y018945D01*
X003807Y018787D02*
X003697Y018787D01*
X003752Y018628D02*
X003752Y018628D01*
X003752Y018470D02*
X003752Y018470D01*
X003692Y018311D02*
X003811Y018311D01*
X003947Y018153D02*
X003557Y018153D01*
X003497Y017994D02*
X004007Y017994D01*
X003827Y017836D02*
X003677Y017836D01*
X003742Y017677D02*
X003762Y017677D01*
X003752Y017518D02*
X003752Y017518D01*
X003713Y017360D02*
X003791Y017360D01*
X003898Y017201D02*
X003606Y017201D01*
X003379Y017043D02*
X004125Y017043D01*
X003875Y016884D02*
X003629Y016884D01*
X003722Y016726D02*
X003782Y016726D01*
X003752Y016567D02*
X003752Y016567D01*
X003733Y016409D02*
X003771Y016409D01*
X003849Y016250D02*
X003655Y016250D01*
X003441Y016092D02*
X004063Y016092D01*
X003924Y015933D02*
X003580Y015933D01*
X003702Y015774D02*
X003802Y015774D01*
X003752Y015654D02*
X003752Y015455D01*
X003752Y015654D01*
X003752Y015616D02*
X003752Y015616D01*
X003752Y015457D02*
X003752Y015457D01*
X003687Y015299D02*
X003817Y015299D01*
X003959Y015140D02*
X003545Y015140D01*
X003527Y014982D02*
X003977Y014982D01*
X003822Y014823D02*
X003682Y014823D01*
X003747Y014665D02*
X003756Y014665D01*
X003752Y014506D02*
X003752Y014506D01*
X003707Y014348D02*
X003796Y014348D01*
X003910Y014189D02*
X003594Y014189D01*
X003409Y014031D02*
X004095Y014031D01*
X003863Y013872D02*
X003641Y013872D01*
X003727Y013713D02*
X003777Y013713D01*
X003752Y013555D02*
X003752Y013555D01*
X003728Y013396D02*
X003776Y013396D01*
X003861Y013238D02*
X003643Y013238D01*
X003412Y013079D02*
X004092Y013079D01*
X004412Y013079D02*
X005092Y013079D01*
X004861Y013238D02*
X004643Y013238D01*
X004728Y013396D02*
X004776Y013396D01*
X004752Y013555D02*
X004752Y013555D01*
X004727Y013713D02*
X004777Y013713D01*
X004863Y013872D02*
X004641Y013872D01*
X004409Y014031D02*
X005095Y014031D01*
X004910Y014189D02*
X004594Y014189D01*
X004707Y014348D02*
X004796Y014348D01*
X004752Y014506D02*
X004752Y014506D01*
X004747Y014665D02*
X004756Y014665D01*
X004822Y014823D02*
X004682Y014823D01*
X004527Y014982D02*
X004977Y014982D01*
X004959Y015140D02*
X004545Y015140D01*
X004687Y015299D02*
X004817Y015299D01*
X004752Y015455D02*
X004752Y015654D01*
X004752Y015455D01*
X004752Y015457D02*
X004752Y015457D01*
X004752Y015616D02*
X004752Y015616D01*
X004702Y015774D02*
X004802Y015774D01*
X004924Y015933D02*
X004580Y015933D01*
X004441Y016092D02*
X005063Y016092D01*
X004849Y016250D02*
X004655Y016250D01*
X004733Y016409D02*
X004771Y016409D01*
X004752Y016567D02*
X004752Y016567D01*
X004722Y016726D02*
X004782Y016726D01*
X004875Y016884D02*
X004629Y016884D01*
X005606Y017201D02*
X005898Y017201D01*
X005791Y017360D02*
X005713Y017360D01*
X005752Y017518D02*
X005752Y017518D01*
X005742Y017677D02*
X005762Y017677D01*
X005827Y017836D02*
X005677Y017836D01*
X005497Y017994D02*
X006007Y017994D01*
X005947Y018153D02*
X005557Y018153D01*
X005692Y018311D02*
X005811Y018311D01*
X005752Y018470D02*
X005752Y018470D01*
X005752Y018628D02*
X005752Y018628D01*
X005697Y018787D02*
X005807Y018787D01*
X005936Y018945D02*
X005568Y018945D01*
X005785Y020214D02*
X004618Y020214D01*
X004718Y020372D02*
X005686Y020372D01*
X005652Y020531D02*
X004752Y020531D01*
X004737Y020689D02*
X005667Y020689D01*
X005738Y020848D02*
X004665Y020848D01*
X004467Y021006D02*
X005937Y021006D01*
X006367Y021006D02*
X006989Y021006D01*
X006767Y020848D02*
X006565Y020848D01*
X006637Y020689D02*
X006688Y020689D01*
X006672Y020531D02*
X006652Y020531D01*
X006618Y020372D02*
X006708Y020372D01*
X006814Y020214D02*
X006518Y020214D01*
X004037Y021006D02*
X003467Y021006D01*
X003665Y020848D02*
X003838Y020848D01*
X003767Y020689D02*
X003737Y020689D01*
X003752Y020531D02*
X003752Y020531D01*
X003718Y020372D02*
X003786Y020372D01*
X003885Y020214D02*
X003618Y020214D01*
X003617Y019897D02*
X003887Y019897D01*
X003787Y019738D02*
X003717Y019738D01*
X003752Y019580D02*
X003752Y019580D01*
X003738Y019421D02*
X003766Y019421D01*
X003837Y019262D02*
X003667Y019262D01*
X003033Y019104D02*
X002471Y019104D01*
X002568Y018945D02*
X002936Y018945D01*
X002807Y018787D02*
X002697Y018787D01*
X002752Y018628D02*
X002752Y018628D01*
X002752Y018470D02*
X002752Y018470D01*
X002692Y018311D02*
X002811Y018311D01*
X002947Y018153D02*
X002557Y018153D01*
X002497Y017994D02*
X003007Y017994D01*
X002827Y017836D02*
X002677Y017836D01*
X002742Y017677D02*
X002762Y017677D01*
X002752Y017518D02*
X002752Y017518D01*
X002713Y017360D02*
X002791Y017360D01*
X002898Y017201D02*
X002606Y017201D01*
X002379Y017043D02*
X003125Y017043D01*
X002875Y016884D02*
X002629Y016884D01*
X002722Y016726D02*
X002782Y016726D01*
X002752Y016567D02*
X002752Y016567D01*
X002733Y016409D02*
X002771Y016409D01*
X002849Y016250D02*
X002655Y016250D01*
X002441Y016092D02*
X003063Y016092D01*
X002924Y015933D02*
X002580Y015933D01*
X002702Y015774D02*
X002802Y015774D01*
X002752Y015616D02*
X002752Y015616D01*
X002752Y015457D02*
X002752Y015457D01*
X002687Y015299D02*
X002817Y015299D01*
X001822Y014823D02*
X001682Y014823D01*
X001747Y014665D02*
X001756Y014665D01*
X001752Y014506D02*
X001752Y014506D01*
X001707Y014348D02*
X001796Y014348D01*
X001910Y014189D02*
X001594Y014189D01*
X001095Y014031D02*
X000512Y014031D01*
X000512Y014189D02*
X000910Y014189D01*
X000796Y014348D02*
X000512Y014348D01*
X000512Y014506D02*
X000752Y014506D01*
X000756Y014665D02*
X000512Y014665D01*
X000512Y014823D02*
X000822Y014823D01*
X000977Y014982D02*
X000512Y014982D01*
X000512Y015140D02*
X000959Y015140D01*
X001152Y015054D02*
X001351Y015054D01*
X001152Y015054D01*
X000817Y015299D02*
X000512Y015299D01*
X000512Y015457D02*
X000752Y015457D01*
X000752Y015616D02*
X000512Y015616D01*
X000512Y015774D02*
X000802Y015774D01*
X000924Y015933D02*
X000512Y015933D01*
X000512Y016092D02*
X001063Y016092D01*
X000849Y016250D02*
X000512Y016250D01*
X000512Y016409D02*
X000771Y016409D01*
X000752Y016567D02*
X000512Y016567D01*
X000512Y016726D02*
X000782Y016726D01*
X000875Y016884D02*
X000512Y016884D01*
X000512Y017043D02*
X001125Y017043D01*
X001379Y017043D02*
X002125Y017043D01*
X001007Y017994D02*
X000512Y017994D01*
X000512Y017836D02*
X000827Y017836D01*
X000762Y017677D02*
X000512Y017677D01*
X000512Y017518D02*
X000752Y017518D01*
X000791Y017360D02*
X000512Y017360D01*
X000512Y017201D02*
X000898Y017201D01*
X000947Y018153D02*
X000512Y018153D01*
X000512Y018311D02*
X000811Y018311D01*
X000752Y018470D02*
X000512Y018470D01*
X000512Y018628D02*
X000752Y018628D01*
X000807Y018787D02*
X000512Y018787D01*
X000512Y018945D02*
X000936Y018945D01*
X001033Y019104D02*
X000512Y019104D01*
X000512Y019262D02*
X000837Y019262D01*
X000766Y019421D02*
X000512Y019421D01*
X000512Y019580D02*
X000752Y019580D01*
X000787Y019738D02*
X000512Y019738D01*
X000512Y019897D02*
X000887Y019897D01*
X001150Y020055D02*
X000512Y020055D01*
X000512Y020214D02*
X000885Y020214D01*
X000786Y020372D02*
X000512Y020372D01*
X000512Y020531D02*
X000752Y020531D01*
X000767Y020689D02*
X000557Y020689D01*
X000624Y020848D02*
X000838Y020848D01*
X000745Y021006D02*
X001037Y021006D01*
X000935Y021165D02*
X022155Y021165D01*
X022135Y021054D02*
X021369Y021054D01*
X021252Y020937D01*
X021252Y020171D01*
X021369Y020054D01*
X022135Y020054D01*
X022252Y020171D01*
X022252Y020937D01*
X022135Y021054D01*
X022183Y021006D02*
X022327Y021006D01*
X022252Y020848D02*
X022425Y020848D01*
X022477Y020689D02*
X022252Y020689D01*
X022252Y020531D02*
X022492Y020531D01*
X022492Y020372D02*
X022252Y020372D01*
X022252Y020214D02*
X022492Y020214D01*
X022492Y020055D02*
X022136Y020055D01*
X022492Y019897D02*
X016532Y019897D01*
X016532Y020055D02*
X016650Y020055D01*
X016252Y020054D02*
X016254Y020098D01*
X016260Y020141D01*
X016269Y020183D01*
X016282Y020225D01*
X016299Y020265D01*
X016319Y020304D01*
X016342Y020341D01*
X016369Y020375D01*
X016398Y020408D01*
X016431Y020437D01*
X016465Y020464D01*
X016502Y020487D01*
X016541Y020507D01*
X016581Y020524D01*
X016623Y020537D01*
X016665Y020546D01*
X016708Y020552D01*
X016752Y020554D01*
X017218Y020372D02*
X017286Y020372D01*
X017252Y020531D02*
X017252Y020531D01*
X017237Y020689D02*
X017267Y020689D01*
X017338Y020848D02*
X017165Y020848D01*
X016967Y021006D02*
X017537Y021006D01*
X017967Y021006D02*
X018537Y021006D01*
X018469Y020978D02*
X018652Y021054D01*
X018851Y021054D01*
X019035Y020978D01*
X019176Y020838D01*
X019252Y020654D01*
X019252Y020455D01*
X019176Y020271D01*
X019035Y020130D01*
X018851Y020054D01*
X018652Y020054D01*
X018469Y020130D01*
X018328Y020271D01*
X018252Y020455D01*
X018252Y020654D01*
X018328Y020838D01*
X018469Y020978D01*
X018338Y020848D02*
X018165Y020848D01*
X018237Y020689D02*
X018267Y020689D01*
X018252Y020531D02*
X018252Y020531D01*
X018218Y020372D02*
X018286Y020372D01*
X018385Y020214D02*
X018118Y020214D01*
X017853Y020055D02*
X018650Y020055D01*
X018853Y020055D02*
X019650Y020055D01*
X019652Y020054D02*
X019851Y020054D01*
X020035Y020130D01*
X020176Y020271D01*
X020252Y020455D01*
X020252Y020654D01*
X020176Y020838D01*
X020035Y020978D01*
X019851Y021054D01*
X019652Y021054D01*
X019469Y020978D01*
X019328Y020838D01*
X019252Y020654D01*
X019252Y020455D01*
X019328Y020271D01*
X019469Y020130D01*
X019652Y020054D01*
X019853Y020055D02*
X020650Y020055D01*
X020652Y020054D02*
X020851Y020054D01*
X021035Y020130D01*
X021176Y020271D01*
X021252Y020455D01*
X021252Y020654D01*
X021176Y020838D01*
X021035Y020978D01*
X020851Y021054D01*
X020652Y021054D01*
X020469Y020978D01*
X020328Y020838D01*
X020252Y020654D01*
X020252Y020455D01*
X020328Y020271D01*
X020469Y020130D01*
X020652Y020054D01*
X020853Y020055D02*
X021368Y020055D01*
X021252Y020214D02*
X021118Y020214D01*
X021218Y020372D02*
X021252Y020372D01*
X021252Y020531D02*
X021252Y020531D01*
X021237Y020689D02*
X021252Y020689D01*
X021252Y020848D02*
X021165Y020848D01*
X021321Y021006D02*
X020967Y021006D01*
X020537Y021006D02*
X019967Y021006D01*
X020165Y020848D02*
X020338Y020848D01*
X020267Y020689D02*
X020237Y020689D01*
X020252Y020531D02*
X020252Y020531D01*
X020218Y020372D02*
X020286Y020372D01*
X020385Y020214D02*
X020118Y020214D01*
X019385Y020214D02*
X019118Y020214D01*
X019218Y020372D02*
X019286Y020372D01*
X019252Y020531D02*
X019252Y020531D01*
X019237Y020689D02*
X019267Y020689D01*
X019338Y020848D02*
X019165Y020848D01*
X018967Y021006D02*
X019537Y021006D01*
X019582Y019494D02*
X019268Y019364D01*
X019027Y019124D01*
X018897Y018809D01*
X018897Y018469D01*
X019027Y018155D01*
X019268Y017914D01*
X019582Y017784D01*
X019922Y017784D01*
X020236Y017914D01*
X020477Y018155D01*
X020607Y018469D01*
X020607Y018809D01*
X020477Y019124D01*
X020236Y019364D01*
X019922Y019494D01*
X019582Y019494D01*
X019405Y019421D02*
X016532Y019421D01*
X016532Y019262D02*
X019166Y019262D01*
X019019Y019104D02*
X016532Y019104D01*
X016532Y018945D02*
X018953Y018945D01*
X018897Y018787D02*
X016532Y018787D01*
X016532Y018628D02*
X018897Y018628D01*
X018897Y018470D02*
X016532Y018470D01*
X016532Y018311D02*
X018962Y018311D01*
X019029Y018153D02*
X016532Y018153D01*
X016618Y017994D02*
X019188Y017994D01*
X019458Y017836D02*
X016752Y017836D01*
X016818Y017677D02*
X022492Y017677D01*
X022492Y017518D02*
X016822Y017518D01*
X016788Y017360D02*
X022492Y017360D01*
X022492Y017201D02*
X016705Y017201D01*
X016562Y017043D02*
X022492Y017043D01*
X022492Y016884D02*
X016728Y016884D01*
X016798Y016726D02*
X022492Y016726D01*
X022492Y016567D02*
X016822Y016567D01*
X016809Y016409D02*
X022531Y016409D01*
X022688Y016250D02*
X016743Y016250D01*
X016595Y016092D02*
X022847Y016092D01*
X023006Y015933D02*
X010776Y015933D01*
X010909Y016092D02*
X010510Y016092D01*
X010407Y016134D02*
X010407Y016134D01*
X010252Y015854D02*
X009952Y015854D01*
X009941Y016138D02*
X009941Y016138D01*
X009952Y015854D02*
X009918Y015856D01*
X009885Y015862D01*
X009853Y015871D01*
X009822Y015884D01*
X009792Y015900D01*
X009765Y015919D01*
X009740Y015942D01*
X009717Y015967D01*
X009698Y015994D01*
X009682Y016024D01*
X009669Y016055D01*
X009660Y016087D01*
X009654Y016120D01*
X009652Y016154D01*
X009652Y019054D01*
X009932Y019104D02*
X010872Y019104D01*
X010872Y019262D02*
X009918Y019262D01*
X009853Y019421D02*
X010872Y019421D01*
X010872Y019580D02*
X009771Y019580D01*
X009798Y019553D02*
X009798Y019553D01*
X009613Y019738D02*
X010872Y019738D01*
X010872Y018945D02*
X009932Y018945D01*
X009932Y018787D02*
X010872Y018787D01*
X010872Y018628D02*
X009932Y018628D01*
X009932Y018470D02*
X010872Y018470D01*
X010872Y018311D02*
X009932Y018311D01*
X009932Y018153D02*
X010872Y018153D01*
X010872Y017994D02*
X009932Y017994D01*
X009932Y017836D02*
X010751Y017836D01*
X010686Y017677D02*
X009932Y017677D01*
X009932Y017518D02*
X010682Y017518D01*
X010716Y017360D02*
X009932Y017360D01*
X009932Y017201D02*
X010799Y017201D01*
X010942Y017043D02*
X009932Y017043D01*
X009932Y016884D02*
X010776Y016884D01*
X010706Y016726D02*
X009932Y016726D01*
X009932Y016567D02*
X010682Y016567D01*
X010695Y016409D02*
X009932Y016409D01*
X009932Y016250D02*
X010761Y016250D01*
X010922Y015774D02*
X023164Y015774D01*
X023323Y015616D02*
X010988Y015616D01*
X011032Y015457D02*
X023481Y015457D01*
X023492Y015299D02*
X023381Y015299D01*
X023434Y015246D02*
X023434Y015246D01*
X022492Y017836D02*
X020046Y017836D01*
X020316Y017994D02*
X022492Y017994D01*
X022492Y018153D02*
X020474Y018153D01*
X020541Y018311D02*
X022492Y018311D01*
X022492Y018470D02*
X020607Y018470D01*
X020607Y018628D02*
X022492Y018628D01*
X022492Y018787D02*
X020607Y018787D01*
X020551Y018945D02*
X022492Y018945D01*
X022492Y019104D02*
X020485Y019104D01*
X020338Y019262D02*
X022492Y019262D01*
X022492Y019421D02*
X020099Y019421D01*
X022492Y019580D02*
X016532Y019580D01*
X016532Y019738D02*
X022492Y019738D01*
X017650Y020055D02*
X016853Y020055D01*
X017118Y020214D02*
X017385Y020214D01*
X016537Y021006D02*
X015967Y021006D01*
X016165Y020848D02*
X016338Y020848D01*
X016267Y020689D02*
X016237Y020689D01*
X016252Y020054D02*
X016252Y017554D01*
X015252Y017554D02*
X015252Y020054D01*
X015254Y020098D01*
X015260Y020141D01*
X015269Y020183D01*
X015282Y020225D01*
X015299Y020265D01*
X015319Y020304D01*
X015342Y020341D01*
X015369Y020375D01*
X015398Y020408D01*
X015431Y020437D01*
X015465Y020464D01*
X015502Y020487D01*
X015541Y020507D01*
X015581Y020524D01*
X015623Y020537D01*
X015665Y020546D01*
X015708Y020552D01*
X015752Y020554D01*
X015267Y020689D02*
X015237Y020689D01*
X015165Y020848D02*
X015338Y020848D01*
X015537Y021006D02*
X014967Y021006D01*
X014537Y021006D02*
X013583Y021006D01*
X013652Y020848D02*
X014338Y020848D01*
X014267Y020689D02*
X013652Y020689D01*
X013652Y020531D02*
X014125Y020531D01*
X014091Y020496D02*
X014091Y020496D01*
X014039Y020372D02*
X013652Y020372D01*
X013652Y020214D02*
X013974Y020214D01*
X013972Y020209D02*
X013972Y020209D01*
X013972Y020055D02*
X013536Y020055D01*
X013432Y019897D02*
X013972Y019897D01*
X013972Y019738D02*
X013432Y019738D01*
X013432Y019580D02*
X013972Y019580D01*
X013972Y019421D02*
X013432Y019421D01*
X013432Y019262D02*
X013972Y019262D01*
X013972Y019104D02*
X013432Y019104D01*
X013432Y018945D02*
X013972Y018945D01*
X013972Y018787D02*
X013432Y018787D01*
X013432Y018628D02*
X013972Y018628D01*
X013972Y018470D02*
X013432Y018470D01*
X013432Y018311D02*
X013972Y018311D01*
X013972Y018153D02*
X013432Y018153D01*
X013618Y017994D02*
X013886Y017994D01*
X014252Y017554D02*
X014252Y020054D01*
X014254Y020098D01*
X014260Y020141D01*
X014269Y020183D01*
X014282Y020225D01*
X014299Y020265D01*
X014319Y020304D01*
X014342Y020341D01*
X014369Y020375D01*
X014398Y020408D01*
X014431Y020437D01*
X014465Y020464D01*
X014502Y020487D01*
X014541Y020507D01*
X014581Y020524D01*
X014623Y020537D01*
X014665Y020546D01*
X014708Y020552D01*
X014752Y020554D01*
X013152Y020554D02*
X013152Y017654D01*
X013154Y017637D01*
X013158Y017620D01*
X013165Y017604D01*
X013175Y017590D01*
X013188Y017577D01*
X013202Y017567D01*
X013218Y017560D01*
X013235Y017556D01*
X013252Y017554D01*
X012872Y017994D02*
X012618Y017994D01*
X012432Y018153D02*
X012872Y018153D01*
X012872Y018311D02*
X012432Y018311D01*
X012432Y018470D02*
X012872Y018470D01*
X012872Y018628D02*
X012432Y018628D01*
X012432Y018787D02*
X012872Y018787D01*
X012872Y018945D02*
X012432Y018945D01*
X012432Y019104D02*
X012872Y019104D01*
X012872Y019262D02*
X012432Y019262D01*
X012432Y019421D02*
X012872Y019421D01*
X012872Y019580D02*
X012432Y019580D01*
X012432Y019738D02*
X012872Y019738D01*
X012872Y019897D02*
X012432Y019897D01*
X012432Y020055D02*
X012768Y020055D01*
X012652Y020214D02*
X012518Y020214D01*
X012618Y020372D02*
X012652Y020372D01*
X012652Y020531D02*
X012652Y020531D01*
X012637Y020689D02*
X012652Y020689D01*
X012652Y020848D02*
X012565Y020848D01*
X012721Y021006D02*
X012367Y021006D01*
X012152Y020554D02*
X012152Y017654D01*
X012154Y017637D01*
X012158Y017620D01*
X012165Y017604D01*
X012175Y017590D01*
X012188Y017577D01*
X012202Y017567D01*
X012218Y017560D01*
X012235Y017556D01*
X012252Y017554D01*
X012252Y016554D02*
X011252Y016554D01*
X011595Y016092D02*
X011909Y016092D01*
X011761Y016250D02*
X011743Y016250D01*
X012252Y016554D02*
X013252Y016554D01*
X014252Y016554D01*
X015252Y016554D01*
X016252Y016554D01*
X015909Y016092D02*
X015595Y016092D01*
X015743Y016250D02*
X015761Y016250D01*
X014909Y016092D02*
X014595Y016092D01*
X014743Y016250D02*
X014761Y016250D01*
X013909Y016092D02*
X013595Y016092D01*
X013743Y016250D02*
X013761Y016250D01*
X012909Y016092D02*
X012595Y016092D01*
X012743Y016250D02*
X012761Y016250D01*
X011032Y015308D02*
X011032Y015299D01*
X010752Y015354D02*
X010750Y015398D01*
X010744Y015441D01*
X010735Y015483D01*
X010722Y015525D01*
X010705Y015565D01*
X010685Y015604D01*
X010662Y015641D01*
X010635Y015675D01*
X010606Y015708D01*
X010573Y015737D01*
X010539Y015764D01*
X010502Y015787D01*
X010463Y015807D01*
X010423Y015824D01*
X010381Y015837D01*
X010339Y015846D01*
X010296Y015852D01*
X010252Y015854D01*
X009896Y015574D02*
X009896Y015574D01*
X009736Y015616D02*
X008752Y015616D01*
X008702Y015774D02*
X009512Y015774D01*
X009460Y015826D02*
X009460Y015826D01*
X009416Y015933D02*
X008580Y015933D01*
X007849Y016250D02*
X007655Y016250D01*
X007733Y016409D02*
X007771Y016409D01*
X007752Y016567D02*
X007752Y016567D01*
X007722Y016726D02*
X007782Y016726D01*
X007875Y016884D02*
X007629Y016884D01*
X005875Y016884D02*
X005629Y016884D01*
X005722Y016726D02*
X005782Y016726D01*
X005752Y016567D02*
X005752Y016567D01*
X005733Y016409D02*
X005771Y016409D01*
X005849Y016250D02*
X005655Y016250D01*
X005441Y016092D02*
X006063Y016092D01*
X005924Y015933D02*
X005580Y015933D01*
X005702Y015774D02*
X005802Y015774D01*
X005752Y015654D02*
X005752Y015455D01*
X005752Y015654D01*
X005752Y015616D02*
X005752Y015616D01*
X005752Y015457D02*
X005752Y015457D01*
X005687Y015299D02*
X005817Y015299D01*
X005959Y015140D02*
X005545Y015140D01*
X005527Y014982D02*
X005977Y014982D01*
X005822Y014823D02*
X005682Y014823D01*
X005747Y014665D02*
X005756Y014665D01*
X005752Y014506D02*
X005752Y014506D01*
X005707Y014348D02*
X005796Y014348D01*
X005910Y014189D02*
X005594Y014189D01*
X005409Y014031D02*
X006095Y014031D01*
X005863Y013872D02*
X005641Y013872D01*
X005727Y013713D02*
X005777Y013713D01*
X005752Y013555D02*
X005752Y013555D01*
X005728Y013396D02*
X005776Y013396D01*
X005861Y013238D02*
X005643Y013238D01*
X005412Y013079D02*
X006092Y013079D01*
X006143Y011969D02*
X006361Y011969D01*
X007143Y011969D02*
X007361Y011969D01*
X008143Y011969D02*
X008361Y011969D01*
X009143Y011969D02*
X009389Y011969D01*
X009263Y011811D02*
X009263Y011811D01*
X008323Y011177D02*
X008180Y011177D01*
X007947Y011018D02*
X008557Y011018D01*
X007557Y011018D02*
X006947Y011018D01*
X007180Y011177D02*
X007323Y011177D01*
X006557Y011018D02*
X005947Y011018D01*
X006180Y011177D02*
X006323Y011177D01*
X005557Y011018D02*
X004947Y011018D01*
X005180Y011177D02*
X005323Y011177D01*
X004557Y011018D02*
X003439Y011018D01*
X003581Y011177D02*
X004323Y011177D01*
X004226Y011335D02*
X003702Y011335D01*
X003752Y011494D02*
X004182Y011494D01*
X004182Y011652D02*
X003752Y011652D01*
X003687Y011811D02*
X004241Y011811D01*
X004361Y011969D02*
X003544Y011969D01*
X002960Y011969D02*
X002544Y011969D01*
X002529Y012128D02*
X002975Y012128D01*
X002822Y012287D02*
X002682Y012287D01*
X002748Y012445D02*
X002756Y012445D01*
X002752Y012604D02*
X002752Y012604D01*
X002707Y012762D02*
X002797Y012762D01*
X002911Y012921D02*
X002593Y012921D01*
X002412Y013079D02*
X003092Y013079D01*
X002861Y013238D02*
X002643Y013238D01*
X002728Y013396D02*
X002776Y013396D01*
X002752Y013555D02*
X002752Y013555D01*
X002727Y013713D02*
X002777Y013713D01*
X002863Y013872D02*
X002641Y013872D01*
X001092Y013079D02*
X000512Y013079D01*
X000512Y012921D02*
X000911Y012921D01*
X000797Y012762D02*
X000512Y012762D01*
X000512Y012604D02*
X000752Y012604D01*
X000756Y012445D02*
X000512Y012445D01*
X000512Y012287D02*
X000822Y012287D01*
X000975Y012128D02*
X000512Y012128D01*
X000512Y011969D02*
X000960Y011969D01*
X000817Y011811D02*
X000512Y011811D01*
X000512Y011652D02*
X000752Y011652D01*
X000752Y011494D02*
X000512Y011494D01*
X000512Y011335D02*
X000801Y011335D01*
X000922Y011177D02*
X000512Y011177D01*
X000512Y011018D02*
X001065Y011018D01*
X000850Y010860D02*
X000512Y010860D01*
X000512Y010701D02*
X000772Y010701D01*
X000752Y010543D02*
X000512Y010543D01*
X000512Y010384D02*
X000781Y010384D01*
X000874Y010225D02*
X000512Y010225D01*
X002439Y011018D02*
X003065Y011018D01*
X002922Y011177D02*
X002581Y011177D01*
X002702Y011335D02*
X002801Y011335D01*
X002752Y011494D02*
X002752Y011494D01*
X002752Y011652D02*
X002752Y011652D01*
X002687Y011811D02*
X002817Y011811D01*
X002850Y010860D02*
X002654Y010860D01*
X002732Y010701D02*
X002772Y010701D01*
X002752Y010543D02*
X002752Y010543D01*
X002723Y010384D02*
X002781Y010384D01*
X002874Y010225D02*
X002630Y010225D01*
X002605Y009908D02*
X002899Y009908D01*
X002792Y009750D02*
X002712Y009750D01*
X002752Y009591D02*
X002752Y009591D01*
X002743Y009433D02*
X002761Y009433D01*
X002827Y009274D02*
X002677Y009274D01*
X002499Y009116D02*
X003004Y009116D01*
X002948Y008957D02*
X002556Y008957D01*
X002692Y008799D02*
X002812Y008799D01*
X002752Y008640D02*
X002752Y008640D01*
X002752Y008481D02*
X002752Y008481D01*
X002697Y008323D02*
X002807Y008323D01*
X002935Y008164D02*
X002569Y008164D01*
X002468Y008006D02*
X003036Y008006D01*
X002838Y007847D02*
X002666Y007847D01*
X002737Y007689D02*
X002766Y007689D01*
X002752Y007530D02*
X002752Y007530D01*
X002717Y007372D02*
X002786Y007372D01*
X002886Y007213D02*
X002618Y007213D01*
X002617Y006896D02*
X002887Y006896D01*
X002787Y006738D02*
X002717Y006738D01*
X002752Y006579D02*
X002752Y006579D01*
X002738Y006420D02*
X002766Y006420D01*
X002837Y006262D02*
X002667Y006262D01*
X002470Y006103D02*
X003034Y006103D01*
X002935Y005945D02*
X002569Y005945D01*
X002697Y005786D02*
X002807Y005786D01*
X002752Y005628D02*
X002752Y005628D01*
X002752Y005469D02*
X002752Y005469D01*
X002692Y005311D02*
X002812Y005311D01*
X002947Y005152D02*
X002557Y005152D01*
X002498Y004994D02*
X003006Y004994D01*
X002827Y004835D02*
X002677Y004835D01*
X002743Y004676D02*
X002761Y004676D01*
X002752Y004518D02*
X002752Y004518D01*
X002712Y004359D02*
X002791Y004359D01*
X002898Y004201D02*
X002606Y004201D01*
X001884Y003250D02*
X003620Y003250D01*
X003820Y003091D02*
X001684Y003091D01*
X001260Y003091D02*
X000512Y003091D01*
X000512Y002932D02*
X003972Y002932D01*
X003972Y002899D02*
X003972Y002899D01*
X004024Y002774D02*
X000512Y002774D01*
X000512Y002615D02*
X004089Y002615D01*
X004246Y002457D02*
X000512Y002457D01*
X000512Y003250D02*
X001060Y003250D01*
X000987Y003408D02*
X000512Y003408D01*
X000512Y003567D02*
X000972Y003567D01*
X001006Y003725D02*
X000512Y003725D01*
X000512Y003884D02*
X001104Y003884D01*
X001368Y004042D02*
X000512Y004042D01*
X000512Y004201D02*
X000898Y004201D01*
X000791Y004359D02*
X000512Y004359D01*
X000512Y004518D02*
X000752Y004518D01*
X000761Y004676D02*
X000512Y004676D01*
X000512Y004835D02*
X000827Y004835D01*
X001006Y004994D02*
X000512Y004994D01*
X000512Y005152D02*
X000947Y005152D01*
X000812Y005311D02*
X000512Y005311D01*
X000512Y005469D02*
X000752Y005469D01*
X000752Y005628D02*
X000512Y005628D01*
X000512Y005786D02*
X000807Y005786D01*
X000935Y005945D02*
X000512Y005945D01*
X000512Y006103D02*
X001034Y006103D01*
X000837Y006262D02*
X000512Y006262D01*
X000512Y006420D02*
X000766Y006420D01*
X000752Y006579D02*
X000512Y006579D01*
X000512Y006738D02*
X000787Y006738D01*
X000887Y006896D02*
X000512Y006896D01*
X003630Y010225D02*
X022720Y010225D01*
X023003Y010225D02*
X023062Y010225D01*
X023149Y010384D02*
X003723Y010384D01*
X003752Y010543D02*
X023492Y010543D01*
X023492Y010701D02*
X003732Y010701D01*
X003654Y010860D02*
X022750Y010860D01*
X022740Y010870D02*
X022740Y010870D01*
X022626Y011018D02*
X015947Y011018D01*
X016180Y011177D02*
X022612Y011177D01*
X022612Y011332D02*
X022612Y011332D01*
X022613Y011335D02*
X016278Y011335D01*
X016322Y011494D02*
X022720Y011494D01*
X022644Y011652D02*
X016322Y011652D01*
X016263Y011811D02*
X022612Y011811D01*
X022612Y011831D02*
X022612Y011831D01*
X022696Y011969D02*
X016143Y011969D01*
X015361Y011969D02*
X015143Y011969D01*
X014361Y011969D02*
X014143Y011969D01*
X013361Y011969D02*
X013143Y011969D01*
X012361Y011969D02*
X012143Y011969D01*
X011361Y011969D02*
X011143Y011969D01*
X011032Y012128D02*
X022661Y012128D01*
X022740Y012049D02*
X022740Y012049D01*
X022612Y012287D02*
X011032Y012287D01*
X011032Y012445D02*
X022612Y012445D01*
X023362Y010762D02*
X023362Y010762D01*
X023475Y010384D02*
X023492Y010384D01*
X015557Y011018D02*
X014947Y011018D01*
X015180Y011177D02*
X015323Y011177D01*
X014557Y011018D02*
X013947Y011018D01*
X014180Y011177D02*
X014323Y011177D01*
X013557Y011018D02*
X012947Y011018D01*
X013180Y011177D02*
X013323Y011177D01*
X012557Y011018D02*
X011947Y011018D01*
X012180Y011177D02*
X012323Y011177D01*
X011557Y011018D02*
X010947Y011018D01*
X011180Y011177D02*
X011323Y011177D01*
X007910Y014189D02*
X007594Y014189D01*
X007707Y014348D02*
X007796Y014348D01*
X007752Y014506D02*
X007752Y014506D01*
X007747Y014665D02*
X007756Y014665D01*
X007822Y014823D02*
X007682Y014823D01*
X005361Y011969D02*
X005143Y011969D01*
X000861Y013238D02*
X000512Y013238D01*
X000512Y013396D02*
X000776Y013396D01*
X000752Y013555D02*
X000512Y013555D01*
X000512Y013713D02*
X000777Y013713D01*
X000863Y013872D02*
X000512Y013872D01*
X002667Y019262D02*
X002837Y019262D01*
X002766Y019421D02*
X002738Y019421D01*
X002752Y019580D02*
X002752Y019580D01*
X002717Y019738D02*
X002787Y019738D01*
X002887Y019897D02*
X002617Y019897D01*
X002618Y020214D02*
X002885Y020214D01*
X002786Y020372D02*
X002718Y020372D01*
X002752Y020531D02*
X002752Y020531D01*
X002737Y020689D02*
X002767Y020689D01*
X002838Y020848D02*
X002665Y020848D01*
X002467Y021006D02*
X003037Y021006D01*
X002037Y021006D02*
X001467Y021006D01*
X001665Y020848D02*
X001838Y020848D01*
X001767Y020689D02*
X001737Y020689D01*
X001752Y020531D02*
X001752Y020531D01*
X001718Y020372D02*
X001786Y020372D01*
X001885Y020214D02*
X001618Y020214D01*
X001351Y020054D02*
X001152Y020054D01*
X001351Y020054D01*
X009052Y019654D02*
X009099Y019652D01*
X009146Y019647D01*
X009192Y019637D01*
X009237Y019625D01*
X009282Y019608D01*
X009324Y019589D01*
X009365Y019566D01*
X009405Y019539D01*
X009442Y019510D01*
X009476Y019478D01*
X009508Y019444D01*
X009537Y019407D01*
X009564Y019367D01*
X009587Y019326D01*
X009606Y019284D01*
X009623Y019239D01*
X009635Y019194D01*
X009645Y019148D01*
X009650Y019101D01*
X009652Y019054D01*
X009550Y019800D02*
X009550Y019800D01*
X008588Y006103D02*
X007916Y006103D01*
X008168Y005945D02*
X008336Y005945D01*
X007588Y006103D02*
X006916Y006103D01*
X007168Y005945D02*
X007336Y005945D01*
X006588Y006103D02*
X005916Y006103D01*
X006168Y005945D02*
X006336Y005945D01*
X005588Y006103D02*
X004916Y006103D01*
X005168Y005945D02*
X005336Y005945D01*
X005348Y005152D02*
X005156Y005152D01*
X004888Y004994D02*
X005616Y004994D01*
X005888Y004994D02*
X006616Y004994D01*
X006888Y004994D02*
X007616Y004994D01*
X007888Y004994D02*
X008616Y004994D01*
X008348Y005152D02*
X008156Y005152D01*
X007348Y005152D02*
X007156Y005152D01*
X006348Y005152D02*
X006156Y005152D01*
X004052Y002140D02*
X004012Y002140D01*
X004012Y001981D02*
X004052Y001981D01*
X004052Y001823D02*
X004012Y001823D01*
X004012Y001744D02*
X003552Y001744D01*
X003552Y001669D01*
X003625Y001492D01*
X003760Y001357D01*
X003936Y001284D01*
X004012Y001284D01*
X004012Y001744D01*
X004012Y001664D02*
X004052Y001664D01*
X004052Y001506D02*
X004012Y001506D01*
X004012Y001347D02*
X004052Y001347D01*
X003785Y001347D02*
X001719Y001347D01*
X001492Y001347D02*
X001452Y001347D01*
X001452Y001506D02*
X001492Y001506D01*
X001492Y001664D02*
X001452Y001664D01*
X001452Y001823D02*
X001492Y001823D01*
X001492Y001981D02*
X001452Y001981D01*
X001452Y002140D02*
X001492Y002140D01*
X001775Y002140D02*
X003729Y002140D01*
X003602Y001981D02*
X001902Y001981D01*
X001952Y001823D02*
X003552Y001823D01*
X003554Y001664D02*
X001950Y001664D01*
X001884Y001506D02*
X003620Y001506D01*
X010128Y005152D02*
X010348Y005152D01*
X010336Y005945D02*
X010139Y005945D01*
X011156Y005152D02*
X011348Y005152D01*
X012156Y005152D02*
X012348Y005152D01*
X013156Y005152D02*
X013348Y005152D01*
X015156Y005152D02*
X015348Y005152D01*
X015131Y001981D02*
X016373Y001981D01*
X016246Y001823D02*
X015258Y001823D01*
X015322Y001664D02*
X016182Y001664D01*
X016182Y001506D02*
X015322Y001506D01*
X015283Y001347D02*
X016221Y001347D01*
X016312Y001189D02*
X015192Y001189D01*
X014976Y001030D02*
X016528Y001030D01*
X016976Y001030D02*
X017528Y001030D01*
X017312Y001189D02*
X017192Y001189D01*
X017131Y001981D02*
X017373Y001981D01*
X018131Y001981D02*
X018373Y001981D01*
X019131Y001981D02*
X019373Y001981D01*
X020131Y001981D02*
X020373Y001981D01*
X021131Y001981D02*
X021373Y001981D01*
X021312Y001189D02*
X021192Y001189D01*
X020976Y001030D02*
X021528Y001030D01*
X020528Y001030D02*
X019976Y001030D01*
X020192Y001189D02*
X020312Y001189D01*
X019528Y001030D02*
X018976Y001030D01*
X019192Y001189D02*
X019312Y001189D01*
X018528Y001030D02*
X017976Y001030D01*
X018192Y001189D02*
X018312Y001189D01*
M02*
