G75*
G70*
%OFA0B0*%
%FSLAX24Y24*%
%IPPOS*%
%LPD*%
%AMOC8*
5,1,8,0,0,1.08239X$1,22.5*
%
%ADD10C,0.0080*%
%ADD11C,0.0050*%
%ADD12C,0.0070*%
%ADD13R,0.0200X0.0450*%
%ADD14R,0.0200X0.0100*%
%ADD15R,0.0200X0.0500*%
%ADD16R,0.0200X0.0300*%
%ADD17C,0.0200*%
%ADD18C,0.0160*%
%ADD19C,0.0110*%
%ADD20C,0.0060*%
D10*
X001142Y000844D02*
X001142Y001165D01*
X001302Y001325D01*
X001462Y001165D01*
X001462Y000844D01*
X001658Y000844D02*
X001658Y001325D01*
X001898Y001325D01*
X001978Y001245D01*
X001978Y001085D01*
X001898Y001004D01*
X001658Y001004D01*
X001818Y001004D02*
X001978Y000844D01*
X002173Y000844D02*
X002413Y000844D01*
X002493Y000924D01*
X002493Y001245D01*
X002413Y001325D01*
X002173Y001325D01*
X002173Y000844D01*
X002689Y000924D02*
X002769Y000844D01*
X002929Y000844D01*
X003009Y000924D01*
X003009Y001325D01*
X003204Y001325D02*
X003365Y001325D01*
X003285Y001325D02*
X003285Y000844D01*
X003365Y000844D02*
X003204Y000844D01*
X003548Y000844D02*
X003548Y001325D01*
X003868Y000844D01*
X003868Y001325D01*
X004064Y001245D02*
X004064Y000924D01*
X004144Y000844D01*
X004304Y000844D01*
X004384Y000924D01*
X004384Y001245D01*
X004304Y001325D01*
X004144Y001325D01*
X004064Y001245D01*
X003602Y001454D02*
X001902Y001454D01*
X001462Y001085D02*
X001142Y001085D01*
X001012Y001544D02*
X000532Y001544D01*
X000532Y001785D01*
X000612Y001865D01*
X000772Y001865D01*
X000852Y001785D01*
X000852Y001544D01*
X000852Y001704D02*
X001012Y001865D01*
X000932Y002060D02*
X000772Y002060D01*
X000692Y002140D01*
X000692Y002300D01*
X000772Y002380D01*
X000852Y002380D01*
X000852Y002060D01*
X000932Y002060D02*
X001012Y002140D01*
X001012Y002300D01*
X001012Y002576D02*
X001012Y002816D01*
X000932Y002896D01*
X000852Y002816D01*
X000852Y002656D01*
X000772Y002576D01*
X000692Y002656D01*
X000692Y002896D01*
X000772Y003091D02*
X000692Y003171D01*
X000692Y003331D01*
X000772Y003411D01*
X000852Y003411D01*
X000852Y003091D01*
X000932Y003091D02*
X000772Y003091D01*
X000932Y003091D02*
X001012Y003171D01*
X001012Y003331D01*
X000932Y003687D02*
X001012Y003767D01*
X000932Y003687D02*
X000612Y003687D01*
X000692Y003607D02*
X000692Y003767D01*
X001552Y003054D02*
X001552Y002261D01*
X002052Y002654D02*
X002054Y002706D01*
X002060Y002758D01*
X002070Y002810D01*
X002083Y002860D01*
X002100Y002910D01*
X002121Y002958D01*
X002146Y003004D01*
X002174Y003048D01*
X002205Y003090D01*
X002239Y003130D01*
X002276Y003167D01*
X002316Y003201D01*
X002358Y003232D01*
X002402Y003260D01*
X002448Y003285D01*
X002496Y003306D01*
X002546Y003323D01*
X002596Y003336D01*
X002648Y003346D01*
X002700Y003352D01*
X002752Y003354D01*
X002804Y003352D01*
X002856Y003346D01*
X002908Y003336D01*
X002958Y003323D01*
X003008Y003306D01*
X003056Y003285D01*
X003102Y003260D01*
X003146Y003232D01*
X003188Y003201D01*
X003228Y003167D01*
X003265Y003130D01*
X003299Y003090D01*
X003330Y003048D01*
X003358Y003004D01*
X003383Y002958D01*
X003404Y002910D01*
X003421Y002860D01*
X003434Y002810D01*
X003444Y002758D01*
X003450Y002706D01*
X003452Y002654D01*
X003450Y002602D01*
X003444Y002550D01*
X003434Y002498D01*
X003421Y002448D01*
X003404Y002398D01*
X003383Y002350D01*
X003358Y002304D01*
X003330Y002260D01*
X003299Y002218D01*
X003265Y002178D01*
X003228Y002141D01*
X003188Y002107D01*
X003146Y002076D01*
X003102Y002048D01*
X003056Y002023D01*
X003008Y002002D01*
X002958Y001985D01*
X002908Y001972D01*
X002856Y001962D01*
X002804Y001956D01*
X002752Y001954D01*
X002700Y001956D01*
X002648Y001962D01*
X002596Y001972D01*
X002546Y001985D01*
X002496Y002002D01*
X002448Y002023D01*
X002402Y002048D01*
X002358Y002076D01*
X002316Y002107D01*
X002276Y002141D01*
X002239Y002178D01*
X002205Y002218D01*
X002174Y002260D01*
X002146Y002304D01*
X002121Y002350D01*
X002100Y002398D01*
X002083Y002448D01*
X002070Y002498D01*
X002060Y002550D01*
X002054Y002602D01*
X002052Y002654D01*
X001902Y003854D02*
X003602Y003854D01*
X003752Y004554D02*
X003752Y012554D01*
X021252Y012554D01*
X021252Y011554D01*
X023752Y011554D01*
X023752Y005554D01*
X021252Y005554D01*
X021252Y004554D01*
X003752Y004554D01*
X004502Y005054D02*
X004252Y005304D01*
X004252Y005804D01*
X004502Y006054D01*
X005002Y006054D01*
X005252Y005804D01*
X005502Y006054D01*
X006002Y006054D01*
X006252Y005804D01*
X006502Y006054D01*
X007002Y006054D01*
X007252Y005804D01*
X007502Y006054D01*
X008002Y006054D01*
X008252Y005804D01*
X008502Y006054D01*
X009002Y006054D01*
X009252Y005804D01*
X009502Y006054D01*
X010002Y006054D01*
X010252Y005804D01*
X010502Y006054D01*
X011002Y006054D01*
X011252Y005804D01*
X011502Y006054D01*
X012002Y006054D01*
X012252Y005804D01*
X012502Y006054D01*
X013002Y006054D01*
X013252Y005804D01*
X013502Y006054D01*
X014002Y006054D01*
X014252Y005804D01*
X014502Y006054D01*
X015002Y006054D01*
X015252Y005804D01*
X015502Y006054D01*
X016002Y006054D01*
X016252Y005804D01*
X016252Y005304D01*
X016002Y005054D01*
X015502Y005054D01*
X015252Y005304D01*
X015002Y005054D01*
X014502Y005054D01*
X014252Y005304D01*
X014002Y005054D01*
X013502Y005054D01*
X013252Y005304D01*
X013002Y005054D01*
X012502Y005054D01*
X012252Y005304D01*
X012002Y005054D01*
X011502Y005054D01*
X011252Y005304D01*
X011002Y005054D01*
X010502Y005054D01*
X010252Y005304D01*
X010002Y005054D01*
X009502Y005054D01*
X009252Y005304D01*
X009002Y005054D01*
X008502Y005054D01*
X008252Y005304D01*
X008002Y005054D01*
X007502Y005054D01*
X007252Y005304D01*
X007002Y005054D01*
X006502Y005054D01*
X006252Y005304D01*
X006002Y005054D01*
X005502Y005054D01*
X005252Y005304D01*
X005002Y005054D01*
X004502Y005054D01*
X004792Y003767D02*
X004792Y003607D01*
X004712Y003687D02*
X005032Y003687D01*
X005112Y003767D01*
X004952Y003411D02*
X004872Y003411D01*
X004792Y003331D01*
X004792Y003171D01*
X004872Y003091D01*
X005032Y003091D01*
X005112Y003171D01*
X005112Y003331D01*
X004952Y003411D02*
X004952Y003091D01*
X005032Y002896D02*
X004952Y002816D01*
X004952Y002656D01*
X004872Y002576D01*
X004792Y002656D01*
X004792Y002896D01*
X005032Y002896D02*
X005112Y002816D01*
X005112Y002576D01*
X004952Y002380D02*
X004872Y002380D01*
X004792Y002300D01*
X004792Y002140D01*
X004872Y002060D01*
X005032Y002060D01*
X005112Y002140D01*
X005112Y002300D01*
X004952Y002380D02*
X004952Y002060D01*
X004872Y001865D02*
X004952Y001785D01*
X004952Y001544D01*
X005112Y001544D02*
X004632Y001544D01*
X004632Y001785D01*
X004712Y001865D01*
X004872Y001865D01*
X004952Y001704D02*
X005112Y001865D01*
X005652Y002261D02*
X005652Y003054D01*
X006002Y003854D02*
X007702Y003854D01*
X008052Y003054D02*
X008052Y002250D01*
X007702Y001454D02*
X006002Y001454D01*
X005842Y001325D02*
X005842Y001004D01*
X006002Y000844D01*
X006162Y001004D01*
X006162Y001325D01*
X006358Y001325D02*
X006598Y001325D01*
X006678Y001245D01*
X006678Y000924D01*
X006598Y000844D01*
X006358Y000844D01*
X006358Y001325D01*
X006873Y001325D02*
X007033Y001325D01*
X006953Y001325D02*
X006953Y000844D01*
X006873Y000844D02*
X007033Y000844D01*
X007217Y000844D02*
X007217Y001325D01*
X007457Y001325D01*
X007537Y001245D01*
X007537Y001085D01*
X007457Y001004D01*
X007217Y001004D01*
X007733Y000844D02*
X008053Y000844D01*
X007893Y000844D02*
X007893Y001325D01*
X007733Y001165D01*
X009252Y001304D02*
X009502Y001054D01*
X010002Y001054D01*
X010252Y001304D01*
X010502Y001054D01*
X011002Y001054D01*
X011252Y001304D01*
X011502Y001054D01*
X012002Y001054D01*
X012252Y001304D01*
X012502Y001054D01*
X013002Y001054D01*
X013252Y001304D01*
X013502Y001054D01*
X014002Y001054D01*
X014252Y001304D01*
X014502Y001054D01*
X015002Y001054D01*
X015252Y001304D01*
X015252Y001804D01*
X015002Y002054D01*
X014502Y002054D01*
X014252Y001804D01*
X014002Y002054D01*
X013502Y002054D01*
X013252Y001804D01*
X013002Y002054D01*
X012502Y002054D01*
X012252Y001804D01*
X012002Y002054D01*
X011502Y002054D01*
X011252Y001804D01*
X011002Y002054D01*
X010502Y002054D01*
X010252Y001804D01*
X010002Y002054D01*
X009502Y002054D01*
X009252Y001804D01*
X009252Y001304D01*
X006152Y002654D02*
X006154Y002706D01*
X006160Y002758D01*
X006170Y002810D01*
X006183Y002860D01*
X006200Y002910D01*
X006221Y002958D01*
X006246Y003004D01*
X006274Y003048D01*
X006305Y003090D01*
X006339Y003130D01*
X006376Y003167D01*
X006416Y003201D01*
X006458Y003232D01*
X006502Y003260D01*
X006548Y003285D01*
X006596Y003306D01*
X006646Y003323D01*
X006696Y003336D01*
X006748Y003346D01*
X006800Y003352D01*
X006852Y003354D01*
X006904Y003352D01*
X006956Y003346D01*
X007008Y003336D01*
X007058Y003323D01*
X007108Y003306D01*
X007156Y003285D01*
X007202Y003260D01*
X007246Y003232D01*
X007288Y003201D01*
X007328Y003167D01*
X007365Y003130D01*
X007399Y003090D01*
X007430Y003048D01*
X007458Y003004D01*
X007483Y002958D01*
X007504Y002910D01*
X007521Y002860D01*
X007534Y002810D01*
X007544Y002758D01*
X007550Y002706D01*
X007552Y002654D01*
X007550Y002602D01*
X007544Y002550D01*
X007534Y002498D01*
X007521Y002448D01*
X007504Y002398D01*
X007483Y002350D01*
X007458Y002304D01*
X007430Y002260D01*
X007399Y002218D01*
X007365Y002178D01*
X007328Y002141D01*
X007288Y002107D01*
X007246Y002076D01*
X007202Y002048D01*
X007156Y002023D01*
X007108Y002002D01*
X007058Y001985D01*
X007008Y001972D01*
X006956Y001962D01*
X006904Y001956D01*
X006852Y001954D01*
X006800Y001956D01*
X006748Y001962D01*
X006696Y001972D01*
X006646Y001985D01*
X006596Y002002D01*
X006548Y002023D01*
X006502Y002048D01*
X006458Y002076D01*
X006416Y002107D01*
X006376Y002141D01*
X006339Y002178D01*
X006305Y002218D01*
X006274Y002260D01*
X006246Y002304D01*
X006221Y002350D01*
X006200Y002398D01*
X006183Y002448D01*
X006170Y002498D01*
X006160Y002550D01*
X006154Y002602D01*
X006152Y002654D01*
X003952Y002250D02*
X003952Y003054D01*
X002689Y001325D02*
X002689Y000924D01*
X000585Y006694D02*
X000332Y006694D01*
X000585Y006694D02*
X000712Y006821D01*
X000585Y006948D01*
X000332Y006948D01*
X000332Y007118D02*
X000332Y007308D01*
X000395Y007371D01*
X000649Y007371D01*
X000712Y007308D01*
X000712Y007118D01*
X000332Y007118D01*
X000332Y007541D02*
X000332Y007668D01*
X000332Y007605D02*
X000712Y007605D01*
X000712Y007668D02*
X000712Y007541D01*
X000712Y007824D02*
X000332Y007824D01*
X000332Y008014D01*
X000395Y008077D01*
X000522Y008077D01*
X000585Y008014D01*
X000585Y007824D01*
X000458Y008247D02*
X000332Y008374D01*
X000712Y008374D01*
X000712Y008247D02*
X000712Y008501D01*
X000649Y009094D02*
X000332Y009094D01*
X000332Y009348D02*
X000649Y009348D01*
X000712Y009285D01*
X000712Y009158D01*
X000649Y009094D01*
X000649Y009518D02*
X000712Y009581D01*
X000712Y009708D01*
X000649Y009771D01*
X000585Y009771D01*
X000522Y009708D01*
X000522Y009581D01*
X000458Y009518D01*
X000395Y009518D01*
X000332Y009581D01*
X000332Y009708D01*
X000395Y009771D01*
X000332Y009941D02*
X000332Y010132D01*
X000395Y010195D01*
X000458Y010195D01*
X000522Y010132D01*
X000522Y009941D01*
X000712Y009941D02*
X000712Y010132D01*
X000649Y010195D01*
X000585Y010195D01*
X000522Y010132D01*
X000712Y009941D02*
X000332Y009941D01*
X000332Y010789D02*
X000712Y010789D01*
X000522Y010789D02*
X000522Y011042D01*
X000522Y011212D02*
X000458Y011276D01*
X000458Y011402D01*
X000522Y011466D01*
X000649Y011466D01*
X000712Y011402D01*
X000712Y011276D01*
X000649Y011212D01*
X000522Y011212D01*
X000332Y011042D02*
X000712Y011042D01*
X000712Y011636D02*
X000712Y011826D01*
X000649Y011889D01*
X000585Y011826D01*
X000585Y011699D01*
X000522Y011636D01*
X000458Y011699D01*
X000458Y011889D01*
X000458Y012059D02*
X000458Y012186D01*
X000395Y012123D02*
X000649Y012123D01*
X000712Y012186D01*
X000649Y012765D02*
X000712Y012829D01*
X000712Y012955D01*
X000649Y013019D01*
X000585Y013019D01*
X000522Y012955D01*
X000522Y012829D01*
X000458Y012765D01*
X000395Y012765D01*
X000332Y012829D01*
X000332Y012955D01*
X000395Y013019D01*
X000332Y013189D02*
X000712Y013189D01*
X000522Y013189D02*
X000458Y013252D01*
X000458Y013379D01*
X000522Y013442D01*
X000712Y013442D01*
X000712Y013612D02*
X000712Y013739D01*
X000712Y013676D02*
X000458Y013676D01*
X000458Y013612D01*
X000332Y013676D02*
X000268Y013676D01*
X000522Y013895D02*
X000458Y013958D01*
X000458Y014085D01*
X000522Y014148D01*
X000585Y014148D01*
X000585Y013895D01*
X000522Y013895D02*
X000649Y013895D01*
X000712Y013958D01*
X000712Y014085D01*
X000712Y014318D02*
X000712Y014445D01*
X000712Y014381D02*
X000332Y014381D01*
X000332Y014318D01*
X000522Y014600D02*
X000458Y014664D01*
X000458Y014854D01*
X000332Y014854D02*
X000712Y014854D01*
X000712Y014664D01*
X000649Y014600D01*
X000522Y014600D01*
X000458Y015448D02*
X000712Y015574D01*
X000458Y015701D01*
X000458Y015871D02*
X000332Y015998D01*
X000712Y015998D01*
X000712Y015871D02*
X000712Y016125D01*
X000712Y016295D02*
X000712Y016358D01*
X000649Y016358D01*
X000649Y016295D01*
X000712Y016295D01*
X000649Y016506D02*
X000395Y016506D01*
X000332Y016570D01*
X000332Y016697D01*
X000395Y016760D01*
X000649Y016506D01*
X000712Y016570D01*
X000712Y016697D01*
X000649Y016760D01*
X000395Y016760D01*
X004502Y012054D02*
X005002Y012054D01*
X005252Y011804D01*
X005502Y012054D01*
X006002Y012054D01*
X006252Y011804D01*
X006502Y012054D01*
X007002Y012054D01*
X007252Y011804D01*
X007502Y012054D01*
X008002Y012054D01*
X008252Y011804D01*
X008502Y012054D01*
X009002Y012054D01*
X009252Y011804D01*
X009502Y012054D01*
X010002Y012054D01*
X010252Y011804D01*
X010502Y012054D01*
X011002Y012054D01*
X011252Y011804D01*
X011502Y012054D01*
X012002Y012054D01*
X012252Y011804D01*
X012502Y012054D01*
X013002Y012054D01*
X013252Y011804D01*
X013502Y012054D01*
X014002Y012054D01*
X014252Y011804D01*
X014502Y012054D01*
X015002Y012054D01*
X015252Y011804D01*
X015502Y012054D01*
X016002Y012054D01*
X016252Y011804D01*
X016252Y011304D01*
X016002Y011054D01*
X015502Y011054D01*
X015252Y011304D01*
X015002Y011054D01*
X014502Y011054D01*
X014252Y011304D01*
X014002Y011054D01*
X013502Y011054D01*
X013252Y011304D01*
X013002Y011054D01*
X012502Y011054D01*
X012252Y011304D01*
X012002Y011054D01*
X011502Y011054D01*
X011252Y011304D01*
X011002Y011054D01*
X010502Y011054D01*
X010252Y011304D01*
X010002Y011054D01*
X009502Y011054D01*
X009252Y011304D01*
X009002Y011054D01*
X008502Y011054D01*
X008252Y011304D01*
X008002Y011054D01*
X007502Y011054D01*
X007252Y011304D01*
X007002Y011054D01*
X006502Y011054D01*
X006252Y011304D01*
X006002Y011054D01*
X005502Y011054D01*
X005252Y011304D01*
X005002Y011054D01*
X004502Y011054D01*
X004252Y011304D01*
X004252Y011804D01*
X004502Y012054D01*
X010752Y016304D02*
X010752Y016804D01*
X011002Y017054D01*
X010752Y017304D01*
X010752Y017804D01*
X011002Y018054D01*
X011502Y018054D01*
X011752Y017804D01*
X012002Y018054D01*
X012502Y018054D01*
X012752Y017804D01*
X013002Y018054D01*
X013502Y018054D01*
X013752Y017804D01*
X014002Y018054D01*
X014502Y018054D01*
X014752Y017804D01*
X015002Y018054D01*
X015502Y018054D01*
X015752Y017804D01*
X016002Y018054D01*
X016502Y018054D01*
X016752Y017804D01*
X016752Y017304D01*
X016502Y017054D01*
X016002Y017054D01*
X015752Y017304D01*
X015502Y017054D01*
X015002Y017054D01*
X014752Y017304D01*
X014502Y017054D01*
X014002Y017054D01*
X013752Y017304D01*
X013502Y017054D01*
X013002Y017054D01*
X012752Y017304D01*
X012502Y017054D01*
X012002Y017054D01*
X011752Y017304D01*
X011502Y017054D01*
X011002Y017054D01*
X011502Y017054D01*
X011752Y016804D01*
X012002Y017054D01*
X012502Y017054D01*
X012752Y016804D01*
X013002Y017054D01*
X013502Y017054D01*
X013752Y016804D01*
X014002Y017054D01*
X014502Y017054D01*
X014752Y016804D01*
X015002Y017054D01*
X015502Y017054D01*
X015752Y016804D01*
X016002Y017054D01*
X016502Y017054D01*
X016752Y016804D01*
X016752Y016304D01*
X016502Y016054D01*
X016002Y016054D01*
X015752Y016304D01*
X015502Y016054D01*
X015002Y016054D01*
X014752Y016304D01*
X014502Y016054D01*
X014002Y016054D01*
X013752Y016304D01*
X013502Y016054D01*
X013002Y016054D01*
X012752Y016304D01*
X012502Y016054D01*
X012002Y016054D01*
X011752Y016304D01*
X011502Y016054D01*
X011002Y016054D01*
X010752Y016304D01*
X011342Y015645D02*
X011422Y015725D01*
X011582Y015725D01*
X011662Y015645D01*
X011582Y015485D02*
X011662Y015404D01*
X011662Y015324D01*
X011582Y015244D01*
X011422Y015244D01*
X011342Y015324D01*
X011422Y015485D02*
X011582Y015485D01*
X011422Y015485D02*
X011342Y015565D01*
X011342Y015645D01*
X011858Y015725D02*
X011858Y015244D01*
X011858Y015404D02*
X012098Y015404D01*
X012178Y015485D01*
X012178Y015645D01*
X012098Y015725D01*
X011858Y015725D01*
X012373Y015725D02*
X012533Y015725D01*
X012453Y015725D02*
X012453Y015244D01*
X012373Y015244D02*
X012533Y015244D01*
X013233Y015324D02*
X013313Y015244D01*
X013473Y015244D01*
X013553Y015324D01*
X013553Y015404D01*
X013473Y015485D01*
X013313Y015485D01*
X013233Y015565D01*
X013233Y015645D01*
X013313Y015725D01*
X013473Y015725D01*
X013553Y015645D01*
X013748Y015725D02*
X013748Y015244D01*
X014068Y015244D01*
X014264Y015244D02*
X014584Y015244D01*
X014779Y015244D02*
X015100Y015244D01*
X015295Y015324D02*
X015375Y015244D01*
X015535Y015244D01*
X015615Y015324D01*
X015615Y015645D02*
X015535Y015725D01*
X015375Y015725D01*
X015295Y015645D01*
X015295Y015324D01*
X014940Y015485D02*
X014779Y015485D01*
X014779Y015725D02*
X014779Y015244D01*
X014264Y015244D02*
X014264Y015725D01*
X014068Y015725D02*
X013748Y015725D01*
X013748Y015485D02*
X013908Y015485D01*
X014779Y015725D02*
X015100Y015725D01*
X015811Y015725D02*
X016131Y015725D01*
X015971Y015725D02*
X015971Y015244D01*
X016002Y020054D02*
X015502Y020054D01*
X015252Y020304D01*
X015002Y020054D01*
X014502Y020054D01*
X014252Y020304D01*
X014252Y020804D01*
X014502Y021054D01*
X015002Y021054D01*
X015252Y020804D01*
X015502Y021054D01*
X016002Y021054D01*
X016252Y020804D01*
X016502Y021054D01*
X017002Y021054D01*
X017252Y020804D01*
X017502Y021054D01*
X018002Y021054D01*
X018252Y020804D01*
X018502Y021054D01*
X019002Y021054D01*
X019252Y020804D01*
X019502Y021054D01*
X020002Y021054D01*
X020252Y020804D01*
X020502Y021054D01*
X021002Y021054D01*
X021252Y020804D01*
X021502Y021054D01*
X022002Y021054D01*
X022252Y020804D01*
X022252Y020304D01*
X022002Y020054D01*
X021502Y020054D01*
X021252Y020304D01*
X021002Y020054D01*
X020502Y020054D01*
X020252Y020304D01*
X020002Y020054D01*
X019502Y020054D01*
X019252Y020304D01*
X019002Y020054D01*
X018502Y020054D01*
X018252Y020304D01*
X018002Y020054D01*
X017502Y020054D01*
X017252Y020304D01*
X017002Y020054D01*
X016502Y020054D01*
X016252Y020304D01*
X016002Y020054D01*
X013652Y020304D02*
X013402Y020054D01*
X012902Y020054D01*
X012652Y020304D01*
X012402Y020054D01*
X011902Y020054D01*
X011652Y020304D01*
X011402Y020054D01*
X010902Y020054D01*
X010652Y020304D01*
X010402Y020054D01*
X009902Y020054D01*
X009652Y020304D01*
X009402Y020054D01*
X008902Y020054D01*
X008652Y020304D01*
X008402Y020054D01*
X007902Y020054D01*
X007652Y020304D01*
X007402Y020054D01*
X006902Y020054D01*
X006652Y020304D01*
X006402Y020054D01*
X005902Y020054D01*
X005652Y020304D01*
X005652Y020804D01*
X005902Y021054D01*
X006402Y021054D01*
X006652Y020804D01*
X006902Y021054D01*
X007402Y021054D01*
X007652Y020804D01*
X007902Y021054D01*
X008402Y021054D01*
X008652Y020804D01*
X008902Y021054D01*
X009402Y021054D01*
X009652Y020804D01*
X009902Y021054D01*
X010402Y021054D01*
X010652Y020804D01*
X010902Y021054D01*
X011402Y021054D01*
X011652Y020804D01*
X011902Y021054D01*
X012402Y021054D01*
X012652Y020804D01*
X012902Y021054D01*
X013402Y021054D01*
X013652Y020804D01*
X013652Y020304D01*
X023092Y012734D02*
X023162Y012804D01*
X023372Y012804D01*
X023372Y012664D02*
X023162Y012664D01*
X023092Y012734D01*
X023162Y012664D02*
X023092Y012594D01*
X023092Y012524D01*
X023372Y012524D01*
X023302Y012343D02*
X023162Y012343D01*
X023092Y012273D01*
X023092Y012133D01*
X023162Y012063D01*
X023302Y012063D01*
X023372Y012133D01*
X023372Y012273D01*
X023302Y012343D01*
X023372Y011883D02*
X023372Y011673D01*
X023302Y011603D01*
X023162Y011603D01*
X023092Y011673D01*
X023092Y011883D01*
X023302Y011443D02*
X023372Y011443D01*
X023372Y011373D01*
X023302Y011373D01*
X023302Y011443D01*
X023302Y011193D02*
X023162Y011193D01*
X023092Y011122D01*
X023092Y010982D01*
X023162Y010912D01*
X023302Y010912D01*
X023372Y010982D01*
X023372Y011122D01*
X023302Y011193D01*
X023372Y010732D02*
X023162Y010732D01*
X023092Y010662D01*
X023092Y010452D01*
X023372Y010452D01*
X023372Y010285D02*
X023372Y010145D01*
X023372Y010215D02*
X023092Y010215D01*
X023092Y010145D01*
X022952Y010215D02*
X022882Y010215D01*
X023092Y009965D02*
X023372Y009965D01*
X023372Y009755D01*
X023302Y009685D01*
X023092Y009685D01*
X023092Y009505D02*
X023092Y009294D01*
X023162Y009224D01*
X023302Y009224D01*
X023372Y009294D01*
X023372Y009505D01*
X022952Y009505D01*
X023092Y009051D02*
X023092Y008981D01*
X023232Y008841D01*
X023372Y008841D02*
X023092Y008841D01*
X023162Y008661D02*
X023372Y008661D01*
X023372Y008450D01*
X023302Y008380D01*
X023232Y008450D01*
X023232Y008661D01*
X023162Y008661D02*
X023092Y008591D01*
X023092Y008450D01*
X023372Y008214D02*
X023372Y008074D01*
X023372Y008144D02*
X022952Y008144D01*
X022952Y008074D01*
X023162Y007893D02*
X023372Y007893D01*
X023372Y007683D01*
X023302Y007613D01*
X023232Y007683D01*
X023232Y007893D01*
X023162Y007893D02*
X023092Y007823D01*
X023092Y007683D01*
X023092Y007433D02*
X023092Y007223D01*
X023162Y007153D01*
X023302Y007153D01*
X023372Y007223D01*
X023372Y007433D01*
X023372Y006986D02*
X023372Y006846D01*
X023372Y006916D02*
X023092Y006916D01*
X023092Y006846D01*
X022952Y006916D02*
X022882Y006916D01*
X023092Y006679D02*
X023092Y006539D01*
X023022Y006609D02*
X023302Y006609D01*
X023372Y006679D01*
X023372Y006359D02*
X023372Y006149D01*
X023302Y006079D01*
X023162Y006079D01*
X023092Y006149D01*
X023092Y006359D01*
X023162Y005899D02*
X023372Y005899D01*
X023372Y005688D01*
X023302Y005618D01*
X023232Y005688D01*
X023232Y005899D01*
X023162Y005899D02*
X023092Y005828D01*
X023092Y005688D01*
X023092Y005445D02*
X023092Y005375D01*
X023232Y005235D01*
X023372Y005235D02*
X023092Y005235D01*
X023162Y005055D02*
X023302Y005055D01*
X023372Y004984D01*
X023372Y004774D01*
X023512Y004774D02*
X023092Y004774D01*
X023092Y004984D01*
X023162Y005055D01*
X022123Y003815D02*
X021913Y003815D01*
X021913Y003394D01*
X021913Y003534D02*
X022123Y003534D01*
X022193Y003604D01*
X022193Y003745D01*
X022123Y003815D01*
X021733Y003815D02*
X021733Y003394D01*
X021592Y003534D01*
X021452Y003394D01*
X021452Y003815D01*
X021272Y003745D02*
X021272Y003604D01*
X021202Y003534D01*
X020992Y003534D01*
X020992Y003394D02*
X020992Y003815D01*
X021202Y003815D01*
X021272Y003745D01*
X022053Y003534D02*
X022193Y003394D01*
X022002Y002054D02*
X021502Y002054D01*
X021252Y001804D01*
X021002Y002054D01*
X020502Y002054D01*
X020252Y001804D01*
X020002Y002054D01*
X019502Y002054D01*
X019252Y001804D01*
X019002Y002054D01*
X018502Y002054D01*
X018252Y001804D01*
X018002Y002054D01*
X017502Y002054D01*
X017252Y001804D01*
X017002Y002054D01*
X016502Y002054D01*
X016252Y001804D01*
X016252Y001304D01*
X016502Y001054D01*
X017002Y001054D01*
X017252Y001304D01*
X017502Y001054D01*
X018002Y001054D01*
X018252Y001304D01*
X018502Y001054D01*
X019002Y001054D01*
X019252Y001304D01*
X019502Y001054D01*
X020002Y001054D01*
X020252Y001304D01*
X020502Y001054D01*
X021002Y001054D01*
X021252Y001304D01*
X021502Y001054D01*
X022002Y001054D01*
X022252Y001304D01*
X022252Y001804D01*
X022002Y002054D01*
D11*
X022482Y002574D02*
X022432Y002624D01*
X022432Y004174D01*
X022482Y004224D01*
X022482Y002624D01*
X023532Y002624D01*
X023532Y002574D01*
X022532Y002574D01*
X022532Y003024D01*
X022532Y003174D01*
X022532Y003224D01*
X022582Y003274D01*
X022532Y003274D01*
X022532Y003324D01*
X022632Y003324D01*
X022582Y003274D01*
X022632Y003274D02*
X022532Y003174D01*
X022532Y003224D02*
X022532Y003274D01*
X022532Y003324D02*
X022632Y003274D01*
X022632Y003324D01*
X022682Y003324D01*
X022632Y003274D01*
X022532Y003374D01*
X022682Y003324D01*
X022532Y003424D01*
X022782Y003324D01*
X022532Y003474D01*
X022882Y003324D01*
X022982Y003324D02*
X023532Y003074D01*
X023032Y003274D01*
X023532Y003024D01*
X023082Y003224D01*
X023432Y003024D01*
X023132Y003174D01*
X023332Y003024D01*
X023132Y003124D01*
X023232Y003024D01*
X023132Y003024D01*
X023132Y003074D01*
X023232Y003024D01*
X023332Y003024D01*
X023432Y003024D01*
X023532Y003024D01*
X023532Y002974D01*
X023132Y002974D01*
X023132Y003024D01*
X023132Y002974D02*
X023132Y002924D01*
X023532Y002924D01*
X023532Y002624D01*
X023532Y002574D02*
X023532Y002524D01*
X023582Y002574D01*
X023582Y004224D01*
X023632Y004224D01*
X023632Y002624D01*
X023582Y002574D01*
X023532Y002524D02*
X022532Y002524D01*
X022532Y002574D01*
X022532Y002524D02*
X022482Y002574D01*
X022482Y002624D01*
X022782Y002924D02*
X022782Y002974D01*
X022832Y002974D01*
X022882Y002974D02*
X022880Y002987D01*
X022875Y002999D01*
X022867Y003009D01*
X022857Y003017D01*
X022845Y003022D01*
X022832Y003024D01*
X022819Y003022D01*
X022807Y003017D01*
X022797Y003009D01*
X022789Y002999D01*
X022784Y002987D01*
X022782Y002974D01*
X022782Y002924D02*
X022832Y002924D01*
X022832Y002974D01*
X022882Y002974D01*
X022882Y002924D01*
X022832Y002924D01*
X023132Y003024D02*
X023130Y003058D01*
X023124Y003091D01*
X023115Y003123D01*
X023102Y003154D01*
X023086Y003184D01*
X023067Y003211D01*
X023044Y003236D01*
X023019Y003259D01*
X022992Y003278D01*
X022962Y003294D01*
X022931Y003307D01*
X022899Y003316D01*
X022866Y003322D01*
X022832Y003324D01*
X022798Y003322D01*
X022765Y003316D01*
X022733Y003307D01*
X022702Y003294D01*
X022672Y003278D01*
X022645Y003259D01*
X022620Y003236D01*
X022597Y003211D01*
X022578Y003184D01*
X022562Y003154D01*
X022549Y003123D01*
X022540Y003091D01*
X022534Y003058D01*
X022532Y003024D01*
X022532Y003324D02*
X022532Y003374D01*
X022532Y003424D01*
X022532Y003474D01*
X023532Y003174D01*
X023532Y003124D01*
X022982Y003324D01*
X023007Y003674D02*
X022832Y003724D01*
X023007Y003774D01*
X023007Y003674D01*
X022982Y003724D02*
X022882Y003724D01*
X022532Y003574D02*
X022532Y003524D01*
X022532Y003474D01*
X022532Y003524D02*
X023532Y003224D01*
X022532Y003574D01*
X022532Y003874D01*
X023532Y004224D01*
X023382Y004174D01*
X023382Y004224D01*
X023382Y004274D01*
X023382Y004324D01*
X022532Y004124D01*
X022582Y004124D01*
X022582Y004224D01*
X022632Y004224D01*
X022632Y004124D01*
X022682Y004124D01*
X022682Y004224D01*
X022732Y004224D01*
X022732Y004274D01*
X022782Y004324D01*
X022832Y004374D01*
X022832Y004174D01*
X022882Y004174D01*
X022882Y004374D01*
X022932Y004374D01*
X022932Y004174D01*
X022982Y004174D01*
X022982Y004374D01*
X023032Y004374D01*
X023032Y004224D01*
X023082Y004224D01*
X023082Y004374D01*
X023132Y004374D01*
X023132Y004274D01*
X023182Y004274D01*
X023182Y004374D01*
X023232Y004374D01*
X023232Y004274D01*
X023282Y004274D01*
X023282Y004374D01*
X023332Y004374D01*
X023332Y004274D01*
X023382Y004274D01*
X022532Y004024D01*
X022532Y004074D01*
X023382Y004324D01*
X023382Y004374D01*
X023432Y004324D01*
X023432Y004224D01*
X023482Y004224D01*
X023332Y004224D01*
X023382Y004224D02*
X022532Y003974D01*
X022532Y004024D01*
X022532Y003974D02*
X022532Y003924D01*
X023532Y004224D01*
X023532Y003924D01*
X023232Y003824D01*
X023532Y003724D01*
X023532Y003774D01*
X023282Y003824D01*
X023332Y003824D01*
X023532Y003874D01*
X023532Y003824D01*
X023332Y003824D01*
X023232Y003824D02*
X023232Y003774D01*
X023532Y003674D01*
X023532Y003624D01*
X023232Y003724D01*
X023232Y003674D01*
X023532Y003574D01*
X023532Y003524D01*
X023232Y003624D01*
X023232Y003674D01*
X023232Y003724D02*
X023232Y003774D01*
X023532Y003774D02*
X023532Y003824D01*
X023532Y003874D02*
X023532Y003924D01*
X023532Y003724D02*
X023532Y003674D01*
X023532Y003624D02*
X023532Y003574D01*
X023532Y003524D02*
X023532Y003224D01*
X023532Y003174D01*
X023532Y003124D02*
X023532Y003074D01*
X023532Y003024D01*
X023532Y002974D02*
X023532Y002924D01*
X022532Y003874D02*
X022532Y003924D01*
X022532Y004074D02*
X022532Y004124D01*
X022532Y004224D01*
X022582Y004224D01*
X022632Y004224D02*
X022682Y004224D01*
X022732Y004274D01*
X022732Y004224D02*
X022732Y004174D01*
X022782Y004174D01*
X022782Y004324D01*
X022832Y004374D02*
X022882Y004374D01*
X022932Y004374D02*
X022982Y004374D01*
X023032Y004374D02*
X023082Y004374D01*
X023132Y004374D02*
X023182Y004374D01*
X023232Y004374D02*
X023282Y004374D01*
X023332Y004374D02*
X023382Y004374D01*
X023432Y004324D02*
X023482Y004274D01*
X023482Y004224D01*
X023532Y004224D02*
X023582Y004224D01*
X023532Y004224D02*
X023482Y004274D01*
X022532Y004224D02*
X022482Y004224D01*
X020546Y004204D02*
X020546Y004024D01*
X020501Y003979D01*
X020366Y003979D01*
X020366Y004250D01*
X020501Y004250D01*
X020546Y004204D01*
X020252Y004250D02*
X020072Y004250D01*
X020072Y003979D01*
X020252Y003979D01*
X020162Y004114D02*
X020072Y004114D01*
X019957Y003979D02*
X019777Y003979D01*
X019777Y004250D01*
X020052Y003754D02*
X020052Y003354D01*
X020252Y003554D01*
X020052Y003754D01*
X020252Y003754D02*
X020252Y003354D01*
X017552Y003979D02*
X017417Y004114D01*
X017372Y004069D02*
X017552Y004250D01*
X017372Y004250D02*
X017372Y003979D01*
X017257Y003979D02*
X017077Y003979D01*
X017167Y003979D02*
X017167Y004250D01*
X017077Y004159D01*
X015098Y002850D02*
X015098Y002579D01*
X014918Y002850D01*
X014918Y002579D01*
X014812Y002579D02*
X014722Y002579D01*
X014767Y002579D02*
X014767Y002850D01*
X014722Y002850D02*
X014812Y002850D01*
X014607Y002850D02*
X014607Y002669D01*
X014517Y002579D01*
X014427Y002669D01*
X014427Y002850D01*
X014101Y002500D02*
X014146Y002454D01*
X014146Y002274D01*
X014101Y002229D01*
X013966Y002229D01*
X013966Y002500D01*
X014101Y002500D01*
X013852Y002500D02*
X013852Y002229D01*
X013672Y002500D01*
X013672Y002229D01*
X013557Y002274D02*
X013557Y002364D01*
X013467Y002364D01*
X013377Y002274D02*
X013422Y002229D01*
X013512Y002229D01*
X013557Y002274D01*
X013377Y002274D02*
X013377Y002454D01*
X013422Y002500D01*
X013512Y002500D01*
X013557Y002454D01*
X013146Y002624D02*
X013146Y002804D01*
X013101Y002850D01*
X012966Y002850D01*
X012966Y002579D01*
X013101Y002579D01*
X013146Y002624D01*
X012852Y002579D02*
X012852Y002850D01*
X012672Y002850D02*
X012672Y002579D01*
X012557Y002624D02*
X012557Y002714D01*
X012467Y002714D01*
X012377Y002624D02*
X012422Y002579D01*
X012512Y002579D01*
X012557Y002624D01*
X012377Y002624D02*
X012377Y002804D01*
X012422Y002850D01*
X012512Y002850D01*
X012557Y002804D01*
X012672Y002850D02*
X012852Y002579D01*
X012002Y002500D02*
X012002Y002319D01*
X011912Y002229D01*
X011822Y002319D01*
X011822Y002500D01*
X011707Y002500D02*
X011527Y002500D01*
X011527Y002364D01*
X011617Y002409D01*
X011662Y002409D01*
X011707Y002364D01*
X011707Y002274D01*
X011662Y002229D01*
X011572Y002229D01*
X011527Y002274D01*
X011146Y002624D02*
X011146Y002669D01*
X011101Y002714D01*
X011056Y002714D01*
X011101Y002714D02*
X011146Y002759D01*
X011146Y002804D01*
X011101Y002850D01*
X011011Y002850D01*
X010966Y002804D01*
X010852Y002850D02*
X010852Y002669D01*
X010762Y002579D01*
X010672Y002669D01*
X010672Y002850D01*
X010557Y002804D02*
X010557Y002759D01*
X010512Y002714D01*
X010557Y002669D01*
X010557Y002624D01*
X010512Y002579D01*
X010422Y002579D01*
X010377Y002624D01*
X010467Y002714D02*
X010512Y002714D01*
X010557Y002804D02*
X010512Y002850D01*
X010422Y002850D01*
X010377Y002804D01*
X010146Y002500D02*
X009966Y002500D01*
X010056Y002500D02*
X010056Y002229D01*
X009852Y002274D02*
X009807Y002229D01*
X009717Y002229D01*
X009672Y002274D01*
X009717Y002364D02*
X009807Y002364D01*
X009852Y002319D01*
X009852Y002274D01*
X009717Y002364D02*
X009672Y002409D01*
X009672Y002454D01*
X009717Y002500D01*
X009807Y002500D01*
X009852Y002454D01*
X009557Y002454D02*
X009557Y002364D01*
X009512Y002319D01*
X009377Y002319D01*
X009377Y002229D02*
X009377Y002500D01*
X009512Y002500D01*
X009557Y002454D01*
X009467Y002319D02*
X009557Y002229D01*
X010966Y002624D02*
X011011Y002579D01*
X011101Y002579D01*
X011146Y002624D01*
X011117Y003979D02*
X011072Y004024D01*
X011252Y004204D01*
X011252Y004024D01*
X011207Y003979D01*
X011117Y003979D01*
X011072Y004024D02*
X011072Y004204D01*
X011117Y004250D01*
X011207Y004250D01*
X011252Y004204D01*
X011366Y004204D02*
X011411Y004250D01*
X011501Y004250D01*
X011546Y004204D01*
X011366Y004024D01*
X011411Y003979D01*
X011501Y003979D01*
X011546Y004024D01*
X011546Y004204D01*
X011661Y004159D02*
X011796Y004159D01*
X011841Y004114D01*
X011841Y003979D01*
X011956Y003979D02*
X011956Y004250D01*
X012136Y004250D01*
X012046Y004114D02*
X011956Y004114D01*
X011661Y004159D02*
X011661Y003979D01*
X011366Y004024D02*
X011366Y004204D01*
X010957Y003979D02*
X010777Y003979D01*
X010867Y003979D02*
X010867Y004250D01*
X010777Y004159D01*
X009832Y006229D02*
X009652Y006229D01*
X009607Y006274D01*
X009607Y006364D01*
X009652Y006409D01*
X009742Y006409D02*
X009742Y006319D01*
X009742Y006409D02*
X009832Y006409D01*
X009877Y006364D01*
X009877Y006274D01*
X009832Y006229D01*
X009877Y006524D02*
X009607Y006524D01*
X009877Y006704D01*
X009607Y006704D01*
X009607Y006819D02*
X009607Y006954D01*
X009652Y006999D01*
X009832Y006999D01*
X009877Y006954D01*
X009877Y006819D01*
X009607Y006819D01*
X009622Y007429D02*
X009622Y007474D01*
X009802Y007654D01*
X009802Y007700D01*
X009622Y007700D01*
X009462Y007700D02*
X009462Y007429D01*
X009507Y007564D02*
X009327Y007564D01*
X009462Y007700D01*
X009916Y007700D02*
X009916Y007429D01*
X009916Y007519D02*
X010051Y007519D01*
X010096Y007564D01*
X010096Y007654D01*
X010051Y007700D01*
X009916Y007700D01*
X010211Y007700D02*
X010211Y007429D01*
X010211Y007564D02*
X010301Y007564D01*
X010211Y007700D02*
X010391Y007700D01*
X012327Y007564D02*
X012507Y007564D01*
X012462Y007429D02*
X012462Y007700D01*
X012327Y007564D01*
X012622Y007474D02*
X012622Y007429D01*
X012622Y007474D02*
X012802Y007654D01*
X012802Y007700D01*
X012622Y007700D01*
X012916Y007700D02*
X012916Y007429D01*
X012916Y007519D02*
X013051Y007519D01*
X013096Y007564D01*
X013096Y007654D01*
X013051Y007700D01*
X012916Y007700D01*
X013211Y007700D02*
X013211Y007429D01*
X013211Y007564D02*
X013301Y007564D01*
X013211Y007700D02*
X013391Y007700D01*
X013607Y007588D02*
X013607Y007408D01*
X013607Y007498D02*
X013877Y007498D01*
X013877Y007293D02*
X013877Y007113D01*
X013607Y007113D01*
X013607Y007293D01*
X013742Y007203D02*
X013742Y007113D01*
X013787Y006999D02*
X013832Y006999D01*
X013877Y006954D01*
X013877Y006864D01*
X013832Y006819D01*
X013742Y006864D02*
X013697Y006819D01*
X013652Y006819D01*
X013607Y006864D01*
X013607Y006954D01*
X013652Y006999D01*
X013742Y006954D02*
X013787Y006999D01*
X013742Y006954D02*
X013742Y006864D01*
X013877Y006704D02*
X013877Y006524D01*
X013607Y006524D01*
X013607Y006704D01*
X013742Y006614D02*
X013742Y006524D01*
X013742Y006409D02*
X013652Y006409D01*
X013607Y006364D01*
X013607Y006229D01*
X013877Y006229D01*
X013787Y006229D02*
X013787Y006364D01*
X013742Y006409D01*
X013787Y006319D02*
X013877Y006409D01*
X014607Y006364D02*
X014652Y006409D01*
X014742Y006409D01*
X014787Y006364D01*
X014787Y006229D01*
X014877Y006229D02*
X014607Y006229D01*
X014607Y006364D01*
X014607Y006524D02*
X014607Y006659D01*
X014652Y006704D01*
X014742Y006704D01*
X014787Y006659D01*
X014787Y006524D01*
X014877Y006524D02*
X014607Y006524D01*
X014787Y006614D02*
X014877Y006704D01*
X014832Y006819D02*
X014877Y006864D01*
X014877Y006954D01*
X014832Y006999D01*
X014652Y006999D01*
X014607Y006954D01*
X014607Y006864D01*
X014652Y006819D01*
X014832Y006819D01*
X014832Y007113D02*
X014877Y007158D01*
X014877Y007248D01*
X014832Y007293D01*
X014742Y007293D01*
X014742Y007203D01*
X014652Y007113D02*
X014832Y007113D01*
X014652Y007113D02*
X014607Y007158D01*
X014607Y007248D01*
X014652Y007293D01*
X015327Y007429D02*
X015507Y007429D01*
X015417Y007429D02*
X015417Y007700D01*
X015327Y007609D01*
X015622Y007654D02*
X015622Y007474D01*
X015802Y007654D01*
X015802Y007474D01*
X015757Y007429D01*
X015667Y007429D01*
X015622Y007474D01*
X015622Y007654D02*
X015667Y007700D01*
X015757Y007700D01*
X015802Y007654D01*
X015916Y007700D02*
X015916Y007429D01*
X015916Y007519D02*
X016096Y007700D01*
X015961Y007564D02*
X016096Y007429D01*
X018327Y007429D02*
X018507Y007429D01*
X018417Y007429D02*
X018417Y007700D01*
X018327Y007609D01*
X018622Y007654D02*
X018622Y007474D01*
X018802Y007654D01*
X018802Y007474D01*
X018757Y007429D01*
X018667Y007429D01*
X018622Y007474D01*
X018622Y007654D02*
X018667Y007700D01*
X018757Y007700D01*
X018802Y007654D01*
X018916Y007654D02*
X018961Y007700D01*
X019051Y007700D01*
X019096Y007654D01*
X018916Y007474D01*
X018961Y007429D01*
X019051Y007429D01*
X019096Y007474D01*
X019096Y007654D01*
X019211Y007700D02*
X019211Y007429D01*
X019211Y007519D02*
X019391Y007700D01*
X019256Y007564D02*
X019391Y007429D01*
X018916Y007474D02*
X018916Y007654D01*
X015897Y010385D02*
X015852Y010340D01*
X015897Y010385D02*
X015897Y010475D01*
X015852Y010520D01*
X015762Y010520D01*
X015717Y010475D01*
X015717Y010430D01*
X015762Y010340D01*
X015627Y010340D01*
X015627Y010520D01*
X015627Y010635D02*
X015807Y010635D01*
X015897Y010725D01*
X015807Y010815D01*
X015627Y010815D01*
X012897Y010520D02*
X012897Y010340D01*
X012897Y010430D02*
X012627Y010430D01*
X012717Y010340D01*
X012717Y010226D02*
X012762Y010180D01*
X012762Y010045D01*
X012807Y009931D02*
X012852Y009931D01*
X012897Y009886D01*
X012897Y009796D01*
X012852Y009751D01*
X012762Y009796D02*
X012762Y009886D01*
X012807Y009931D01*
X012672Y009931D02*
X012627Y009886D01*
X012627Y009796D01*
X012672Y009751D01*
X012717Y009751D01*
X012762Y009796D01*
X012852Y009636D02*
X012627Y009636D01*
X012627Y009456D02*
X012852Y009456D01*
X012897Y009501D01*
X012897Y009591D01*
X012852Y009636D01*
X012897Y010045D02*
X012627Y010045D01*
X012627Y010180D01*
X012672Y010226D01*
X012717Y010226D01*
X012762Y010180D02*
X012807Y010226D01*
X012852Y010226D01*
X012897Y010180D01*
X012897Y010045D01*
X012762Y010635D02*
X012762Y010815D01*
X012672Y010725D02*
X012852Y010725D01*
X011897Y010520D02*
X011897Y010340D01*
X011897Y010430D02*
X011627Y010430D01*
X011717Y010340D01*
X011717Y010226D02*
X011762Y010180D01*
X011762Y010045D01*
X011807Y009931D02*
X011852Y009931D01*
X011897Y009886D01*
X011897Y009796D01*
X011852Y009751D01*
X011762Y009796D02*
X011762Y009886D01*
X011807Y009931D01*
X011672Y009931D02*
X011627Y009886D01*
X011627Y009796D01*
X011672Y009751D01*
X011717Y009751D01*
X011762Y009796D01*
X011852Y009636D02*
X011627Y009636D01*
X011627Y009456D02*
X011852Y009456D01*
X011897Y009501D01*
X011897Y009591D01*
X011852Y009636D01*
X011897Y010045D02*
X011627Y010045D01*
X011627Y010180D01*
X011672Y010226D01*
X011717Y010226D01*
X011762Y010180D02*
X011807Y010226D01*
X011852Y010226D01*
X011897Y010180D01*
X011897Y010045D01*
X011762Y010635D02*
X011762Y010815D01*
X010897Y010815D02*
X010762Y010680D01*
X010807Y010635D02*
X010627Y010815D01*
X010627Y010635D02*
X010897Y010635D01*
X010897Y010520D02*
X010897Y010340D01*
X010627Y010340D01*
X010672Y010226D02*
X010627Y010180D01*
X010627Y010090D01*
X010672Y010045D01*
X010852Y010045D01*
X010897Y010090D01*
X010897Y010180D01*
X010852Y010226D01*
X009897Y010180D02*
X009897Y010090D01*
X009852Y010045D01*
X009672Y010045D01*
X009627Y010090D01*
X009627Y010180D01*
X009672Y010226D01*
X009762Y010226D02*
X009762Y010135D01*
X009762Y010226D02*
X009852Y010226D01*
X009897Y010180D01*
X009897Y010340D02*
X009627Y010340D01*
X009897Y010520D01*
X009627Y010520D01*
X009627Y010635D02*
X009627Y010770D01*
X009672Y010815D01*
X009852Y010815D01*
X009897Y010770D01*
X009897Y010635D01*
X009627Y010635D01*
X008897Y010573D02*
X008897Y010483D01*
X008852Y010438D01*
X008762Y010483D02*
X008762Y010573D01*
X008807Y010618D01*
X008852Y010618D01*
X008897Y010573D01*
X008897Y010733D02*
X008897Y010823D01*
X008897Y010778D02*
X008627Y010778D01*
X008627Y010733D02*
X008627Y010823D01*
X008672Y010618D02*
X008627Y010573D01*
X008627Y010483D01*
X008672Y010438D01*
X008717Y010438D01*
X008762Y010483D01*
X008852Y010324D02*
X008672Y010324D01*
X008627Y010279D01*
X008627Y010189D01*
X008672Y010144D01*
X008852Y010144D01*
X008897Y010189D01*
X008897Y010279D01*
X008852Y010324D01*
X008897Y010029D02*
X008627Y010029D01*
X008717Y009939D01*
X008627Y009849D01*
X008897Y009849D01*
X007897Y009849D02*
X007627Y009849D01*
X007717Y009939D01*
X007627Y010029D01*
X007897Y010029D01*
X007897Y010144D02*
X007897Y010234D01*
X007897Y010189D02*
X007627Y010189D01*
X007627Y010144D02*
X007627Y010234D01*
X007672Y010340D02*
X007717Y010340D01*
X007762Y010385D01*
X007762Y010475D01*
X007807Y010520D01*
X007852Y010520D01*
X007897Y010475D01*
X007897Y010385D01*
X007852Y010340D01*
X007672Y010340D02*
X007627Y010385D01*
X007627Y010475D01*
X007672Y010520D01*
X007672Y010635D02*
X007852Y010635D01*
X007897Y010680D01*
X007897Y010770D01*
X007852Y010815D01*
X007672Y010815D01*
X007627Y010770D01*
X007627Y010680D01*
X007672Y010635D01*
X006897Y010680D02*
X006852Y010635D01*
X006897Y010680D02*
X006897Y010770D01*
X006852Y010815D01*
X006807Y010815D01*
X006762Y010770D01*
X006762Y010680D01*
X006717Y010635D01*
X006672Y010635D01*
X006627Y010680D01*
X006627Y010770D01*
X006672Y010815D01*
X006672Y010520D02*
X006627Y010475D01*
X006627Y010385D01*
X006672Y010340D01*
X006852Y010340D01*
X006897Y010385D01*
X006897Y010475D01*
X006852Y010520D01*
X006916Y007700D02*
X006916Y007429D01*
X006916Y007519D02*
X007096Y007700D01*
X006961Y007564D02*
X007096Y007429D01*
X006802Y007474D02*
X006757Y007429D01*
X006667Y007429D01*
X006622Y007474D01*
X006802Y007654D01*
X006802Y007474D01*
X006622Y007474D02*
X006622Y007654D01*
X006667Y007700D01*
X006757Y007700D01*
X006802Y007654D01*
X006507Y007429D02*
X006327Y007429D01*
X006417Y007429D02*
X006417Y007700D01*
X006327Y007609D01*
X018292Y013494D02*
X018292Y018614D01*
X018297Y018639D02*
X023802Y018639D01*
X023802Y018604D02*
X023802Y013504D01*
X023802Y013469D02*
X018297Y013469D01*
X020752Y014054D02*
X023252Y014304D01*
X023252Y015554D01*
X020752Y015804D01*
X020752Y016304D02*
X023252Y016554D01*
X023252Y017804D01*
X020752Y018054D01*
X011546Y019624D02*
X011501Y019579D01*
X011411Y019579D01*
X011366Y019624D01*
X011546Y019804D01*
X011546Y019624D01*
X011366Y019624D02*
X011366Y019804D01*
X011411Y019850D01*
X011501Y019850D01*
X011546Y019804D01*
X011252Y019579D02*
X011072Y019579D01*
X011162Y019579D02*
X011162Y019850D01*
X011072Y019759D01*
X010957Y019804D02*
X010957Y019624D01*
X010912Y019579D01*
X010777Y019579D01*
X010777Y019850D01*
X010912Y019850D01*
X010957Y019804D01*
X010456Y019500D02*
X010366Y019409D01*
X010456Y019500D02*
X010456Y019229D01*
X010366Y019229D02*
X010546Y019229D01*
X010252Y019229D02*
X010072Y019229D01*
X010162Y019229D02*
X010162Y019500D01*
X010072Y019409D01*
X009957Y019454D02*
X009912Y019500D01*
X009777Y019500D01*
X009777Y019229D01*
X009912Y019229D01*
X009957Y019274D01*
X009957Y019454D01*
X009546Y019579D02*
X009366Y019579D01*
X009546Y019759D01*
X009546Y019804D01*
X009501Y019850D01*
X009411Y019850D01*
X009366Y019804D01*
X009162Y019850D02*
X009162Y019579D01*
X009072Y019579D02*
X009252Y019579D01*
X009072Y019759D02*
X009162Y019850D01*
X008957Y019804D02*
X008957Y019624D01*
X008912Y019579D01*
X008777Y019579D01*
X008777Y019850D01*
X008912Y019850D01*
X008957Y019804D01*
X008546Y019454D02*
X008546Y019409D01*
X008501Y019364D01*
X008546Y019319D01*
X008546Y019274D01*
X008501Y019229D01*
X008411Y019229D01*
X008366Y019274D01*
X008252Y019229D02*
X008072Y019229D01*
X008162Y019229D02*
X008162Y019500D01*
X008072Y019409D01*
X007957Y019454D02*
X007912Y019500D01*
X007777Y019500D01*
X007777Y019229D01*
X007912Y019229D01*
X007957Y019274D01*
X007957Y019454D01*
X008366Y019454D02*
X008411Y019500D01*
X008501Y019500D01*
X008546Y019454D01*
X008501Y019364D02*
X008456Y019364D01*
X007546Y019624D02*
X007546Y019804D01*
X007501Y019850D01*
X007366Y019850D01*
X007366Y019579D01*
X007501Y019579D01*
X007546Y019624D01*
X007252Y019579D02*
X007252Y019850D01*
X007072Y019850D02*
X007072Y019579D01*
X006957Y019624D02*
X006957Y019714D01*
X006867Y019714D01*
X006777Y019624D02*
X006822Y019579D01*
X006912Y019579D01*
X006957Y019624D01*
X006777Y019624D02*
X006777Y019804D01*
X006822Y019850D01*
X006912Y019850D01*
X006957Y019804D01*
X007072Y019850D02*
X007252Y019579D01*
X006546Y019500D02*
X006366Y019500D01*
X006366Y019229D01*
X006252Y019229D02*
X006072Y019229D01*
X006072Y019500D01*
X006252Y019500D01*
X006257Y019629D02*
X006257Y019809D01*
X006167Y019900D01*
X006077Y019809D01*
X006077Y019629D01*
X006077Y019764D02*
X006257Y019764D01*
X005957Y019454D02*
X005912Y019500D01*
X005777Y019500D01*
X005777Y019229D01*
X005777Y019319D02*
X005912Y019319D01*
X005957Y019364D01*
X005957Y019454D01*
X006072Y019364D02*
X006162Y019364D01*
X006366Y019364D02*
X006456Y019364D01*
X005957Y019229D02*
X005867Y019319D01*
D12*
X011837Y019239D02*
X012052Y019239D01*
X012124Y019311D01*
X012124Y019598D01*
X012052Y019670D01*
X011837Y019670D01*
X011837Y019239D01*
X012297Y019311D02*
X012369Y019239D01*
X012512Y019239D01*
X012584Y019311D01*
X012584Y019598D01*
X012512Y019670D01*
X012369Y019670D01*
X012297Y019598D01*
X012297Y019526D01*
X012369Y019454D01*
X012584Y019454D01*
X012837Y019439D02*
X013052Y019439D01*
X013124Y019511D01*
X013124Y019798D01*
X013052Y019870D01*
X012837Y019870D01*
X012837Y019439D01*
X013297Y019511D02*
X013369Y019439D01*
X013512Y019439D01*
X013584Y019511D01*
X013584Y019583D01*
X013512Y019654D01*
X013369Y019654D01*
X013297Y019726D01*
X013297Y019798D01*
X013369Y019870D01*
X013512Y019870D01*
X013584Y019798D01*
X013584Y019726D01*
X013512Y019654D01*
X013369Y019654D02*
X013297Y019583D01*
X013297Y019511D01*
X014387Y019670D02*
X014387Y019239D01*
X014602Y019239D01*
X014674Y019311D01*
X014674Y019598D01*
X014602Y019670D01*
X014387Y019670D01*
X014847Y019670D02*
X015134Y019670D01*
X015134Y019598D01*
X014847Y019311D01*
X014847Y019239D01*
X015387Y019439D02*
X015602Y019439D01*
X015674Y019511D01*
X015674Y019798D01*
X015602Y019870D01*
X015387Y019870D01*
X015387Y019439D01*
X015847Y019511D02*
X015919Y019439D01*
X016062Y019439D01*
X016134Y019511D01*
X016134Y019583D01*
X016062Y019654D01*
X015847Y019654D01*
X015847Y019511D01*
X015847Y019654D02*
X015991Y019798D01*
X016134Y019870D01*
X016387Y019670D02*
X016602Y019670D01*
X016674Y019598D01*
X016674Y019311D01*
X016602Y019239D01*
X016387Y019239D01*
X016387Y019670D01*
X016847Y019670D02*
X016847Y019454D01*
X016991Y019526D01*
X017062Y019526D01*
X017134Y019454D01*
X017134Y019311D01*
X017062Y019239D01*
X016919Y019239D01*
X016847Y019311D01*
X016847Y019670D02*
X017134Y019670D01*
X017387Y019870D02*
X017387Y019439D01*
X017602Y019439D01*
X017674Y019511D01*
X017674Y019798D01*
X017602Y019870D01*
X017387Y019870D01*
X017847Y019654D02*
X018134Y019654D01*
X018062Y019439D02*
X018062Y019870D01*
X017847Y019654D01*
X018387Y019670D02*
X018387Y019239D01*
X018602Y019239D01*
X018674Y019311D01*
X018674Y019598D01*
X018602Y019670D01*
X018387Y019670D01*
X018847Y019598D02*
X018919Y019670D01*
X019062Y019670D01*
X019134Y019598D01*
X019134Y019526D01*
X019062Y019454D01*
X019134Y019383D01*
X019134Y019311D01*
X019062Y019239D01*
X018919Y019239D01*
X018847Y019311D01*
X018991Y019454D02*
X019062Y019454D01*
X019387Y019439D02*
X019602Y019439D01*
X019674Y019511D01*
X019674Y019798D01*
X019602Y019870D01*
X019387Y019870D01*
X019387Y019439D01*
X019847Y019439D02*
X020134Y019726D01*
X020134Y019798D01*
X020062Y019870D01*
X019919Y019870D01*
X019847Y019798D01*
X019847Y019439D02*
X020134Y019439D01*
X020387Y019239D02*
X020387Y019670D01*
X020602Y019670D01*
X020674Y019598D01*
X020674Y019311D01*
X020602Y019239D01*
X020387Y019239D01*
X020847Y019239D02*
X021134Y019239D01*
X020991Y019239D02*
X020991Y019670D01*
X020847Y019526D01*
X021387Y019439D02*
X021602Y019439D01*
X021674Y019511D01*
X021674Y019798D01*
X021602Y019870D01*
X021387Y019870D01*
X021387Y019439D01*
X021847Y019511D02*
X021847Y019798D01*
X021919Y019870D01*
X022062Y019870D01*
X022134Y019798D01*
X021847Y019511D01*
X021919Y019439D01*
X022062Y019439D01*
X022134Y019511D01*
X022134Y019798D01*
X022134Y002870D02*
X021847Y002870D01*
X021847Y002654D01*
X021991Y002726D01*
X022062Y002726D01*
X022134Y002654D01*
X022134Y002511D01*
X022062Y002439D01*
X021919Y002439D01*
X021847Y002511D01*
X021674Y002439D02*
X021674Y002726D01*
X021530Y002870D01*
X021387Y002726D01*
X021387Y002439D01*
X021387Y002654D02*
X021674Y002654D01*
X021134Y002454D02*
X020847Y002454D01*
X021062Y002670D01*
X021062Y002239D01*
X020674Y002239D02*
X020674Y002526D01*
X020530Y002670D01*
X020387Y002526D01*
X020387Y002239D01*
X020387Y002454D02*
X020674Y002454D01*
X020134Y002511D02*
X020062Y002439D01*
X019919Y002439D01*
X019847Y002511D01*
X019674Y002439D02*
X019674Y002726D01*
X019530Y002870D01*
X019387Y002726D01*
X019387Y002439D01*
X019387Y002654D02*
X019674Y002654D01*
X019847Y002798D02*
X019919Y002870D01*
X020062Y002870D01*
X020134Y002798D01*
X020134Y002726D01*
X020062Y002654D01*
X020134Y002583D01*
X020134Y002511D01*
X020062Y002654D02*
X019991Y002654D01*
X019134Y002598D02*
X019062Y002670D01*
X018919Y002670D01*
X018847Y002598D01*
X018674Y002526D02*
X018674Y002239D01*
X018847Y002239D02*
X019134Y002526D01*
X019134Y002598D01*
X019134Y002239D02*
X018847Y002239D01*
X018674Y002454D02*
X018387Y002454D01*
X018387Y002526D02*
X018530Y002670D01*
X018674Y002526D01*
X018387Y002526D02*
X018387Y002239D01*
X018134Y002439D02*
X017847Y002439D01*
X017991Y002439D02*
X017991Y002870D01*
X017847Y002726D01*
X017674Y002726D02*
X017674Y002439D01*
X017674Y002654D02*
X017387Y002654D01*
X017387Y002726D02*
X017530Y002870D01*
X017674Y002726D01*
X017387Y002726D02*
X017387Y002439D01*
X017134Y002311D02*
X017062Y002239D01*
X016919Y002239D01*
X016847Y002311D01*
X017134Y002598D01*
X017134Y002311D01*
X016847Y002311D02*
X016847Y002598D01*
X016919Y002670D01*
X017062Y002670D01*
X017134Y002598D01*
X016674Y002526D02*
X016674Y002239D01*
X016674Y002454D02*
X016387Y002454D01*
X016387Y002526D02*
X016530Y002670D01*
X016674Y002526D01*
X016387Y002526D02*
X016387Y002239D01*
D13*
X014752Y002279D03*
X012752Y002279D03*
X010752Y002279D03*
D14*
X011752Y002104D03*
X013752Y002104D03*
X016752Y002104D03*
X018752Y002104D03*
X020752Y002104D03*
X009752Y002104D03*
X009152Y020004D03*
X011152Y020004D03*
X013152Y020004D03*
X015752Y020004D03*
X017752Y020004D03*
X019752Y020004D03*
X021752Y020004D03*
X007152Y020004D03*
X006152Y020004D03*
D15*
X008152Y019804D03*
X010152Y019804D03*
D16*
X012152Y019904D03*
X014752Y019904D03*
X016752Y019904D03*
X018752Y019904D03*
X020752Y019904D03*
X021752Y002204D03*
X019752Y002204D03*
X017752Y002204D03*
D17*
X016252Y018054D02*
X016252Y018554D01*
X016254Y018580D01*
X016259Y018606D01*
X016267Y018631D01*
X016279Y018654D01*
X016293Y018676D01*
X016311Y018695D01*
X016330Y018713D01*
X016352Y018727D01*
X016375Y018739D01*
X016400Y018747D01*
X016426Y018752D01*
X016452Y018754D01*
X016552Y018754D02*
X016578Y018756D01*
X016604Y018761D01*
X016629Y018769D01*
X016652Y018781D01*
X016674Y018795D01*
X016693Y018813D01*
X016711Y018832D01*
X016725Y018854D01*
X016737Y018877D01*
X016745Y018902D01*
X016750Y018928D01*
X016752Y018954D01*
X016752Y019054D01*
X015752Y019054D02*
X015752Y019254D01*
X015752Y019054D02*
X015750Y019020D01*
X015744Y018987D01*
X015735Y018955D01*
X015722Y018924D01*
X015706Y018894D01*
X015687Y018867D01*
X015664Y018842D01*
X015639Y018819D01*
X015612Y018800D01*
X015582Y018784D01*
X015551Y018771D01*
X015519Y018762D01*
X015486Y018756D01*
X015452Y018754D01*
X015426Y018752D01*
X015400Y018747D01*
X015375Y018739D01*
X015352Y018727D01*
X015330Y018713D01*
X015311Y018695D01*
X015293Y018676D01*
X015279Y018654D01*
X015267Y018631D01*
X015259Y018606D01*
X015254Y018580D01*
X015252Y018554D01*
X015252Y018054D01*
X014552Y018754D02*
X014518Y018752D01*
X014485Y018746D01*
X014453Y018737D01*
X014422Y018724D01*
X014392Y018708D01*
X014365Y018689D01*
X014340Y018666D01*
X014317Y018641D01*
X014298Y018614D01*
X014282Y018584D01*
X014269Y018553D01*
X014260Y018521D01*
X014254Y018488D01*
X014252Y018454D01*
X014252Y018054D01*
X014552Y018754D02*
X014578Y018756D01*
X014604Y018761D01*
X014629Y018769D01*
X014652Y018781D01*
X014674Y018795D01*
X014693Y018813D01*
X014711Y018832D01*
X014725Y018854D01*
X014737Y018877D01*
X014745Y018902D01*
X014750Y018928D01*
X014752Y018954D01*
X014752Y019054D01*
X013252Y018054D02*
X013235Y018056D01*
X013218Y018060D01*
X013202Y018067D01*
X013188Y018077D01*
X013175Y018090D01*
X013165Y018104D01*
X013158Y018120D01*
X013154Y018137D01*
X013152Y018154D01*
X013152Y019254D01*
X012152Y019054D02*
X012152Y018154D01*
X012154Y018137D01*
X012158Y018120D01*
X012165Y018104D01*
X012175Y018090D01*
X012188Y018077D01*
X012202Y018067D01*
X012218Y018060D01*
X012235Y018056D01*
X012252Y018054D01*
X011152Y018154D02*
X011152Y019354D01*
D18*
X010252Y018954D02*
X010252Y012654D01*
X010752Y013054D02*
X010747Y013102D01*
X010737Y013150D01*
X010725Y013197D01*
X010708Y013243D01*
X010689Y013288D01*
X010666Y013331D01*
X010640Y013372D01*
X010611Y013412D01*
X010579Y013448D01*
X010545Y013483D01*
X010508Y013515D01*
X010468Y013543D01*
X010427Y013569D01*
X010384Y013592D01*
X010339Y013611D01*
X010293Y013627D01*
X010246Y013640D01*
X010198Y013649D01*
X010149Y013654D01*
X010101Y013656D01*
X010052Y013654D01*
X009752Y013254D02*
X009752Y018854D01*
X009750Y018880D01*
X009745Y018906D01*
X009737Y018931D01*
X009725Y018954D01*
X009711Y018976D01*
X009693Y018995D01*
X009674Y019013D01*
X009652Y019027D01*
X009629Y019039D01*
X009604Y019047D01*
X009578Y019052D01*
X009552Y019054D01*
X009452Y019054D01*
X009418Y019056D01*
X009385Y019062D01*
X009353Y019071D01*
X009322Y019084D01*
X009292Y019100D01*
X009265Y019119D01*
X009240Y019142D01*
X009217Y019167D01*
X009198Y019194D01*
X009182Y019224D01*
X009169Y019255D01*
X009160Y019287D01*
X009154Y019320D01*
X009152Y019354D01*
X008752Y019054D02*
X008652Y019154D01*
X008752Y019054D02*
X008796Y019052D01*
X008839Y019046D01*
X008881Y019037D01*
X008923Y019024D01*
X008963Y019007D01*
X009002Y018987D01*
X009039Y018964D01*
X009073Y018937D01*
X009106Y018908D01*
X009135Y018875D01*
X009162Y018841D01*
X009185Y018804D01*
X009205Y018765D01*
X009222Y018725D01*
X009235Y018683D01*
X009244Y018641D01*
X009250Y018598D01*
X009252Y018554D01*
X009252Y014254D01*
X009261Y014204D01*
X009273Y014155D01*
X009289Y014108D01*
X009309Y014061D01*
X009331Y014016D01*
X009357Y013972D01*
X009386Y013931D01*
X009417Y013891D01*
X009452Y013855D01*
X009489Y013820D01*
X009528Y013788D01*
X009569Y013760D01*
X009613Y013734D01*
X009658Y013711D01*
X009704Y013692D01*
X009752Y013676D01*
X009801Y013663D01*
X009851Y013654D01*
X009901Y013649D01*
X009951Y013647D01*
X010002Y013649D01*
X010052Y013654D01*
X009752Y013254D02*
X009750Y013215D01*
X009744Y013176D01*
X009735Y013138D01*
X009722Y013101D01*
X009705Y013065D01*
X009685Y013032D01*
X009661Y013000D01*
X009635Y012971D01*
X009606Y012945D01*
X009574Y012921D01*
X009541Y012901D01*
X009505Y012884D01*
X009468Y012871D01*
X009430Y012862D01*
X009391Y012856D01*
X009352Y012854D01*
X008152Y012854D01*
X008113Y012852D01*
X008074Y012846D01*
X008036Y012837D01*
X007999Y012824D01*
X007963Y012807D01*
X007930Y012787D01*
X007898Y012763D01*
X007869Y012737D01*
X007843Y012708D01*
X007819Y012676D01*
X007799Y012643D01*
X007782Y012607D01*
X007769Y012570D01*
X007760Y012532D01*
X007754Y012493D01*
X007752Y012454D01*
X007752Y012154D01*
X008752Y012054D02*
X008754Y012088D01*
X008760Y012121D01*
X008769Y012153D01*
X008782Y012184D01*
X008798Y012214D01*
X008817Y012241D01*
X008840Y012266D01*
X008865Y012289D01*
X008892Y012308D01*
X008922Y012324D01*
X008953Y012337D01*
X008985Y012346D01*
X009018Y012352D01*
X009052Y012354D01*
X009952Y012354D01*
X009986Y012356D01*
X010019Y012362D01*
X010051Y012371D01*
X010082Y012384D01*
X010112Y012400D01*
X010139Y012419D01*
X010164Y012442D01*
X010187Y012467D01*
X010206Y012494D01*
X010222Y012524D01*
X010235Y012555D01*
X010244Y012587D01*
X010250Y012620D01*
X010252Y012654D01*
X010752Y013054D02*
X010752Y012154D01*
X010852Y015954D02*
X010752Y016054D01*
X010852Y015954D02*
X016652Y015954D01*
X016752Y016054D01*
X016552Y018754D02*
X016452Y018754D01*
X011252Y018054D02*
X011235Y018056D01*
X011218Y018060D01*
X011202Y018067D01*
X011188Y018077D01*
X011175Y018090D01*
X011165Y018104D01*
X011158Y018120D01*
X011154Y018137D01*
X011152Y018154D01*
X010252Y018954D02*
X010250Y018971D01*
X010246Y018988D01*
X010239Y019004D01*
X010229Y019018D01*
X010216Y019031D01*
X010202Y019041D01*
X010186Y019048D01*
X010169Y019052D01*
X010152Y019054D01*
D19*
X005147Y009916D02*
X005147Y009523D01*
X005147Y009719D02*
X004556Y009719D01*
X004753Y009523D01*
X004655Y009272D02*
X004556Y009173D01*
X004556Y008878D01*
X005147Y008878D01*
X004950Y008878D02*
X004950Y009173D01*
X004852Y009272D01*
X004655Y009272D01*
X004556Y008645D02*
X004556Y008448D01*
X004556Y008547D02*
X005147Y008547D01*
X005147Y008645D02*
X005147Y008448D01*
X005049Y008198D02*
X004655Y008198D01*
X004556Y008099D01*
X004556Y007804D01*
X005147Y007804D01*
X005147Y008099D01*
X005049Y008198D01*
X004950Y007553D02*
X004556Y007553D01*
X004556Y007159D02*
X004950Y007159D01*
X005147Y007356D01*
X004950Y007553D01*
X021456Y007555D02*
X021456Y007259D01*
X022047Y007259D01*
X021850Y007259D02*
X021850Y007555D01*
X021752Y007653D01*
X021555Y007653D01*
X021456Y007555D01*
X021555Y007904D02*
X021949Y007904D01*
X022047Y008002D01*
X022047Y008199D01*
X021949Y008298D01*
X021555Y008298D01*
X021456Y008199D01*
X021456Y008002D01*
X021555Y007904D01*
X021456Y008548D02*
X021456Y008844D01*
X021555Y008942D01*
X021752Y008942D01*
X021850Y008844D01*
X021850Y008548D01*
X022047Y008548D02*
X021456Y008548D01*
X021850Y008745D02*
X022047Y008942D01*
X022047Y009390D02*
X021456Y009390D01*
X021456Y009193D02*
X021456Y009587D01*
X021555Y009837D02*
X021456Y009936D01*
X021456Y010133D01*
X021555Y010231D01*
X021653Y010231D01*
X022047Y009837D01*
X022047Y010231D01*
X022047Y014559D02*
X021456Y014559D01*
X021456Y014855D01*
X021555Y014953D01*
X021752Y014953D01*
X021850Y014855D01*
X021850Y014559D01*
X021949Y015204D02*
X021555Y015204D01*
X021456Y015302D01*
X021456Y015499D01*
X021555Y015598D01*
X021949Y015598D01*
X022047Y015499D01*
X022047Y015302D01*
X021949Y015204D01*
X022047Y015848D02*
X021456Y015848D01*
X021456Y016144D01*
X021555Y016242D01*
X021752Y016242D01*
X021850Y016144D01*
X021850Y015848D01*
X021850Y016045D02*
X022047Y016242D01*
X022047Y016690D02*
X021456Y016690D01*
X021456Y016493D02*
X021456Y016887D01*
X021653Y017137D02*
X021456Y017334D01*
X022047Y017334D01*
X022047Y017137D02*
X022047Y017531D01*
D20*
X015112Y014704D02*
X015112Y014648D01*
X014885Y014648D01*
X014885Y014704D02*
X014942Y014761D01*
X015055Y014761D01*
X015112Y014704D01*
X015055Y014534D02*
X014942Y014534D01*
X014885Y014591D01*
X014885Y014704D01*
X014744Y014704D02*
X014744Y014534D01*
X014744Y014704D02*
X014687Y014761D01*
X014517Y014761D01*
X014517Y014534D01*
X014376Y014591D02*
X014376Y014704D01*
X014319Y014761D01*
X014205Y014761D01*
X014149Y014704D01*
X014149Y014591D01*
X014205Y014534D01*
X014319Y014534D01*
X014376Y014591D01*
X014271Y014261D02*
X014271Y014091D01*
X014328Y014034D01*
X014498Y014034D01*
X014498Y013978D02*
X014442Y013921D01*
X014385Y013921D01*
X014498Y013978D02*
X014498Y014261D01*
X014139Y014034D02*
X014026Y014034D01*
X014083Y014034D02*
X014083Y014375D01*
X014026Y014375D01*
X013884Y014204D02*
X013884Y014034D01*
X013884Y014204D02*
X013828Y014261D01*
X013658Y014261D01*
X013658Y014034D01*
X013516Y014091D02*
X013516Y014204D01*
X013459Y014261D01*
X013346Y014261D01*
X013289Y014204D01*
X013289Y014091D01*
X013346Y014034D01*
X013459Y014034D01*
X013516Y014091D01*
X013474Y014534D02*
X013474Y014761D01*
X013587Y014761D02*
X013644Y014761D01*
X013587Y014761D02*
X013474Y014648D01*
X013332Y014648D02*
X013105Y014648D01*
X013105Y014704D02*
X013162Y014761D01*
X013275Y014761D01*
X013332Y014704D01*
X013332Y014648D01*
X013275Y014534D02*
X013162Y014534D01*
X013105Y014591D01*
X013105Y014704D01*
X012964Y014704D02*
X012964Y014591D01*
X012907Y014534D01*
X012737Y014534D01*
X012737Y014421D02*
X012737Y014761D01*
X012907Y014761D01*
X012964Y014704D01*
X012595Y014704D02*
X012595Y014534D01*
X012482Y014534D02*
X012482Y014704D01*
X012539Y014761D01*
X012595Y014704D01*
X012482Y014704D02*
X012425Y014761D01*
X012369Y014761D01*
X012369Y014534D01*
X012425Y014431D02*
X012425Y014375D01*
X012425Y014261D02*
X012425Y014034D01*
X012369Y014034D02*
X012482Y014034D01*
X012614Y014034D02*
X012614Y014261D01*
X012614Y014148D02*
X012728Y014261D01*
X012784Y014261D01*
X012425Y014261D02*
X012369Y014261D01*
X012227Y014204D02*
X012227Y014034D01*
X012057Y014034D01*
X012000Y014091D01*
X012057Y014148D01*
X012227Y014148D01*
X012227Y014204D02*
X012170Y014261D01*
X012057Y014261D01*
X011859Y014204D02*
X011859Y014091D01*
X011802Y014034D01*
X011632Y014034D01*
X011632Y013921D02*
X011632Y014261D01*
X011802Y014261D01*
X011859Y014204D01*
X011745Y014534D02*
X011689Y014534D01*
X011632Y014591D01*
X011745Y014534D02*
X011802Y014591D01*
X011802Y014875D01*
X011745Y014875D02*
X011859Y014875D01*
X012000Y014761D02*
X012000Y014591D01*
X012057Y014534D01*
X012227Y014534D01*
X012227Y014761D01*
X012516Y008672D02*
X012516Y008436D01*
X012988Y008436D02*
X012988Y008672D01*
X015516Y008634D02*
X015516Y008474D01*
X015988Y008474D02*
X015988Y008634D01*
X018516Y008634D02*
X018516Y008474D01*
X018988Y008474D02*
X018988Y008634D01*
X017332Y003791D02*
X017172Y003791D01*
X017172Y003318D02*
X017332Y003318D01*
X011432Y003318D02*
X011272Y003318D01*
X011272Y003791D02*
X011432Y003791D01*
X009988Y008436D02*
X009988Y008672D01*
X009516Y008672D02*
X009516Y008436D01*
X006988Y008474D02*
X006988Y008634D01*
X006516Y008634D02*
X006516Y008474D01*
M02*
