%
M48
M72
T01C0.0400
T02C0.0910
%
T01
X1472Y1764
X1472Y3544
X1252Y4554
X2252Y4554
X3252Y4554
X4032Y3544
X5572Y3544
X5572Y1764
X4032Y1764
X8132Y1764
X9752Y1554
X10752Y1554
X11752Y1554
X12752Y1554
X13752Y1554
X14752Y1554
X16752Y1554
X17752Y1554
X18752Y1554
X19752Y1554
X20752Y1554
X21752Y1554
X15752Y5554
X14752Y5554
X13752Y5554
X12752Y5554
X11752Y5554
X10752Y5554
X9752Y5554
X8752Y5554
X7752Y5554
X6752Y5554
X5752Y5554
X4752Y5554
X3252Y5554
X2252Y5554
X1252Y5554
X1252Y6554
X2252Y6554
X3252Y6554
X3252Y7554
X2252Y7554
X1252Y7554
X1252Y8554
X2252Y8554
X3252Y8554
X3252Y9554
X2252Y9554
X1252Y9554
X1252Y10554
X2252Y10554
X3252Y10554
X3252Y11554
X2252Y11554
X1252Y11554
X1252Y12554
X2252Y12554
X3252Y12554
X3252Y13554
X4252Y13554
X5252Y13554
X6252Y13554
X7252Y13554
X8252Y13554
X8252Y14554
X7252Y14554
X6252Y14554
X5252Y14554
X4252Y14554
X3252Y14554
X2252Y14554
X2252Y13554
X1252Y13554
X1252Y14554
X1252Y15554
X2252Y15554
X3252Y15554
X4252Y15554
X5252Y15554
X6252Y15554
X7252Y15554
X8252Y15554
X8252Y16554
X7252Y16554
X6252Y16554
X5252Y16554
X4252Y16554
X3252Y16554
X2252Y16554
X1252Y16554
X1252Y17554
X2252Y17554
X3252Y17554
X4252Y17554
X5252Y17554
X6252Y17554
X7252Y17554
X8252Y17554
X8252Y18554
X7252Y18554
X6252Y18554
X5252Y18554
X4252Y18554
X3252Y18554
X2252Y18554
X1252Y18554
X1252Y19554
X2252Y19554
X3252Y19554
X4252Y19554
X4252Y20554
X3252Y20554
X2252Y20554
X1252Y20554
X6152Y20554
X7152Y20554
X8152Y20554
X9152Y20554
X10152Y20554
X11152Y20554
X12152Y20554
X13152Y20554
X14752Y20554
X15752Y20554
X16752Y20554
X17752Y20554
X18752Y20554
X19752Y20554
X20752Y20554
X21752Y20554
X16252Y17554
X15252Y17554
X14252Y17554
X13252Y17554
X12252Y17554
X11252Y17554
X11252Y16554
X12252Y16554
X13252Y16554
X14252Y16554
X15252Y16554
X16252Y16554
X15752Y11554
X14752Y11554
X13752Y11554
X12752Y11554
X11752Y11554
X10752Y11554
X9752Y11554
X8752Y11554
X7752Y11554
X6752Y11554
X5752Y11554
X4752Y11554
X8132Y3544
T02
X19752Y13469
X19752Y18639
M30
