G75*
G70*
%OFA0B0*%
%FSLAX24Y24*%
%IPPOS*%
%LPD*%
%AMOC8*
5,1,8,0,0,1.08239X$1,22.5*
%
%ADD10C,0.0820*%
%ADD11R,0.0680X0.0680*%
%ADD12C,0.0680*%
%ADD13R,0.0580X0.0580*%
%ADD14C,0.1390*%
%ADD15R,0.1261X0.0434*%
D10*
X004752Y005554D03*
X005752Y005554D03*
X006752Y005554D03*
X007752Y005554D03*
X008752Y005554D03*
X009752Y005554D03*
X010752Y005554D03*
X011752Y005554D03*
X012752Y005554D03*
X013752Y005554D03*
X014752Y005554D03*
X015752Y005554D03*
X016752Y001554D03*
X017752Y001554D03*
X018752Y001554D03*
X019752Y001554D03*
X020752Y001554D03*
X021752Y001554D03*
X014752Y001554D03*
X013752Y001554D03*
X012752Y001554D03*
X011752Y001554D03*
X010752Y001554D03*
X009752Y001554D03*
X009752Y011554D03*
X008752Y011554D03*
X007752Y011554D03*
X006752Y011554D03*
X005752Y011554D03*
X004752Y011554D03*
X010752Y011554D03*
X011752Y011554D03*
X012752Y011554D03*
X013752Y011554D03*
X014752Y011554D03*
X015752Y011554D03*
X015252Y016554D03*
X016252Y016554D03*
X016252Y017554D03*
X015252Y017554D03*
X014252Y017554D03*
X013252Y017554D03*
X012252Y017554D03*
X011252Y017554D03*
X011252Y016554D03*
X012252Y016554D03*
X013252Y016554D03*
X014252Y016554D03*
D11*
X013152Y020554D03*
X021752Y020554D03*
D12*
X001472Y001764D03*
X001472Y003544D03*
X001252Y004554D03*
X002252Y004554D03*
X003252Y004554D03*
X004032Y003544D03*
X005572Y003544D03*
X005572Y001764D03*
X004032Y001764D03*
X008132Y001764D03*
X008132Y003544D03*
X003252Y005554D03*
X002252Y005554D03*
X001252Y005554D03*
X001252Y006554D03*
X002252Y006554D03*
X003252Y006554D03*
X003252Y007554D03*
X002252Y007554D03*
X001252Y007554D03*
X001252Y008554D03*
X002252Y008554D03*
X003252Y008554D03*
X003252Y009554D03*
X002252Y009554D03*
X001252Y009554D03*
X001252Y010554D03*
X002252Y010554D03*
X003252Y010554D03*
X003252Y011554D03*
X002252Y011554D03*
X001252Y011554D03*
X001252Y012554D03*
X002252Y012554D03*
X003252Y012554D03*
X003252Y013554D03*
X004252Y013554D03*
X005252Y013554D03*
X006252Y013554D03*
X007252Y013554D03*
X008252Y013554D03*
X008252Y014554D03*
X007252Y014554D03*
X006252Y014554D03*
X005252Y014554D03*
X004252Y014554D03*
X003252Y014554D03*
X002252Y014554D03*
X002252Y013554D03*
X001252Y013554D03*
X001252Y014554D03*
X001252Y015554D03*
X002252Y015554D03*
X003252Y015554D03*
X004252Y015554D03*
X005252Y015554D03*
X006252Y015554D03*
X007252Y015554D03*
X008252Y015554D03*
X008252Y016554D03*
X007252Y016554D03*
X006252Y016554D03*
X005252Y016554D03*
X004252Y016554D03*
X003252Y016554D03*
X002252Y016554D03*
X001252Y016554D03*
X001252Y017554D03*
X002252Y017554D03*
X003252Y017554D03*
X004252Y017554D03*
X005252Y017554D03*
X006252Y017554D03*
X007252Y017554D03*
X008252Y017554D03*
X008252Y018554D03*
X007252Y018554D03*
X006252Y018554D03*
X005252Y018554D03*
X004252Y018554D03*
X003252Y018554D03*
X002252Y018554D03*
X001252Y018554D03*
X001252Y019554D03*
X002252Y019554D03*
X003252Y019554D03*
X004252Y019554D03*
X004252Y020554D03*
X003252Y020554D03*
X002252Y020554D03*
X001252Y020554D03*
X006152Y020554D03*
X007152Y020554D03*
X008152Y020554D03*
X009152Y020554D03*
X010152Y020554D03*
X011152Y020554D03*
X012152Y020554D03*
X014752Y020554D03*
X015752Y020554D03*
X016752Y020554D03*
X017752Y020554D03*
X018752Y020554D03*
X019752Y020554D03*
X020752Y020554D03*
D13*
X018752Y008954D03*
X018752Y008154D03*
X015752Y008154D03*
X015752Y008954D03*
X012752Y008954D03*
X012752Y008154D03*
X009752Y008154D03*
X009752Y008954D03*
X006752Y008954D03*
X006752Y008154D03*
X010952Y003554D03*
X011752Y003554D03*
X016852Y003554D03*
X017652Y003554D03*
X019752Y003554D03*
X020552Y003554D03*
D14*
X019752Y013469D03*
X019752Y018639D03*
D15*
X018394Y017235D03*
X018394Y016448D03*
X018394Y015661D03*
X018394Y014873D03*
M02*
